<?xml version="1.0" encoding="utf-8"?>
<!-- Generator: Adobe Illustrator 19.0.0, SVG Export Plug-In . SVG Version: 6.00 Build 0)  -->
<svg version="1.1" id="Layer_1" xmlns="http://www.w3.org/2000/svg" xmlns:xlink="http://www.w3.org/1999/xlink" x="0px" y="0px"
	 viewBox="0 0 100 50" style="enable-background:new 0 0 100 50;" xml:space="preserve">
<style type="text/css">
	.st0{fill:#231F20;}
</style>
<path id="XMLID_321_" class="st0" d="M18.3,7c-1.5-3.3-3.5-4.5-5.8-2.8C8.2,7.2,6.9,31,8,39.2c1.1,8.3,2.7,9.1,4.5,10
	c0.8,0.5,2.6-0.4,2.6-2.3c0-2.8-2-15.6-1.3-19.3c0.7-3.7,3.8-2.5,5.4-1c2.6,2.4,6.1,20.6,9.3,20C35.1,45.5,19.8,10.2,18.3,7z
	 M17.6,19.8c-0.6,1.1-4.5,2-5,0c-0.5-2-0.7-10.6,1.6-10.6C16.6,9.2,19.1,17.2,17.6,19.8z"/>
<path id="XMLID_287_" class="st0" d="M52.3,34.4c-2.4-10.6-14.5-7.6-16.8-8.5c-2.3-0.9-4.3-15.6-4.9-19.9c0,0-2.7-8.8-4.7-4.4
	s5.6,38.8,7.8,41.9C35.9,46.5,54.7,44.9,52.3,34.4z M41.7,40.2c-4.4,0.8-8-6.8-4.2-9.5c4.1-2.9,8.1,0.8,8.1,0.8
	C50.3,35.6,46.1,39.3,41.7,40.2z"/>
<path id="XMLID_297_" class="st0" d="M49.7,6.3c0,0-7.9-5-11.1,3.6c-3.2,8.5,4,15.6,10.5,16.1S59,13.5,49.7,6.3z M47.7,20.6
	c-3.5-0.1-6.6-5.4-4.7-8.7c1.9-3.4,4.7,0,4.7,0C50.8,15.8,51.2,20.7,47.7,20.6z"/>
<path id="XMLID_202_" class="st0" d="M56,3.4c0,0-1.5,35.2,5.2,37.5s15.4-0.3,15-16.6C75.9,8,76.7,1.9,72.4,3.9S72,35.6,66.5,31.5
	S65.2,8.7,62.6,5.6S57.4,0.6,56,3.4z"/>
<path id="XMLID_290_" class="st0" d="M80.9,4.9c-5.4,6.7-4.8,31.1-2.1,34.4c2.6,3.3,9.5,0,10-5.2c0.5-5.2-4.6,2.8-6.5,0.1
	s-3.3-16.5-0.6-15.7c6.6,2.1,6.4-4.4,1.7-3c-4.3,1.2-1.4-5-0.9-7S82.2,3.2,80.9,4.9z"/>
</svg>
