<?xml version="1.0" encoding="utf-8"?>
<!-- Generator: Adobe Illustrator 19.0.0, SVG Export Plug-In . SVG Version: 6.00 Build 0)  -->
<svg version="1.1" id="Layer_1" xmlns="http://www.w3.org/2000/svg" xmlns:xlink="http://www.w3.org/1999/xlink" x="0px" y="0px"
	 viewBox="0 0 80 50" style="enable-background:new 0 0 80 50;" xml:space="preserve">
<style type="text/css">
	.st0{fill:#699066;}
</style>
<path id="XMLID_321_" class="st0" d="M10.5,7.4C9.1,4.2,7.1,3,4.9,4.6C0.6,7.7-0.6,30.9,0.5,39c1.1,8.1,2.6,8.9,4.4,9.8
	c0.8,0.4,2.6-0.3,2.6-2.2c0-2.7-1.9-15.3-1.2-18.9c0.7-3.6,3.7-2.5,5.3-0.9c2.5,2.4,6,20.2,9.1,19.6C27,45.1,12,10.6,10.5,7.4z
	 M9.9,20c-0.6,1.1-4.4,2-4.9,0C4.5,18,4.3,9.7,6.6,9.7C8.9,9.6,11.3,17.5,9.9,20z"/>
<path id="XMLID_287_" class="st0" d="M43.9,34.2c-2.3-10.3-14-8.5-16.4-8.4c-2.8,0.1-4.3-14-4.8-19.5c-0.1-1.6-2.1-6.9-4.6-4.3
	c-3.3,3.5,4.8,36,8.2,40C31,47.8,46.2,44.6,43.9,34.2z M33.5,39.9c-4.3,0.8-7.9-6.6-4.1-9.3c4-2.9,7.9,0.8,7.9,0.8
	C41.9,35.4,37.8,39.1,33.5,39.9z"/>
<path id="XMLID_297_" class="st0" d="M41.3,6.8c0,0-7.8-4.9-10.8,3.5S34.3,25.9,40.7,26C46.3,26,50.4,13.8,41.3,6.8z M39.3,20.8
	c-3.5-0.1-6.5-5.3-4.6-8.6s4.6,0,4.6,0C42.4,16,42.8,20.9,39.3,20.8z"/>
<path id="XMLID_202_" class="st0" d="M49.3,17.2c-1.3,5.3-3.6,21.3,0.1,24.1c3.6,2.8,9.5,2.3,10.7-9.4c1-10.6,1.4-14.2-1.1-13.4
	c-3,1-1.7,18.7-6.3,18.1c-4.5-0.6,0.8-15.7,0-18.3C51.7,15.5,49.5,16.2,49.3,17.2z"/>
<path id="XMLID_53_" class="st0" d="M67.8,6.6c-6.8,1-17.9,0.3-17.2,4.1c0.9,4.5,11.5-1.3,12.6,2.1c1.6,4.8-4.6,33.6,1.3,33.6
	c5.3,0,2.4-28.7,4.3-34.5c0.9-2.7,10.8-1.5,11.2-3.7C80.5,5,74.2,5.7,67.8,6.6z"/>
</svg>
