<?xml version="1.0" encoding="utf-8"?>
<!-- Generator: Adobe Illustrator 19.0.0, SVG Export Plug-In . SVG Version: 6.00 Build 0)  -->
<svg version="1.1" id="Layer_1" xmlns="http://www.w3.org/2000/svg" xmlns:xlink="http://www.w3.org/1999/xlink" x="0px" y="0px"
	 viewBox="850 -950 2500 2500" style="enable-background:new 850 -950 2500 2500;" xml:space="preserve">
<style type="text/css">
	.st0{fill:#FFFFFF;}
</style>
<path d="M3216,1550H984c-73.7,0-134-60.3-134-134V-816c0-73.7,60.3-134,134-134h2232c73.7,0,134,60.3,134,134v2232
	C3350,1489.7,3289.7,1550,3216,1550z"/>
<path class="st0" d="M1089.9,300c0-183.2,45.1-352.2,135.4-507.1c90.2-154.9,212.8-277.4,367.7-367.7
	c154.9-90.2,323.9-135.4,507.1-135.4c183.2,0,352.2,45.1,507.1,135.4c154.9,90.2,277.4,212.8,367.7,367.7
	C3065-52.2,3110.1,116.8,3110.1,300s-45.1,352.2-135.4,507.1c-90.2,154.9-212.8,277.4-367.7,367.7
	c-154.9,90.2-323.9,135.4-507.1,135.4c-183.2,0-352.2-45.1-507.1-135.4c-154.9-90.2-277.4-212.8-367.7-367.7
	C1135,652.2,1089.9,483.2,1089.9,300z M1257.6,300c0,210.1,70.7,395.3,212.1,555.6c64.6-126.6,167-247.1,307.1-361.6
	c140.1-114.5,276.8-186.5,410.1-216.2c-20.2-47.1-39.7-89.6-58.6-127.3c-231.6,74.1-482.2,111.1-751.5,111.1
	c-52.5,0-91.6-0.7-117.2-2c0,5.4-0.3,12.1-1,20.2C1257.9,287.9,1257.6,294.6,1257.6,300z M1283.8,91.9c29.6,2.7,73.4,4,131.3,4
	c224.9,0,438.4-30.3,640.4-90.9c-102.4-181.8-214.8-333.3-337.4-454.5c-106.4,53.9-197.6,128.6-273.7,224.2
	C1368.3-129.6,1314.8-23.9,1283.8,91.9z M1584.8,964.6c152.2,118.5,323.9,177.8,515.2,177.8c99.7,0,198.7-18.9,297-56.6
	c-26.9-230.3-79.5-453.2-157.6-668.7c-123.9,26.9-248.8,94.9-374.7,204C1738.7,730.3,1645.5,844.8,1584.8,964.6z M1893.9-514.1
	c118.5,122.6,228.3,275.4,329.3,458.6c183.2-76.8,321.2-174.4,414.1-292.9C2481.1-477.8,2302-542.4,2100-542.4
	C2031.3-542.4,1962.6-533,1893.9-514.1z M2296,87.9c20.2,43.1,43.1,97.6,68.7,163.6c99.7-9.4,208.1-14.1,325.3-14.1
	c83.5,0,166.3,2,248.5,6.1c-10.8-183.2-76.8-346.1-198-488.9C2652.9-114.8,2504.7-3.7,2296,87.9z M2415.2,392.9
	c68.7,199.3,115.2,404,139.4,614.1c106.4-68.7,193.3-156.9,260.6-264.6c67.3-107.7,107.7-224.2,121.2-349.5
	c-98.3-6.7-187.9-10.1-268.7-10.1C2593.6,382.8,2509.4,386.2,2415.2,392.9z"/>
</svg>
