<?xml version="1.0" encoding="utf-8"?>
<!-- Generator: Adobe Illustrator 19.0.0, SVG Export Plug-In . SVG Version: 6.00 Build 0)  -->
<svg version="1.1" id="Layer_1" xmlns="http://www.w3.org/2000/svg" xmlns:xlink="http://www.w3.org/1999/xlink" x="0px" y="0px"
	 viewBox="0 0 841.9 595.3" style="enable-background:new 0 0 841.9 595.3;" xml:space="preserve">
<style type="text/css">
	.st0{fill:#FFFFFF;}
	.st1{opacity:0.2;}
</style>
<g id="XMLID_2_">
	<g id="XMLID_215_">
		<path id="XMLID_117_" d="M669.8,291.9c-9.9-18.7-76.6-30.8-79.7-12.8C586,303.5,684.4,319.7,669.8,291.9z"/>
		<path id="XMLID_116_" d="M749.1,161.2C713,156.1,624,141.3,624,165.4c0,35.5,76,10.8,80.6,37.5c6.6,38.3-61.6,244-18,254.3
			c42.3,10,46.3-240.2,70.9-253.4c25.9-13.9,71,12.1,75.3-13.4C835.6,174.2,798.6,168.1,749.1,161.2z"/>
		<path id="XMLID_87_" d="M158.7,179.4c40.4-7.3-20.3-97.4-88.3-46.4C12,176.8,23.2,319.2,62.8,406.1c14.4,31.5,32.9,55.1,52.5,65.3
			c26.8,14,57.2,11,76,0.1c29.6-17,44.5-64.2,20.2-117.4c-17.4-38.2-80.1-21.7-71.2,9.1c10.3,35.4,40.1-11.3,50.5,19.6
			c12.5,37.1-17.7,72.4-57.3,49C86.4,404,53.7,291.1,65.4,215.4c5.5-35.8,21.4-57.4,44.7-58.2C140,156.3,142.9,182.2,158.7,179.4z"
			/>
		<path id="XMLID_44_" d="M286.5,219.5c4.7-30.9,58.9-4.2,57-66.7c-1.9-65-150.9-94.9-158.6-40.4c-10.9,77.3,16.6,215,31.3,233.2
			c17.4,21.5,23.4,5.3,22.7-23.5c-0.5-23-8.8-105.7-0.3-106.4c15-1.2,51.7,238.6,87.8,232S283.5,239.3,286.5,219.5z M244.6,178
			c-24-7.6-28-46.3-9.6-54.2c10.4-4.5,57.2,2.1,63.3,22.3C307.3,175.6,268.6,185.6,244.6,178z"/>
		<path id="XMLID_42_" d="M446.1,152.6c-11.6-26.5-25.6-43.3-47.5-30.2c-36.7,22-52,220.9-44.9,287.8c7.2,66.8,16.4,79.2,34.1,81.7
			c5,0.7,17.4-10.1,17.4-34.3c0-53.9-8.5-109.8-2.1-139.1c6.4-29.4,36.1-22.4,47.1-7c23.6,32.9,37.6,167.7,70.1,162.6
			C573.9,465.6,457.8,179.1,446.1,152.6z M435,255.8c-5.1,8.7-36.4,15.5-40.4-1s-1.6-78.3,15.6-80.6
			C428.9,171.9,447.2,235.2,435,255.8z"/>
		<path id="XMLID_124_" d="M523.7,259.3c-14.2-51.3-77.4-148.8-44.2-158.1c21.4-6,46.2,94.9,56.6,93.2c11.7-2,23.1-91.1,44.2-91.1
			c31.5,0-11.7,98.9-11.7,139c0,50.8,18.9,183.5-5.8,183.5C540.5,425.9,537.7,309.8,523.7,259.3z"/>
	</g>
	<path id="XMLID_7_" class="st0" d="M138.3,139.3c-17.1-16.2-48.6-9.6-61.5,8.6c-2.6,3.7,3.5,7.2,6,3.5
		c10.3-14.6,36.9-20.1,50.5-7.2C136.6,147.4,141.6,142.4,138.3,139.3L138.3,139.3z"/>
	<path id="XMLID_52_" class="st0" d="M185.4,341.5c-11.7-1.7-24.2,0.7-33.4,8.5c-3.4,2.9,1.5,7.9,5,5c6.8-5.8,17.6-8,26.6-6.7
		C187.9,348.9,189.8,342.1,185.4,341.5L185.4,341.5z"/>
	<path id="XMLID_51_" class="st0" d="M248.1,106.9c18.7,1.9,41.2,7.8,55.7,20.5c3.4,3,8.3-2,5-5c-15.9-14-39.9-20.4-60.6-22.5
		C243.6,99.4,243.6,106.4,248.1,106.9L248.1,106.9z"/>
	<path id="XMLID_50_" class="st0" d="M415.2,148.8c11.1,8.7,19.6,23.4,25.4,36c1.9,4.1,7.9,0.5,6-3.5c-6-13.1-14.9-28.5-26.5-37.5
		C416.6,141.1,411.6,146,415.2,148.8L415.2,148.8z"/>
	<path id="XMLID_33_" class="st0" d="M575.5,125.3c-3.4,13.8-7.2,27.7-12.5,40.9c-1.7,4.2,5.1,6,6.8,1.9
		c5.3-13.1,9.2-27.1,12.5-40.9C583.4,122.8,576.6,120.9,575.5,125.3L575.5,125.3z"/>
	<path id="XMLID_27_" class="st0" d="M757.8,181.8c19.2,2.5,38.6,4.9,57.2,10.7c4.3,1.3,6.2-5.4,1.9-6.8c-19.2-5.9-39.2-8.4-59-11
		C753.4,174.3,753.4,181.3,757.8,181.8L757.8,181.8z"/>
	<path id="XMLID_21_" class="st0" d="M619.2,284.3c9.9,1.9,19.6,4.3,29.2,7.5c4.3,1.4,6.1-5.3,1.9-6.8c-9.6-3.2-19.3-5.6-29.2-7.5
		C616.6,276.6,614.7,283.4,619.2,284.3L619.2,284.3z"/>
	<g id="XMLID_159_">
		<g id="XMLID_89_">
			<path id="XMLID_94_" class="st0" d="M562.9,181.6c3.2,0,3.2-5,0-5C559.6,176.6,559.6,181.6,562.9,181.6L562.9,181.6z"/>
		</g>
	</g>
	<g id="XMLID_152_">
		<g id="XMLID_82_">
			<path id="XMLID_88_" class="st0" d="M739.3,178.7c3.2,0,3.2-5,0-5S736.1,178.7,739.3,178.7L739.3,178.7z"/>
		</g>
	</g>
	<g id="XMLID_145_">
		<g id="XMLID_77_">
			<path id="XMLID_81_" class="st0" d="M450.3,198.7c3.2,0,3.2-5,0-5C447.1,193.7,447.1,198.7,450.3,198.7L450.3,198.7z"/>
		</g>
	</g>
	<g id="XMLID_138_">
		<g id="XMLID_72_">
			<path id="XMLID_76_" class="st0" d="M320.9,148.8c3.2,0,3.2-5,0-5C317.7,143.8,317.7,148.8,320.9,148.8L320.9,148.8z"/>
		</g>
	</g>
	<g id="XMLID_131_">
		<g id="XMLID_66_">
			<path id="XMLID_71_" class="st0" d="M67.7,167.3c3.2,0,3.2-5,0-5S64.5,167.3,67.7,167.3L67.7,167.3z"/>
		</g>
	</g>
</g>
<g id="XMLID_4_" class="st1">
	<g id="XMLID_178_">
		<path id="XMLID_190_" d="M682.3,282.6c-11.2-18-78.6-25.1-80.4-7C599.6,300.3,699,309.4,682.3,282.6z"/>
		<path id="XMLID_189_" d="M752,146.5c-36.3-2.4-126.2-10.8-124.4,13.3c2.6,35.4,76.6,5.3,83.1,31.6c9.3,37.7-43.7,247.8,0.5,254.9
			c42.9,6.9,28.8-242.9,52.4-257.9c24.8-15.8,71.7,6.9,74.1-18.8C839.2,153.3,801.8,149.9,752,146.5z"/>
		<path id="XMLID_188_" d="M164.4,207.5c39.7-10.2-27.3-95.6-91.5-39.8c-55,47.9-33.6,189.1,12.3,272.9
			c16.6,30.4,36.8,52.5,57.1,61.3c27.8,12,57.8,6.8,75.8-5.4c28.3-19.1,39.7-67.3,11.7-118.5c-20.2-36.8-81.5-15.9-70.3,14.2
			c12.8,34.6,39.1-14.1,51.8,15.9c15.2,36.1-12.4,73.5-53.6,53c-49-24.3-89.8-134.6-83.6-210.9c2.9-36.1,17.2-58.8,40.4-61.3
			C144.1,185.8,148.9,211.5,164.4,207.5z"/>
		<path id="XMLID_184_" d="M294.8,238.3c2.4-31.2,58.4-8.4,52-70.7c-6.6-64.7-157.3-83.7-161.1-28.8
			c-5.2,77.9,32.2,213.2,48.2,230.3c18.9,20.2,23.7,3.6,21-25.1c-2.2-22.9-16.4-104.8-8-106.1c14.8-2.3,68.9,234.2,104.4,225
			S293.3,258.2,294.8,238.3z M250,199.8c-24.5-5.9-31.3-44.1-13.5-53.4c10-5.2,57.2-2.1,64.8,17.7
			C312.4,192.9,274.6,205.7,250,199.8z"/>
		<path id="XMLID_181_" d="M449.2,159.9c-13.5-25.6-28.7-41.3-49.5-26.7c-35.1,24.6-35.9,224.1-23.9,290.2s22.1,77.8,40,79
			c5,0.3,16.6-11.3,14.8-35.5c-3.9-53.8-16.4-108.9-12.1-138.6s34.3-25,46.4-10.4c25.9,31.1,49.7,164.6,81.7,157.1
			C599.3,462.8,462.7,185.5,449.2,159.9z M445.6,263.7c-4.5,9.1-35.2,18.1-40.4,2c-5.2-16.2-7.3-78,9.7-81.5
			C433.4,180.4,456.3,242.2,445.6,263.7z"/>
		<path id="XMLID_179_" d="M534.3,260.8c-17.9-50.2-88-142.8-55.5-154.5c20.9-7.5,53,91.3,63.2,88.8c11.5-2.8,16.5-92.5,37.5-94
			c31.5-2.3-4.5,99.5-1.6,139.5c3.7,50.6,32.2,181.6,7.5,183.4C563.2,425.7,551.9,310.1,534.3,260.8z"/>
	</g>
</g>
</svg>
