<?xml version="1.0" encoding="utf-8"?>
<!-- Generator: Adobe Illustrator 19.0.0, SVG Export Plug-In . SVG Version: 6.00 Build 0)  -->
<svg version="1.1" id="Layer_1" xmlns="http://www.w3.org/2000/svg" xmlns:xlink="http://www.w3.org/1999/xlink" x="0px" y="0px"
	 viewBox="0 0 100 50" style="enable-background:new 0 0 100 50;" xml:space="preserve">
<style type="text/css">
	.st0{fill:#FFFFFF;}
</style>
<path id="XMLID_144_" class="st0" d="M17.6,15.9c3.6-1-2.4-12.7-11.1-6.9c-9.8,6.5-8,33.2,1.5,38.4c10,5.5,15.4-4,14.6-13.6
	C22,25,12.8,29.4,13,32.5c0.1,3.1,5.2-1.6,5.7,1.6c0.9,6.5-2.3,12-8.3,9.2c-5.2-2.5-7-16.7-5.3-24.1c1-4.2,3.4-6.4,6.2-6.4
	C14.8,12.7,15.2,16.6,17.6,15.9z"/>
<path id="XMLID_141_" class="st0" d="M31.8,17.3c1-2.9,8.1-0.6,7.8-8C39.5,2.4,21.9-2,20.9,4.5c-1.4,9.1,2.5,26.3,3.7,27.6
	c1.7,1.9,2.8,0.6,2.7-2.8c-0.1-2.7-1-12.5,0-12.6C29,16.6,33.4,45,37.7,44.2S31.2,19.2,31.8,17.3z M28,12.2
	c-2.8-0.9-3.3-5.5-1.1-6.4c1.2-0.5,6.8,0.2,7.5,2.6C35.4,12,30.8,13.2,28,12.2z"/>
<path id="XMLID_138_" class="st0" d="M50.7,5.9c-1.5-3.1-3.4-4.3-5.5-2.7c-4.1,3-5.3,25.6-4.3,33.5c1,7.9,2.6,8.7,4.3,9.6
	c0.8,0.4,2.5-0.3,2.5-2.2c0-2.7-1.9-14.9-1.2-18.4c0.7-3.5,3.6-2.4,5.2-0.9c2.5,2.3,5.8,19.7,8.8,19.1C66.8,42.7,52.2,9,50.7,5.9z
	 M50.1,18.2c-0.6,1-4.3,1.9-4.8,0c-0.5-1.9-0.7-10.1,1.6-10.1C49.1,8.1,51.5,15.7,50.1,18.2z"/>
<path id="XMLID_137_" class="st0" d="M61.3,22.9c0,0-9.2-18-6.1-19.2c2.4-0.9,4.8,10.1,6.5,10.7c1.3,0.5,2.8-11.2,5.2-10.8
	c2.5,0.4-1.7,13-2.3,16.9c-0.6,3.9,1.9,13.2,0,14.1C62.8,35.6,62.1,29.1,61.3,22.9z"/>
<path id="XMLID_136_" class="st0" d="M79.7,21.1c-1.9-2-10.8-2.3-11.2,0C67.9,24.2,82.4,23.9,79.7,21.1z"/>
<path id="XMLID_135_" class="st0" d="M88.2,5.9C83.9,5.5,70.8,3.4,71,7c0.2,4.2,11.7,0.7,12.2,3.9c0.8,4.5-8.2,33.1-2.9,33
	c4.9,0,4.6-29.3,8.8-33c2.2-2,9.9,0.9,10.8-2C100.9,6,94.1,6.4,88.2,5.9z"/>
</svg>
