<?xml version="1.0" encoding="utf-8"?>
<!-- Generator: Adobe Illustrator 19.0.0, SVG Export Plug-In . SVG Version: 6.00 Build 0)  -->
<svg version="1.1" id="Layer_1" xmlns="http://www.w3.org/2000/svg" xmlns:xlink="http://www.w3.org/1999/xlink" x="0px" y="0px"
	 viewBox="0 0 100 50" style="enable-background:new 0 0 100 50;" xml:space="preserve">
<style type="text/css">
	.st0{fill:#FFFFFF;}
</style>
<path id="XMLID_234_" class="st0" d="M38.4,17c1-3,8.4-0.6,8.2-8.4C46.4,1.5,28-3.1,26.9,3.7c-1.5,9.6,2.6,27.4,3.9,28.9
	c1.8,2,2.9,0.7,2.8-2.9c-0.1-2.8-1.1-13.1,0-13.2C35.5,16.3,40,46,44.5,45.2S37.7,19,38.4,17z M34.3,11.8c-3-0.9-3.5-5.7-1.2-6.7
	c1.3-0.6,7.1,0.3,7.8,2.8C42.1,11.5,37.3,12.7,34.3,11.8z"/>
<path id="XMLID_231_" class="st0" d="M58.1,5.2c-1.5-3.2-3.5-4.5-5.8-2.8c-4.3,3.1-5.6,26.8-4.5,35.1c1.1,8.3,2.7,9.1,4.5,10
	c0.8,0.5,2.6-0.4,2.6-2.3c0-2.8-2-15.6-1.3-19.3c0.7-3.7,3.8-2.5,5.4-1c2.6,2.4,6.1,20.6,9.2,20C75,43.7,59.6,8.4,58.1,5.2z
	 M57.5,18c-0.6,1.1-4.5,2-5,0c-0.5-2-0.7-10.5,1.6-10.6C56.4,7.4,58.9,15.4,57.5,18z"/>
<path id="XMLID_230_" class="st0" d="M69.2,23c0,0-9.6-18.8-6.3-20.1c2.5-1,5,10.5,6.8,11.2c1.4,0.5,2.9-11.7,5.5-11.3
	c2.6,0.5-1.8,13.6-2.5,17.6c-0.7,4.1,2,13.8,0,14.8C70.7,36.2,70,29.4,69.2,23z"/>
<path id="XMLID_214_" class="st0" d="M75.6,37.9c1.5-1.8,2.8,1.4,3.5,2c5.5,5.1,4.7-11.1,4.8-13c0.1-2-6.6,0.9-6.6-2.3
	c0-1.8,4.4-1.1,5.7-1.7c2.4-1.1-2.7-13-0.4-14.3c1.6-0.9,2.5-0.1,3.8,10.3c0.1,0.5,0.6,3.7,1,4c1.5,1.3,5.3-1.1,5.6,1.6
	c0.3,2.4-5,0.8-5,2.4c-0.4,10.5-1.2,15.5-5.4,17.5C77.8,46.5,74.1,39.7,75.6,37.9z"/>
<path id="XMLID_219_" class="st0" d="M24.7,49.3c6-1.6,6.9-11.1,5.2-11.7c-2.3-0.9-3.3,6.5-6.6,7.7c-4.9,1.8-10.1-16-10.1-16
	s3.9,7.4,10.5,3.1s2-19-4.7-19.6s-8.6,3.6-8.9,3.7c-0.6,0.3-0.8-1.9-2.2-1.6c-1.6,0.4-0.8,4,0.4,9.7C10,33.1,14.4,52.2,24.7,49.3z
	 M13.8,20.4c0,0,0.7-5.1,5.7-3c4.8,2,5.1,11.1,0.9,11.5C16.2,29.3,13.2,24.5,13.8,20.4z"/>
</svg>
