<?xml version="1.0" encoding="utf-8"?>
<!-- Generator: Adobe Illustrator 19.0.0, SVG Export Plug-In . SVG Version: 6.00 Build 0)  -->
<svg version="1.1" id="Layer_1" xmlns="http://www.w3.org/2000/svg" xmlns:xlink="http://www.w3.org/1999/xlink" x="0px" y="0px"
	 viewBox="0 0 100 50" style="enable-background:new 0 0 100 50;" xml:space="preserve">
<style type="text/css">
	.st0{fill:#FFFFFF;}
</style>
<path id="XMLID_11_" class="st0" d="M75.9,24c-1.2-1.6-9-2.6-9.4-1.1C66.1,25,77.7,26.3,75.9,24z"/>
<path id="XMLID_10_" class="st0" d="M84.6,10.4c-4.3-0.4-16-2.4-16,0.4c0,4.2,10.5,1.4,11,4.5c0.8,4.5-7.6,29.9-2.4,29.8
	c4.9,0,4.1-26.1,8.2-29.8c2.2-2,9.8,0.9,10.7-2C97.1,10.5,90.4,10.9,84.6,10.4z"/>
<path id="XMLID_9_" class="st0" d="M19.8,13.2c2.6-1.2-3.6-9.5-10.5-3.4c-8.8,7.7-2.6,34.1,6.8,38.4c9.7,4.4,15-2.6,11.7-12.1
	c-1.4-4.1-9.2-3.1-9,0c0.3,3.1,4.7-1.4,6,2.2c1.6,4.3-1.7,8-7,4.9c-5.5-3.3-9.4-15.2-8.3-24.2c0.5-4.2,2.3-7.3,5.1-7.5
	C18.2,11.3,18.6,13.7,19.8,13.2z"/>
<path id="XMLID_6_" class="st0" d="M32.8,16.3c0.9-2.9,8-0.6,7.8-7.9C40.4,1.6,22.9-2.8,21.9,3.6c-1.4,9.1,2.4,26.1,3.7,27.4
	c1.7,1.9,2.7,0.6,2.7-2.8c-0.1-2.7-1-12.4,0-12.5c1.8-0.1,6.1,28.1,10.3,27.3S32.2,18.2,32.8,16.3z M28.9,11.3
	c-2.8-0.9-3.3-5.4-1.1-6.4c1.2-0.5,6.7,0.2,7.4,2.6C36.3,11.1,31.8,12.2,28.9,11.3z"/>
<path id="XMLID_3_" class="st0" d="M51.2,9.3C49.9,6.2,48,5,45.8,6.5c-4.2,2.8-5.9,25.3-5,33.2c0.8,7.9,2.3,8.7,4,9.6
	c0.8,0.4,2.5-0.3,2.6-2.1c0.1-2.6-1.5-14.9-0.8-18.3c0.8-3.5,3.6-2.3,5.2-0.8c2.4,2.4,5.3,19.7,8.3,19.2
	C66.4,46.2,52.6,12.4,51.2,9.3z M50.3,21.5c-0.6,1-4.3,1.8-4.8-0.1c-0.5-1.9-0.5-10,1.8-10C49.6,11.4,51.8,19.1,50.3,21.5z"/>
<path id="XMLID_2_" class="st0" d="M60.1,21c-1.7-6-8.5-18.2-5.4-19.4c2.4-0.9,4.7,10,6.5,10.7c1.3,0.5,2.8-11.1,5.2-10.7
	S64.4,15,64.6,19c0.2,6,1.8,19.3-0.2,19.6C62.3,38.8,61.8,27,60.1,21z"/>
</svg>
