<?xml version="1.0" encoding="utf-8"?>
<!-- Generator: Adobe Illustrator 19.0.0, SVG Export Plug-In . SVG Version: 6.00 Build 0)  -->
<svg version="1.1" id="Layer_1" xmlns="http://www.w3.org/2000/svg" xmlns:xlink="http://www.w3.org/1999/xlink" x="0px" y="0px"
	 viewBox="0 0 100 50" style="enable-background:new 0 0 100 50;" xml:space="preserve">
<style type="text/css">
	.st0{fill:#FFFFFF;}
</style>
<path id="XMLID_11_" class="st0" d="M78.9,24.7c-1.2-2.2-9-3.6-9.4-1.5C69.1,26.1,80.7,28,78.9,24.7z"/>
<path id="XMLID_10_" class="st0" d="M88.3,9.4C84,9,72.3,7,72.3,9.8c0,4.2,10.5,1.4,11,4.5c0.8,4.5-7.6,29.9-2.4,29.8
	c4.9,0,4.1-26.1,8.2-29.8c2.2-2,7.4,1.4,8.3-1.5C98.5,10,94.1,9.9,88.3,9.4z"/>
<path id="XMLID_9_" class="st0" d="M18.8,11.5c4.8-0.9-2.4-11.5-10.4-5.5c-9.4,7-4.2,34.6,5.2,39.1c9.6,4.6,15-2.3,12-11.8
	c-1.3-4.1-9.2-3.3-9-0.2c0.2,3.1,4.7-1.3,5.9,2.3c1.5,4.4-1.9,7.9-7.1,4.7c-5.4-3.4-9-15.5-7.7-24.4c0.7-4.2,2.5-6.8,5.3-6.8
	C16.6,8.8,17,11.9,18.8,11.5z"/>
<path id="XMLID_6_" class="st0" d="M32.8,16.3c0.9-2.9,8-0.6,7.8-7.9C40.4,1.6,22.9-2.8,21.9,3.6c-1.4,9.1,2.4,26.1,3.7,27.4
	c1.7,1.9,2.7,0.6,2.7-2.8c-0.1-2.7-1-12.4,0-12.5c1.8-0.1,6.1,28.1,10.3,27.3S32.2,18.2,32.8,16.3z M28.9,11.3
	c-2.8-0.9-3.3-5.4-1.1-6.4c1.2-0.5,6.7,0.2,7.4,2.6C36.3,11.1,31.8,12.2,28.9,11.3z"/>
<path id="XMLID_3_" class="st0" d="M52.2,8.3C50.9,5.2,49,4,46.8,5.5c-4.2,2.8-5.9,25.3-5,33.2c0.8,7.9,2.3,8.7,4,9.6
	c0.8,0.4,2.5-0.3,2.6-2.1c0.1-2.6-1.5-14.9-0.8-18.3c0.8-3.5,3.6-2.3,5.2-0.8c2.4,2.4,5.3,19.7,8.3,19.2
	C67.4,45.2,53.6,11.4,52.2,8.3z M51.3,20.5c-0.6,1-4.3,1.8-4.8-0.1c-0.5-1.9-0.5-10,1.8-10C50.6,10.4,52.8,18.1,51.3,20.5z"/>
<path id="XMLID_2_" class="st0" d="M62.1,22c-1.7-6-9.3-18.3-5.4-19.4c2.9-0.8,4.7,10,6.5,10.7c1.3,0.5,2.7-11,5.2-10.7
	C71.6,3,66.4,16,66.6,20c0.2,6,3,20.1-0.1,20.1C63.9,40.1,63.8,28,62.1,22z"/>
</svg>
