<?xml version="1.0" encoding="utf-8"?>
<!-- Generator: Adobe Illustrator 19.0.0, SVG Export Plug-In . SVG Version: 6.00 Build 0)  -->
<svg version="1.1" id="Layer_1" xmlns="http://www.w3.org/2000/svg" xmlns:xlink="http://www.w3.org/1999/xlink" x="0px" y="0px"
	 viewBox="0 0 500 500" style="enable-background:new 0 0 500 500;" xml:space="preserve">
<style type="text/css">
	.st0{fill:none;stroke:#000000;stroke-width:6;stroke-miterlimit:5;}


		 .st0 {
		  //stroke: #ffda00;
			stroke: rgba(250, 250, 250, 1);
			stroke-dasharray: 3000;
			stroke-dashoffset: 0;
			-webkit-animation: dash 1s linear forwards;
			-o-animation: dash 1s linear forwards;
			-moz-animation: dash 1s linear forwards;
			animation: dash 1s linear forwards;
		}

		@-webkit-keyframes dash {
			from {

				stroke-dashoffset: 3000;
			}
			to {
				stroke: black;
				stroke-dashoffset: 0;
			}
			}

			@-keyframes dash {
				from {

					stroke-dashoffset: 3000;
				}
				to {
					stroke: black;
					stroke-dashoffset: 0;

				}
			}

			@-moz-keyframes dash {
				from {

					stroke-dashoffset: 3000;
				}
				to {
					stroke: black;
					stroke-dashoffset: 0;

				}
			}


</style>
<path id="XMLID_2_" class="st0" d="M223.7,360.7c0,0-20-42-42.7-60s-23.3-14-39.3-44s-27.5-53.8-41.3-62.7
	c-19.2-12.3-29-1.7-23.3,12c5.7,13.6,33.3,88,38.7,108.7c5.3,20.7,25.3,100.7,50,118.7s80.7,36,112.7,21.3
	c32-14.7,45.1-45.5,68.4-103.5c12.2-30.2,22.3-65.9,34-99.2c10.7-30.6,23.4-59.6,25.5-68.3c2.5-10.3,6.5-20.5,1-22.8
	c-4.6-1.9-9-0.1-11.8,3.3c-12.5,15.5-29.3,49.5-43.8,68.9c-2.4,3.3-4.6,5.7-10.5,3.5c-7-2.5-4.9-9-3-16.5c2-7.9,19.8-61.3,35.8-125
	c3-12-2.3-18.1-5-19c-8-2.5-11.5,1.4-16,7c-6.7,8.4-45.9,119.2-50.7,131.5c-2.2,5.8-5.8,11.5-10,9.9c-5.6-2.1-4.5-4.7-3.3-11.9
	c3.4-20.2,29.2-145.4,30.8-157.7c2.3-16.8-2.6-21.8-11.6-23c-5.9-0.8-11.9,4.7-15.9,16.7s-32,152.2-35.3,159.5
	c-3.3,7.3-6,14-12.7,11.2c-4.9-2.1-5.3-7.3-6-22c-0.7-14.7,3.3-125.3,3.3-136.7S236.1,43,232.1,43S220,41.5,216,60.9
	s-18.3,123.8-21.7,143.8c-3.3,20-24.7,84-24.7,84s20.3-0.7,70.2,10.2c21.8,4.7,49.7,15.7,49.7,15.7"/>
</svg>
