<?xml version="1.0" encoding="utf-8"?>
<!-- Generator: Adobe Illustrator 19.0.0, SVG Export Plug-In . SVG Version: 6.00 Build 0)  -->
<svg version="1.1" id="Layer_1" xmlns="http://www.w3.org/2000/svg" xmlns:xlink="http://www.w3.org/1999/xlink" x="0px" y="0px"
	 viewBox="0 0 500 500" style="enable-background:new 0 0 500 500;" xml:space="preserve">
<style type="text/css">
	.st0{fill:#FFFFFF;}
	.st1{fill:#231F20;}
</style>
<g id="XMLID_11_">
	<path id="XMLID_34_" class="st0" d="M401.7,165.9c-7-2.3-12.3,0.5-17.7,9.8c0,0-26.1,47-35.8,62.8c-2.6,4.2-6.5,3.3-10,1.8
		c-6-2.5-4.7-8-3.6-13.3l34.4-115.2C371.2,102,379,82,368,78.4c-11.4-3.8-18.5,9.4-23.6,23.4c0,0-34.9,92.9-41.6,111.1
		c-1.8,4.9-5.3,18.8-10.7,17.5c-7.4-1.7-3-15.7-1.9-21l26.2-146c0.9-9.8,5.5-24.9-8.7-26.7c-11.4-1.5-14.2,4.5-18.6,17.4
		c0,0-23.4,122.2-37.5,161.1c-2.8,7.8-6.1,10.1-11,8.3c-3.9-1.5-4-10.9-3.8-16.6c1.3-33.3,2.7-133.4,2.7-133.4
		c-0.2-10.1,2.7-24.6-8.7-25.7l0,0c-11.4-1.1-15,7.6-15.9,16.8c0,0-19.1,122.6-26.2,163c-5.8,33.2-54,151.7-53.4,153.4
		c12.3,34.2,28.7,64.2,64,73.2c21.2,5.4,83,13.1,100.6-12.4c47.4-68.5,56.2-114,72.1-163.1c6.4-19.7,28.2-85.3,28.2-85.3
		C404.3,180.1,408,168,401.7,165.9z"/>
	<g id="XMLID_29_">
		<path id="XMLID_33_" class="st1" d="M402.5,162.9c-15.7-4.6-22.7,13.9-28.9,24.9c-4.7,8.5-9.5,16.9-14.3,25.3
			c-4.2,7.4-8,15.8-13.1,22.6c-2,2.6-4.9,3.5-7.8,1.3c-2.6-2-1.7-5.7-1-8.5c0.2-0.7,0.4-1.5,0.6-2.2c1.1-3.9,2.3-7.7,3.4-11.5
			c4.3-14.4,8.6-28.7,12.9-43.1c6.9-23.1,14.5-46,20.4-69.4c1.9-7.4,4.8-18.6-1.7-24.7c-7.4-6.9-17.6-1.6-22.6,5.1
			c-6.9,9.2-10.3,21.6-14.3,32.4c-11.5,30.6-23,61.3-34.4,91.9c-0.8,2.3-1.7,4.5-2.5,6.8c-1.2,3.6-2.3,10.1-5.4,12.6
			c-3.9,3.1-2.3-8.2-2-10c0.4-2.2,1-4.4,1.4-6.6c1.5-7.7,2.8-15.4,4.1-23.1c5.6-31,11.1-62,16.7-93.1c1.7-9.3,3.4-18.7,5-28
			c1.9-11.3,5.4-29.2-10-32c-9.4-1.8-16.1,2.3-19.9,10.9c-1.7,3.9-3,7.8-3.9,12c-2.4,12.3-4.8,24.5-7.4,36.7
			c-7.6,36.7-15,73.8-25.8,109.7c-0.9,3.1-1.9,6.2-3,9.3c-1,2.8-6.2,13.7-8.6,5.9c-2.3-7.3-0.5-16.8-0.3-24.4
			c0.5-18.7,0.9-37.4,1.2-56.1c0.3-17.2,0.6-34.4,0.8-51.6c0.1-4,0.1-7.9,0.2-11.9c0.1-6.8,1.2-14.3-0.9-20.8
			c-2.9-9-14-11.2-21.6-6.3c-5.9,3.8-7.3,10.9-8.3,17.4c-1.4,9.9-3.1,19.7-4.6,29.5c-5.9,37.3-11.7,74.5-17.9,111.7
			c-2.1,12.8-4.1,25.5-7.8,37.9c-5,16.9-10.9,33.6-16.9,50.1c-6.4,17.5-13,35-19.6,52.4c-4,10.6-8.5,21.1-12,31.9
			c-1.8,5.6,2.2,11.6,4.4,16.7c4.4,10.7,9.6,21.2,16.3,30.7c12.5,17.4,29.7,28.8,50.7,33.1c18.1,3.7,37.2,5.4,55.7,3.7
			c9.1-0.8,18.2-2.5,26.6-6.2c9.1-4,14.5-10.2,20-18.3c15.5-23,29-47.2,39.8-72.7c8.4-20,15-40.7,21.3-61.5
			c10.3-33.9,21.8-67.5,33-101.2c1.3-3.9,2.6-7.8,3.8-11.7c2.1-6.8,8.6-23.2-1-27.4c-3.7-1.6-6.8,3.8-3.2,5.4
			c6.6,2.9-6,33.1-8.4,40.2c-5.8,17.5-11.6,34.9-17.4,52.4c-12.4,37.7-22.3,76.5-38.9,112.7c-5.5,12-11.7,23.7-18.3,35.1
			c-3.6,6.2-7.4,12.3-11.3,18.3c-3.6,5.5-7,11.8-11.7,16.4c-13,12.5-35.3,13.1-52.2,12.7c-17.4-0.4-37-2-53.1-9.2
			c-21.5-9.6-34.7-29.5-43.9-50.4c-2.4-5.5-4.5-11.2-6.6-16.8c0.9,2.3-0.4,1.7,0.2,0.9c0.3-0.4,0.4-1.2,0.5-1.6c1.4-4,2.9-8,4.4-12
			c5.6-14.7,11.2-29.4,16.8-44.1c6.6-17.6,13.1-35.3,19.2-53.1c4.5-13.1,9.2-26.5,11.9-40.1c6.7-33.8,11.3-68.2,16.7-102.2
			c2.5-15.8,5-31.7,7.5-47.5c0.7-4.2,1.3-8.4,2-12.6c0.7-4.8,0.8-10.2,4.2-14c3.2-3.6,10.9-4.6,13.5,0.2c2.3,4.3,1.3,10.4,1.2,15
			c-0.1,3.3-0.1,6.6-0.1,9.9c-0.2,14.2-0.4,28.4-0.7,42.5c-0.3,19.3-0.7,38.6-1.1,58c-0.2,7.7-0.4,15.5-0.7,23.2
			c-0.2,6.7-2.1,18.8,4.5,23.2c14.7,9.8,20.8-23.7,23.1-32.2c5-18.1,9.2-36.5,13.3-54.9c6.1-27.5,10.8-55.4,17.2-82.9
			c1.2-5.2,3.5-13.8,9-15.9c3.9-1.5,10.2-0.6,12.5,3.2c2.2,3.7,1.2,9.1,0.7,13.1c-0.9,7-2.2,14-3.4,21c-5.3,29.7-10.7,59.5-16,89.2
			c-2.1,11.7-4.2,23.5-6.3,35.2c-1.5,8.2-5.6,18.3-2.8,26.2c1.1,3.1,3.9,5.7,7.3,5.6c3.9,0,6.4-3.5,8-6.6c3-5.8,4.7-12.3,7-18.5
			c5.4-14.4,10.8-28.8,16.2-43.2c5.9-15.8,11.8-31.6,17.8-47.3c3.9-10.5,7.3-23.8,14.4-32.3c2.8-3.4,8.8-7.2,12.8-3.2
			c3.1,3.1,1.7,9.8,0.9,13.6c-1.1,5.5-2.7,10.9-4.2,16.2c-2.7,9.5-5.6,18.9-8.5,28.4c-8.1,27.1-16.2,54.2-24.3,81.3
			c-0.9,2.9-1.7,5.7-2.1,8.8c-0.5,4.2,0.1,8.2,3.6,11c3.6,2.8,9.5,4.3,13.6,1.7c2.9-1.9,4.6-5.8,6.3-8.7c2.3-3.9,4.5-7.8,6.8-11.7
			c4.9-8.5,9.7-17,14.5-25.6c3.3-5.9,6.6-11.7,9.8-17.6c3.4-6.1,7.5-13.1,15.5-10.8C404.7,170.1,406.4,164,402.5,162.9z"/>
	</g>
</g>
<g id="XMLID_10_">
	<path id="XMLID_27_" class="st0" d="M135.1,381c0,0-13.3-40.5-36.7-103.2c-12.2-32.6-22.1-62.5-23.7-72.9
		c-2.5-15.7,28.5-14.6,44.6,19.7c17.1,36.4,24.5,46.7,29.9,55.4c16.6,26.4,29.8,25.6,51.2,53.3c11.5,15,20,33.5,20,33.5"/>
	<g id="XMLID_22_">
		<path id="XMLID_26_" class="st1" d="M138.2,380.1c-5.8-17.8-12.1-35.4-18.3-53c-13.3-37.1-28.6-73.7-39.4-111.7
			c-1.9-6.6-6.4-17.7,4.6-17.2c13.6,0.6,24.4,14,30.1,25c11.8,22.6,21.7,46.5,37.4,66.9c10.3,13.4,25,22.2,36.5,34.5
			c11.9,12.7,21.4,27.9,28.7,43.7c1.7,3.6,7.1,0.5,5.4-3.2c-6.5-14-14.7-27.5-24.6-39.3c-10.8-12.8-24.9-21.6-36.2-33.8
			c-7.5-8.1-13.4-18.1-19-27.6c-8.4-14.4-15-29.6-22.7-44.4c-6.3-12.1-17-24.4-30.9-27.4c-7.8-1.7-18,0.6-18.2,10.3
			c-0.1,4.9,1.8,10.2,3.2,14.8c2.5,8.8,5.4,17.4,8.3,26.1c7.4,21.7,15.6,43,23.5,64.5c8.9,24.4,17.7,48.8,25.8,73.5
			C133.4,385.6,139.4,384,138.2,380.1L138.2,380.1z"/>
	</g>
</g>
<g id="XMLID_9_">
	<path id="XMLID_28_" class="st0" d="M167,298c0,0,22,1,49.6,5.1c35.5,5.3,68.8,24.2,68.8,24.2"/>
	<g id="XMLID_17_">
		<path id="XMLID_21_" class="st1" d="M167,301.1c40.5,1.9,81.1,8.7,116.8,28.9c3.5,2,6.7-3.4,3.2-5.4
			c-36.7-20.7-78.4-27.8-120-29.8C163,294.7,163,300.9,167,301.1L167,301.1z"/>
	</g>
</g>
</svg>
