<?xml version="1.0" encoding="utf-8"?>
<!-- Generator: Adobe Illustrator 19.0.0, SVG Export Plug-In . SVG Version: 6.00 Build 0)  -->
<svg version="1.1" id="Layer_1" xmlns="http://www.w3.org/2000/svg" xmlns:xlink="http://www.w3.org/1999/xlink" x="0px" y="0px"
	 viewBox="0 0 500 500" style="enable-background:new 0 0 500 500;" xml:space="preserve">


	 <defs>
	 	<style>


				#wwhole {
				  animation: wave 2s infinite;
					animation-timing-function: linear;
					-webkit-animation: wave 2s infinite;
					-webkit-animation-timing-function: linear;
					-o-animation: wave 2s infinite;
					-o-animation-timing-function: linear;
					-ms-animation: wave 2s infinite;
					-ms-animation-timing-function: linear;
					-moz-animation: wave 2s infinite;
					-moz-animation-timing-function: linear;
					overflow: visible;

				}

				@keyframes wave {
					0% {
						transform: rotate(-20deg);
						transform-origin: 50% 100%;
						animation-timing-function: linear;
					}
					50% {
						transform: rotate(20deg);
						transform-origin: 50% 100%;
						animation-timing-function: linear;

					}
					100% {
						transform: rotate(-20deg);
						transform-origin: 50% 100%;
						animation-timing-function: linear;
						}

					}

					@-webkit-keyframes wave {
						0% {

							-webkit-transform: rotate(-30deg);
							-webkit-transform-origin: 50% 100%;

							}
						50% {

							-webkit-transform: rotate(30deg);
							-webkit-transform-origin: 50% 100%;
							}


						100% {

							-webkit-transform: rotate(-30deg);
							-webkit-transform-origin: 50% 100%;

							}
						}
						@-ms-keyframes wave {
							0% {

								-ms-transform: rotate(0deg);
								-ms-transform-origin: 215px 368px;

							}
							50% {


								-ms-transform: rotate(60deg);
								-ms-transform-origin: 215px 368px;

							}
							100% {


								-ms-transform: rotate(0deg);
								-ms-transform-origin: 215px 368px;

								}
							}
							@-o-keyframes wave {
								0% {

									-o-transform: rotate(0deg);
									-o-transform-origin: 215px 368px;
								}
								50% {

									-o-transform: rotate(60deg);
									-o-transform-origin: 215px 368px;
								}
								100% {

									-o-transform: rotate(0deg);
									-o-transform-origin: 215px 368px;
									}
								}

								@-moz-keyframes wave {
									0% {

										-moz-transform: rotate(0deg);
										-moz-transform-origin: 215px 368px;

									}
									50% {


										-moz-transform: rotate(60deg);
										-moz-transform-origin: 215px 368px;

									}
									100% {
										-moz-transform: rotate(0deg);
										-moz-transform-origin: 215px 368px;
										}
								}











	 	</style>

	 </defs>
<style type="text/css">
	.st0{fill:#FFFFFF;}
	.st1{fill:#231F20;}
</style>
<g id="whole">
<g id="XMLID_11_">
	<path id="XMLID_34_" class="st0" d="M411.7,165.9c-7-2.3-12.3,0.5-17.7,9.8l-35.8,62.8c-1.1,5.3-6.4,2.2-11.7,1.1l0,0
		c-5.3-1.1-3.1-7.3-1.9-12.6l34.4-115.2C381.2,102,389,82,378,78.4c-11.4-3.8-18.5,9.4-23.6,23.4c0,0-34.9,92.9-41.6,111.1
		c-1.8,4.9-5.3,18.8-10.7,17.5c-7.4-1.7-3-15.7-1.9-21l26.2-146c0.9-9.8,5.5-24.9-8.7-26.7c-11.4-1.5-14.2,4.5-18.6,17.4
		c0,0-23.4,122.2-37.5,161.1c-2.8,7.8-6.1,10.1-11,8.3c-3.9-1.5-4-10.9-3.8-16.6c1.3-33.3,2.7-133.4,2.7-133.4
		c-0.2-10.1,2.7-24.6-8.7-25.7l0,0c-11.4-1.1-15,7.6-15.9,16.8c0,0-19.1,122.6-26.2,163c-5.8,33.2-54,151.7-53.4,153.4
		c12.3,34.2,28.7,64.2,64,73.2c21.2,5.4,83,13.1,100.6-12.4c47.4-68.5,56.2-114,72.1-163.1c6.4-19.7,28.2-85.3,28.2-85.3
		C414.3,180.1,418,168,411.7,165.9z"/>
	<g id="XMLID_29_">
		<path id="XMLID_33_" class="st1" d="M412.5,162.9c-14.9-4.4-21.5,11.7-27.5,22.2c-7.8,13.7-15.6,27.5-23.5,41.2
			c-2,3.5-3.7,7.2-6,10.5c-1,1.5-0.4,1.5-2.5,1.3c-3-0.3-6.8-1.2-6.7-4.5c0.1-2.1,0.9-4.3,1.4-6.4c2.7-9.7,5.8-19.3,8.6-28.9
			c8.2-27.5,16.4-55.1,24.7-82.6c1.2-3.9,2.2-7.7,3.2-11.6c2-7.5,5.3-18.8-0.4-25.5c-6.7-7.8-17.7-3.1-23,3.6
			c-4.7,5.9-7.4,13.2-10,20.2c-10.9,29-21.8,58-32.7,87.1c-2.3,6.2-4.7,12.5-7,18.7c-0.9,2.5-1.8,5-2.7,7.5
			c-0.6,1.9-3.1,11.6-5.8,11.6c-4-0.1,1.2-21.6,2-26.3c5.3-29.6,10.6-59.3,15.9-88.9c2.3-12.9,4.6-25.9,7-38.8
			c1.6-8.8,4.1-18.5,2.9-27.3c-1.3-9.5-9.7-13.8-18.7-12.6c-9.4,1.3-13.3,10.9-15.6,19c-2.3,7.8-3.3,16.3-4.9,24.3
			c-7.5,37.3-15.2,74.6-25,111.3c-2,7.5-4.1,14.9-6.5,22.3c-1,3.1-2.8,11.1-7,10.5c-4.3-0.6-3.2-11.1-3.1-14.3
			c0.6-17.2,1-34.4,1.3-51.6c0.6-29,0.6-58.1,1.4-87.2c0.2-8,0.7-19.7-8.9-22.6c-10.1-3-18.6,3.6-21,13.1
			c-2.2,8.3-2.8,17.4-4.1,25.9c-5.8,37.2-11.7,74.4-17.8,111.6c-2.2,13.5-3.9,27.3-7.4,40.6c-4.3,16.3-10,32.4-15.7,48.3
			c-10.9,30.5-23.1,60.6-34.1,91.1c-1.4,3.9-1.7,5.4-0.2,9.6c4.2,11.3,9,22.5,15.2,32.8c11.8,19.4,29,34.2,51.4,39.5
			c17.4,4.2,36,5.9,53.8,5c17.3-0.8,37.8-4.2,48.7-19.2c30.1-41.7,49.3-88.7,64.3-137.6c10.6-34.6,22.2-68.9,33.6-103.2
			c1.2-3.7,2.5-7.4,3.6-11.1c2.1-6.8,9.1-24-0.7-28.3c-3.7-1.6-6.8,3.8-3.2,5.4c6.6,2.9-6.2,33.5-8.5,40.6
			c-5.9,17.6-11.7,35.3-17.5,52.9c-12.7,38.6-22.8,78.2-40.2,115.1c-5.7,12.1-12.1,23.9-19,35.5c-4.1,6.8-8.4,13.6-12.8,20.2
			c-3,4.5-5.8,9.3-10.2,12.7c-14.8,11.6-37.6,11.6-55.5,10.7c-18-0.9-37.9-3-53.8-12.1c-20.9-12-32.9-34.1-41.4-55.9
			c-1-2.7-1.8-5.7-3.1-8.2c0.6,1.2-0.5,1.8,0.2,0.8c0.6-1,0.8-2.5,1.2-3.6c1.7-4.8,3.6-9.6,5.4-14.4c6-15.7,12-31.3,17.8-47
			c6.6-17.6,13-35.3,19-53.1c4.2-12.6,8.2-25.3,10.4-38.4c6.2-36,11.8-72.1,17.5-108.1c2.2-14.2,4.5-28.4,6.7-42.7
			c0.4-2.6,0.9-5.3,1.2-8c0.5-3.7,0.9-7.6,3-10.7c2.8-4.1,11-6.2,14.1-1.3c3.3,5.4,1.4,14.7,1.4,20.7c0,3.9-0.1,7.9-0.2,11.8
			c-0.3,17.2-0.5,34.4-0.8,51.6c-0.3,18.7-0.7,37.4-1.2,56.1c-0.2,7.7-1.2,15.7,0,23.4c0.6,4,2,8.1,6.2,9.5c3.9,1.2,7.6,0.1,10.3-3
			c4.7-5.4,6.5-14.6,8.5-21.5c2.4-8,4.5-16.2,6.5-24.3c4.8-19.1,9.1-38.4,13.2-57.6c3.5-16.4,6.9-32.8,10.2-49.2
			c1.8-8.9,2.7-18.9,7.5-26.8c2.6-4.3,6.8-5.4,11.7-4.4c5.1,1.1,6.5,4.9,6.6,9.7c0,4.8-0.8,9.7-1.6,14.4c-1.5,9.1-3.3,18.2-4.9,27.3
			c-5.5,30.9-11.1,61.8-16.6,92.7c-1.4,8-2.8,16-4.3,24c-1.1,5.8-3.2,11.8-2.2,17.7c1.4,8.5,10.2,10,14.8,3
			c3.7-5.7,5.2-12.8,7.6-19.1c2.3-6.2,4.6-12.3,6.9-18.5c6.3-16.8,12.6-33.6,18.9-50.4c4.5-12,9-24,13.5-36
			c2.5-6.6,4.9-13.6,9.5-19.1c2.9-3.5,9.2-7.4,13.1-2.8c2.9,3.4,1.3,10,0.5,13.8c-1.9,9.1-4.8,18-7.4,26.9
			c-4.2,14.1-8.4,28.2-12.6,42.3c-4.4,14.7-8.8,29.4-13.2,44c-2.3,7.6-6.4,17-6.5,25.1c0,5.2,3.1,7,7.6,8.2c3.8,1,8.7,3,11.9-0.4
			c2.1-2.3,3.8-6.8,5.3-9.6c7.6-13.3,15.1-26.6,22.7-39.8c2.6-4.6,5.3-9.3,7.9-13.9c3.4-6,7.5-12.8,15.4-10.5
			C414.7,170.1,416.4,164,412.5,162.9z"/>
	</g>
</g>
<g id="XMLID_10_">
	<path id="XMLID_27_" class="st0" d="M145.1,381c0,0-13.3-40.5-36.7-103.2c-12.2-32.6-22.1-62.5-23.7-72.9
		c-2.5-15.7,29.7-15.8,45.9,18.4c17.1,36.4,23.2,48,28.7,56.6c16.6,26.4,29.8,25.6,51.2,53.3c11.5,15,20,33.5,20,33.5"/>
	<g id="XMLID_22_">
		<path id="XMLID_26_" class="st1" d="M148.2,380.1c-5.8-17.8-12.1-35.4-18.3-53c-13.3-37.3-28.8-74.1-39.5-112.2
			c-1-3.6-3.6-9.4-2.4-13.2c1-3.2,4.7-4,7.7-4c13.3,0.1,24.3,12.2,30.2,22.9c12.7,22.8,20.7,48.5,36.8,69.4
			c10.3,13.4,25,22.2,36.5,34.5c11.9,12.7,21.4,27.9,28.7,43.7c1.7,3.6,7.1,0.5,5.4-3.2c-6.5-14-14.7-27.5-24.6-39.3
			c-10.8-12.8-24.9-21.6-36.2-33.8c-19.1-20.7-27.7-49.6-40.8-73.9c-6.4-11.9-17.4-23.5-31.2-26.1c-7.7-1.5-18.1,0.8-18.8,10.3
			c-0.3,5,1.8,10.6,3.1,15.4c2.4,8.5,5.2,16.9,8.1,25.3c7.5,21.9,15.8,43.6,23.8,65.3c8.9,24.4,17.7,48.8,25.8,73.5
			C143.4,385.6,149.4,384,148.2,380.1L148.2,380.1z"/>
	</g>
</g>
<g id="XMLID_9_">
	<path id="XMLID_20_" class="st0" d="M177,301c0,0,23.6-1.8,51.5,0c30.1,1.9,66.9,13.3,66.9,13.3"/>
	<g id="XMLID_15_">
		<path id="XMLID_19_" class="st1" d="M177,304.2c39.8-2.9,79.4,1.4,117.6,13.1c3.9,1.2,5.5-4.9,1.7-6
			c-38.7-11.9-78.9-16.3-119.2-13.4C173,298.2,173,304.5,177,304.2L177,304.2z"/>
	</g>
</g>
</g>
</svg>
