<?xml version="1.0" encoding="utf-8"?>
<!-- Generator: Adobe Illustrator 24.0.1, SVG Export Plug-In . SVG Version: 6.00 Build 0)  -->
<svg version="1.1" xmlns="http://www.w3.org/2000/svg" xmlns:xlink="http://www.w3.org/1999/xlink" x="0px" y="0px"
	 viewBox="0 0 152.9 152.9" style="enable-background:new 0 0 152.9 152.9;" xml:space="preserve">
<style type="text/css">
	.st0{display:none;}
	.st1{display:inline;fill:none;stroke:#000000;stroke-width:0.25;stroke-linecap:round;stroke-miterlimit:10;}
	.st2{display:inline;fill:#FFFFFF;stroke:#000000;stroke-width:0.25;stroke-linecap:round;stroke-miterlimit:10;}
	.st3{display:inline;stroke:#000000;stroke-width:0.25;stroke-linecap:round;stroke-miterlimit:10;}
	.st4{display:inline;}
	.st5{fill:none;stroke:#000000;stroke-width:0.25;stroke-linecap:round;stroke-miterlimit:10;}
	.st6{display:inline;fill:none;stroke:#000000;stroke-width:0.75;stroke-linecap:round;stroke-miterlimit:10;}
	.st7{display:inline;fill:#FFFFFF;stroke:#000000;stroke-width:0.75;stroke-linecap:round;stroke-miterlimit:10;}
	.st8{display:inline;fill:#231F20;stroke:#000000;stroke-width:0.75;stroke-linecap:round;stroke-miterlimit:10;}
	.st9{display:inline;stroke:#000000;stroke-width:0.75;stroke-linecap:round;stroke-miterlimit:10;}
	.st10{fill:none;stroke:#000000;stroke-width:0.75;stroke-linecap:round;stroke-miterlimit:10;}
	.st11{display:inline;fill:none;stroke:#FFFFFF;stroke-width:0.75;stroke-linecap:round;stroke-miterlimit:10;}
	.st12{display:inline;fill:none;stroke:#000000;stroke-width:1.25;stroke-linecap:round;stroke-miterlimit:10;}
	.st13{display:inline;fill:#FFFFFF;stroke:#000000;stroke-width:1.25;stroke-linecap:round;stroke-miterlimit:10;}
	.st14{display:inline;stroke:#000000;stroke-width:1.25;stroke-linecap:round;stroke-miterlimit:10;}
	.st15{display:inline;fill:#231F20;stroke:#000000;stroke-width:1.25;stroke-linecap:round;stroke-miterlimit:10;}
	.st16{fill:none;stroke:#000000;stroke-width:1.25;stroke-linecap:round;stroke-miterlimit:10;}
	.st17{display:inline;fill:none;stroke:#FFFFFF;stroke-width:1.25;stroke-linecap:round;stroke-miterlimit:10;}
	.st18{fill:#FFFFFF;}
	.st19{fill:#231F20;}
</style>
<g id="Layer_1" class="st0">
	<path class="st12" d="M64.6,103.3c2.8,3.4,8,8.1,15.7,9.5c2.4,0.5,4.6,0.7,6.8,0.7c7.5,0,13.4-2.6,15-5.3c2.1-3.7-1-6-5.3-4.4
		c-0.9,0.4-7.4,4.3-15.3,0.2c0,0-6.2-1.8-7.2-7.4c-1-5.6,3.6-9.8,10.2-9.1"/>
	<polygon class="st13" points="85,95.2 58.7,106.8 62,113.4 127.6,84.8 123.9,78.1 	"/>
	<path class="st13" d="M102.4,58.2l6.4-9.1c0.9-1.3,0.8-3-0.2-4.2l-2.7-3.2c-1.2-1.4-3.3-1.9-5.1-1.2l-12.9,4.6"/>
	<path class="st13" d="M94.9,89.8H84.7c-2.2,0-3.9-1.8-3.9-3.9v0c0-2.2,1.8-3.9,3.9-3.9h10.1c2.2,0,3.9,1.8,3.9,3.9v0
		C98.8,88.1,97,89.8,94.9,89.8z"/>
	<path class="st13" d="M109.1,87.9l-5.7,1.3c-2.1,0.5-4.2-0.9-4.7-3v0c-0.5-2.1,0.9-4.2,3-4.7l5.7-1.3c2.1-0.5,4.2,0.9,4.7,3v0
		C112.6,85.3,111.2,87.4,109.1,87.9z"/>
	<path class="st14" d="M101.9,84.4h-7.1c-0.9,0-1.7-0.8-1.7-1.7l0,0c0-0.9,0.8-1.7,1.7-1.7h7.1c0.9,0,1.7,0.8,1.7,1.7l0,0
		C103.6,83.6,102.8,84.4,101.9,84.4z"/>
	<path class="st12" d="M79.9,64.2c0,0,2.2,11.7,15.3,17.4"/>
	<path class="st15" d="M86.5,86.5L86.5,86.5c-0.4,0-0.7-0.3-0.7-0.7l0,0c0-0.4,0.3-0.7,0.7-0.7l0,0c0.4,0,0.7,0.3,0.7,0.7l0,0
		C87.2,86.2,86.9,86.5,86.5,86.5z"/>
	<path class="st15" d="M91.2,87.2L91.2,87.2c-0.4,0-0.7-0.3-0.7-0.7l0,0c0-0.4,0.3-0.7,0.7-0.7l0,0c0.4,0,0.7,0.3,0.7,0.7l0,0
		C91.9,86.9,91.6,87.2,91.2,87.2z"/>
	<path class="st15" d="M108.1,83.7L108.1,83.7c0.3-0.2,0.5-0.6,0.3-0.9l0,0c-0.2-0.3-0.6-0.5-0.9-0.3l0,0c-0.3,0.2-0.5,0.6-0.3,0.9
		l0,0C107.3,83.8,107.7,83.9,108.1,83.7z"/>
	<path class="st15" d="M104.2,86.5L104.2,86.5c0.3-0.2,0.5-0.6,0.3-0.9l0,0c-0.2-0.3-0.6-0.5-0.9-0.3l0,0c-0.3,0.2-0.5,0.6-0.3,0.9
		l0,0C103.4,86.5,103.8,86.6,104.2,86.5z"/>
	<path class="st12" d="M84.5,85.9c0,0-5.1-2.2-11.8-3.1c-6.7-0.8-6.2-0.6-6.2-0.6"/>
	<path class="st12" d="M87.5,83.4c-0.2-0.1-1.9-2-8.2-4.5c-6.3-2.5-8.5-3.1-8.5-3.1"/>
	<path class="st12" d="M108.9,84.4c0,0,5.1-2.2,11.8-3.1c6.7-0.8,6.2-0.6,6.2-0.6"/>
	<path class="st12" d="M105.9,81.9c0.2-0.1,1.9-2,8.2-4.5c6.3-2.5,8.5-3.1,8.5-3.1"/>
	<path class="st12" d="M110.1,80.4l4.8-3.7c0.7-0.5,0.6-2.1-0.2-2.4l-5.7-2.3"/>
	<path class="st12" d="M74.8,66.4l-6.3-5.7c-0.6-0.5-1.5-0.1-1.5,0.7l0.1,3.7"/>
	<path class="st12" d="M67.1,64.8L61,60.5c-0.5-0.5-1.4-0.1-1.4,0.6l0.4,4.9"/>
	<path class="st12" d="M60,66l-3.9-2.1c-0.4-0.3-0.9,0-0.8,0.5l0.9,3.6"/>
	<path class="st13" d="M44.2,61.4l-7.2-9.3c-1-1.4-0.9-3.2,0.2-4.5l2.9-3.4c1.3-1.6,3.5-2.1,5.4-1.3l13.9,6"/>
	<path class="st12" d="M69.8,91.3c0-2.3,1.8-4.1,4.1-4.1"/>
	<path class="st13" d="M50.2,52.9c9.7-15.2,44.3-17,51.8,6.5"/>
	<path class="st13" d="M106.1,79.5c0,0-0.2-4.7-0.4-6.8"/>
	<g class="st4">
		<path class="st16" d="M97.8,64.1l4.5-5.3c0.4-0.5,1.1-0.1,1.1,0.6l-0.1,3.4"/>
		<path class="st16" d="M108.3,63.8l0.3-4.5c0-0.7-0.6-1.1-1-0.6l-4.4,3.9l0.5,4.9"/>
		<path class="st16" d="M108.2,63.7l2.8-1.9c0.3-0.3,0.6,0,0.6,0.5l-0.6,3.3"/>
	</g>
	<line class="st13" x1="60.5" y1="73.7" x2="68.2" y2="74.6"/>
	<line class="st13" x1="102.2" y1="74.8" x2="105.7" y2="74.3"/>
	<path class="st13" d="M76.8,65.8c0,0,1.7,0.6,2.6,4.5"/>
	<path class="st13" d="M97.7,67.3c0.2-0.6,2.1-1.9,3.8-2.4"/>
	<path class="st13" d="M88.5,105.3l-0.6-6.3c0-1.1-0.9-1.3-1.2-0.3l-2.5,6L88.5,105.3z"/>
	<path class="st12" d="M101.4,103.3l-0.6-6.3c0-1.1-0.9-1.3-1.2-0.3l-2.5,6L101.4,103.3z"/>
	<path class="st12" d="M43.3,68.7c0,0,0-4.5,3.1-9.9"/>
	<polygon class="st13" points="58.7,106.8 51.6,115.2 62,113.4 	"/>
	<line class="st13" x1="60.2" y1="108.1" x2="125.7" y2="81.1"/>
	<line class="st13" x1="60.8" y1="110.9" x2="126.7" y2="82.9"/>
	<polygon class="st15" points="55.9,110.4 58.1,114.3 51.6,115.2 	"/>
	<path class="st13" d="M85.3,89.8l2.4,5.3c0.3,0.9,1.5,1,1.9,0.1l2.3-5.5L85.3,89.8z"/>
	<path class="st13" d="M103.2,89l3.4,4.7c0.5,0.8,1.7,0.6,1.9-0.3l1.1-5.8L103.2,89z"/>
	<line class="st17" x1="96" y1="82.6" x2="102.2" y2="82.6"/>
	<path class="st13" d="M62.3,71.1l0.3-2l0,0c0.1-0.9,1-1.6,2-1.4l11.1,2.4c1.4,0.3,2.4,1.7,2.2,3.2v0L62.3,71.1z"/>
	<polygon class="st14" points="67,68.4 66.7,71.7 69.5,72 69.7,69.1 	"/>
	<path class="st13" d="M97.3,71.4l10.3-1.4l-0.3-2l0,0c-0.1-0.9-1-1.6-2-1.4l-8.6,1.8"/>
	<polygon class="st14" points="102,67.5 102.2,70.7 99.4,71 99.2,68.1 	"/>
	<path class="st12" d="M45,69.1c0,0-2.3,1.7-6.5,1.4c-1.8-0.1-3.1-0.5-4.1-0.8c-0.5-0.2-1,0.3-0.7,0.8c0.7,1.4,2.1,3.6,4.3,4.9
		c3.6,2.2,6.9,1.6,6.9,1.6s-2.5,2.2-7.2,2.6c-2.1,0.2-5.5-0.5-5.5-0.5s1.2,3.6,5.3,5.4c4.1,1.7,6,1.7,6,1.7S41.1,88,37.9,88
		c-2.6,0-4.9-0.7-4.9-0.7s3.1,7,9.9,6.8s7.9-1.8,7.9-1.8s-0.5,1.9-3.1,3.7c-2.5,1.8-2.5,1.8-2.5,1.8s9.8,3.8,15.1-2.9"/>
	<path class="st12" d="M96.1,59.9c0.2,1.1-0.6,12.1,5.7,20.9"/>
</g>
<g id="Layer_3">
</g>
<g id="Layer_2" class="st0">
	
		<image style="display:inline;overflow:visible;" width="1500" height="1101" xlink:href="stock-photo-tiger-sitting-and-staring-at-something-585842765.jpg"  transform="matrix(0.1197 0 0 0.1197 -40.0329 10.825)">
	</image>
</g>
<g id="Layer_4">
	<path class="st19" d="M58.7,132.9c0,0-14.8,7.7-24.6,6.4s-3.6-23.2-1.6-24.4c2.1-1.1-1.1-5.9-3-5.9c-1.8,0-6.6,9.6-7.1,18.9
		c-0.5,9.3,3.2,17.3,10,18.5c6.8,1.1,36.9-7.3,36.9-7.3L58.7,132.9z"/>
	<path class="st19" d="M48.4,53.4c-0.1-0.2,6.6-10,6.6-10s-1.5-4.4,1.7-8S69,29,72.3,28.8c2-0.1,3.9,1.9,3.9,1.9l8.2-4.1
		c0,0,4.1,4.6,2.6,7.4c-1.5,2.8-1.6,3-1.6,3s10.7,11.2,14.8,25.8c4.1,14.5,0.7,40.5,0.7,40.5s1.7-2.4,8.7-1.4c7,1,4.3,18.1,2.6,23.9
		c-1.7,5.8-7.5,14.7-7.5,14.7s3.2-1,5.3,1.4c2.1,2.4,1.2,5.1-3.2,6.3c-4.4,1.2-49.9,0.5-50.6-0.5c-0.7-1-1.4-6.2,1.2-7.7
		c2.6-1.5,5-1,5-1s-8.5-3.4-9.2-13.8c-0.7-10.4-2.4-22.9,2.7-24.3s7.7,3.2,7.7,3.2s-2.9-13.7-2.9-19.5c0-5.8,2.2-25,2.2-25
		s-3.8,2.4-7.2,1C52.1,59.4,49.7,57.8,48.4,53.4z"/>
</g>
<g id="Layer_5">
	<g>
		<g>
			<path class="st18" d="M81,35.6c0.1-0.2,0.1-0.3,0.2-0.5c0,0,0.1-0.2,0-0.1c0,0.1,0-0.1,0-0.1c0-0.1,0.1-0.2,0.1-0.3
				c0.2-0.3,0.4-0.7,0.6-1c0.1-0.1,0.2-0.3,0.3-0.4c0,0,0,0,0-0.1c0,0,0.1-0.1,0.1-0.1c0.1-0.1,0.1-0.1,0.2-0.2
				c0.3-0.3,0.5-0.5,0.8-0.8c0.2-0.2,0.2-0.7,0-0.9c-0.3-0.2-0.6-0.2-0.9,0c-1.3,1.1-2.2,2.5-2.7,4.1c-0.1,0.3,0.1,0.7,0.4,0.8
				C80.5,36.1,80.9,36,81,35.6L81,35.6z"/>
		</g>
	</g>
	<g>
		<g>
			<path class="st18" d="M70,59c0.2,1.4,0.5,2.8,0.7,4.1c0.1,0.5,0.7,0.6,1,0.3c1-1.1,1.6-2.5,1.9-4c0-0.2,0-0.6,0.2-0.7
				c0,0,0.1,0,0,0c0,0,0.1,0,0.1,0.1c0.3,0.3,0.5,0.7,0.8,1c0.4,0.4,0.9,0.6,1.4,0.4c0.6-0.2,1-0.8,1.1-1.3c0.2-0.7,0.3-1.6,0.4-2.4
				c0.1-0.9,0.2-1.7,0.3-2.6c0.1-0.8-1.2-0.8-1.2,0c-0.1,0.8-0.2,1.7-0.3,2.5c-0.1,0.7-0.2,1.5-0.4,2.2c-0.1,0.3-0.2,0.6-0.5,0.3
				c-0.3-0.3-0.5-0.7-0.8-1c-0.4-0.3-0.8-0.5-1.3-0.4c-0.6,0.2-0.9,0.7-1,1.3c-0.1,0.7-0.2,1.3-0.5,1.9c-0.3,0.7-0.7,1.3-1.1,1.8
				c0.3,0.1,0.7,0.2,1,0.3c-0.2-1.4-0.5-2.8-0.7-4.1C71.1,57.9,69.9,58.2,70,59L70,59z"/>
		</g>
	</g>
	<g>
		<g>
			<path class="st18" d="M73.6,95.3c0.2,5.2,3.6,9.2,6.9,13c0.5,0.6,1.4-0.3,0.9-0.9c-3-3.4-6.3-7.3-6.5-12.1
				C74.8,94.5,73.5,94.4,73.6,95.3L73.6,95.3z"/>
		</g>
	</g>
	<g>
		<g>
			<path class="st18" d="M78.3,107.1c-1.2,8.2-1,16.5,0.6,24.6c0.2,0.8,1.4,0.5,1.2-0.3c-1.5-7.9-1.7-16-0.6-23.9
				C79.6,106.6,78.4,106.3,78.3,107.1L78.3,107.1z"/>
		</g>
	</g>
	<g>
		<g>
			<path class="st18" d="M97.7,106.4c-0.8,10.4-2.8,20.6-5.9,30.6c-0.2,0.8,1,1.1,1.2,0.3c3.2-10,5.1-20.4,5.9-30.9
				C99,105.6,97.8,105.6,97.7,106.4L97.7,106.4z"/>
		</g>
	</g>
	<g>
		<g>
			<path class="st18" d="M89.9,140.2c1.1,0.4,1.8,1.5,2.2,2.6c0.5,1.4,0.4,3,0.4,4.5c0,0.8,1.2,0.8,1.2,0c0-1.7,0.1-3.5-0.6-5.1
				c-0.6-1.4-1.5-2.6-2.9-3.1c-0.3-0.1-0.7,0.1-0.8,0.4C89.4,139.8,89.6,140.1,89.9,140.2L89.9,140.2z"/>
		</g>
	</g>
	<g>
		<g>
			<path class="st18" d="M97.4,131.2c-1,3.1-1.6,6.2-2.1,9.4c0,0.3,0.3,0.6,0.6,0.6c0.4,0,0.6-0.3,0.6-0.6c0.4-3.1,1.1-6.1,2-9
				C98.9,130.7,97.7,130.4,97.4,131.2L97.4,131.2z"/>
		</g>
	</g>
	<g>
		<g>
			<path class="st18" d="M99.9,142.3c0.5-0.6,1.1-1.1,1.9-1.5c0.4-0.2,0.6-0.3,1-0.4c0.2-0.1,0.4-0.1,0.6-0.2c0.2,0,0.3-0.1,0.5-0.1
				c0.3,0,0.6-0.3,0.6-0.6c0-0.3-0.3-0.7-0.6-0.6c-1.9,0.2-3.7,1-4.9,2.5c-0.2,0.3-0.3,0.6,0,0.9C99.2,142.6,99.7,142.6,99.9,142.3
				L99.9,142.3z"/>
		</g>
	</g>
	<g>
		<g>
			<path class="st18" d="M60,139.7c1.2-0.6,2.8-0.6,4,0.1c0.7,0.4,1.3-0.7,0.6-1.1c-1.6-0.9-3.6-0.9-5.2-0.1
				c-0.3,0.1-0.4,0.6-0.2,0.9C59.3,139.8,59.7,139.9,60,139.7L60,139.7z"/>
		</g>
	</g>
	<g>
		<g>
			<path class="st18" d="M61.7,116.3c-0.8,4.3,0.1,8.8,2.6,12.5c0.4,0.7,1.5,0,1.1-0.6c-2.3-3.4-3.2-7.5-2.4-11.5
				C63,115.8,61.8,115.5,61.7,116.3L61.7,116.3z"/>
		</g>
	</g>
	<g>
		<g>
			<path class="st18" d="M66.5,107.9c-0.4,5.8-0.7,11.9,2.5,17.1c0.4,0.7,1.5,0.1,1.1-0.6c-3.1-4.9-2.7-10.9-2.3-16.4
				C67.8,107.1,66.6,107.1,66.5,107.9L66.5,107.9z"/>
		</g>
	</g>
	<g>
		<g>
			<path class="st18" d="M64.5,79c-0.7,4.6,0,9.3,2.1,13.5c0.4,0.7,1.4,0.1,1.1-0.6c-1.9-3.9-2.6-8.3-1.9-12.5
				C65.8,78.6,64.6,78.2,64.5,79L64.5,79z"/>
		</g>
	</g>
	<g>
		<g>
			<path class="st18" d="M98.5,65c-1,6.8-2.7,13.5-5,20c-0.3,0.8,0.9,1.1,1.2,0.3c2.3-6.5,3.9-13.2,5-20
				C99.8,64.6,98.6,64.2,98.5,65L98.5,65z"/>
		</g>
	</g>
	<g>
		<g>
			<path class="st18" d="M92.5,61.2c-0.6,4.4-1.7,8.8-3.3,13c-0.3,0.8,0.9,1.1,1.2,0.3c1.6-4.2,2.7-8.6,3.3-13
				C93.8,60.8,92.6,60.5,92.5,61.2L92.5,61.2z"/>
		</g>
	</g>
	<g>
		<g>
			<path class="st18" d="M83.6,39.7c0.1-0.7,0.3-1.3,0.5-2c0.2-0.6,0.4-1.2,0.8-1.8c0.2-0.3,0.1-0.7-0.2-0.9
				c-0.3-0.2-0.7-0.1-0.9,0.2c-0.7,1.3-1.1,2.6-1.4,4c-0.1,0.3,0.1,0.7,0.4,0.8C83.1,40.2,83.5,40.1,83.6,39.7L83.6,39.7z"/>
		</g>
	</g>
	<g>
		<g>
			<path class="st18" d="M61.8,43.1c1-1.5,2.3-2.9,3.7-3.9c0.3-0.2,0.6-0.4,0.9-0.4c0,0,0.1,0,0.1,0c0,0,0,0,0,0c0,0-0.1-0.1,0-0.1
				c-0.1-0.1,0.1-0.1,0,0c0,0-0.1,0.2-0.1,0.2c-0.1,0.1-0.1,0.2-0.2,0.3c-0.6,0.7-1.3,1.4-2.1,1.9c-0.9,0.7-1.8,1.4-2.7,2.1
				c0.3,0,0.5,0.1,0.8,0.1c-0.2-0.2,0-0.4,0.1-0.6c0.3-0.4,0.6-0.7,1-1c0.3-0.3,0.6-0.6,1-0.8c0.2-0.2,0.6-0.4,0.9-0.3
				c-0.2-0.2-0.3-0.4-0.5-0.6c0,0.5-0.5,0.9-0.9,1.3c-0.5,0.5-1.1,0.9-1.6,1.4c0.3,0.2,0.7,0.4,1,0.6c0.6-1.6,1.8-2.9,3.3-3.8
				c0.7-0.4,0.1-1.5-0.6-1.1c-1.7,1.1-3.2,2.6-3.8,4.5c-0.1,0.3,0.1,0.6,0.3,0.7c0.3,0.1,0.5,0.1,0.8-0.1c0.6-0.5,1.2-1,1.8-1.6
				c0.5-0.5,1-1.2,1-1.9c0-0.3-0.2-0.5-0.5-0.6c-0.6-0.2-1.2,0.1-1.7,0.4c-0.5,0.4-1.1,0.8-1.5,1.3c-0.8,0.8-2.1,2.2-1,3.2
				c0.2,0.2,0.5,0.3,0.8,0.1c1-0.8,2-1.5,3-2.3c0.9-0.7,1.8-1.5,2.4-2.4c0.3-0.5,0.5-1.2,0-1.6c-0.4-0.4-1-0.5-1.5-0.3
				c-0.5,0.1-1,0.5-1.4,0.8c-0.4,0.4-0.9,0.7-1.3,1.1c-0.9,0.9-1.7,1.9-2.5,2.9c-0.2,0.3-0.1,0.7,0.2,0.9
				C61.3,43.5,61.6,43.4,61.8,43.1L61.8,43.1z"/>
		</g>
	</g>
	<g>
		<g>
			<path d="M61.7,40.7c0.5,0.7,0.9,1.4,1.3,2.2c0.1,0.3,0.6,0.4,0.9,0.2c0.3-0.2,0.4-0.5,0.2-0.9c-0.4-0.7-0.8-1.5-1.3-2.2
				c-0.2-0.3-0.6-0.4-0.9-0.2C61.6,40,61.5,40.4,61.7,40.7L61.7,40.7z"/>
		</g>
	</g>
	<g>
		<g>
			<path d="M41,74.8c0.5-3.4,1-7,2.6-10.1c1.7-3.3,4.8-5.6,8.6-5.9c0.8-0.1,0.8-1.3,0-1.2c-4,0.3-7.4,2.6-9.4,6
				c-1.9,3.4-2.5,7.4-3,11.2C39.6,75.6,40.9,75.6,41,74.8L41,74.8z"/>
		</g>
	</g>
	<g>
		<g>
			<path d="M55.5,59.9c-0.6,8.9-2.1,17.7-4.3,26.3c-0.2,0.8,1,1.1,1.2,0.3c2.3-8.7,3.7-17.6,4.4-26.6C56.8,59.1,55.6,59.1,55.5,59.9
				L55.5,59.9z"/>
		</g>
	</g>
	<g>
		<g>
			<path d="M49,86.4c0.4-1.3,1.9-2,3.2-1.9c1.4,0.1,2.3,1.3,2.5,2.6c0.1,0.7-0.1,1.5-0.5,2.1c0.2-0.1,0.4-0.1,0.6-0.2
				c-2.3-0.8-4.5-1.7-6.7-2.7c0.1,0.3,0.1,0.6,0.2,0.9c0.7-1,2.1-1.4,3.3-1c0.3,0.1,0.5,0.2,0.7,0.4c0.1,0.1,0.2,0.2,0.3,0.3
				c0,0,0,0.1,0,0.1c0,0,0.1-0.1,0.1-0.1c0-0.1-0.4-0.1-0.5-0.1c-0.3-0.1-0.5-0.1-0.8-0.2c-0.5-0.1-1-0.3-1.5-0.4
				c-0.7-0.2-1.1,0.8-0.5,1.1c0.6,0.3,1.3,0.6,1.9,0.8c0.6,0.2,1.2,0.6,1.9,0.4c0.5-0.1,0.9-0.6,1-1.1c0.1-0.3,0-0.6,0-0.9
				c-0.1-0.3-0.2-0.6-0.1-0.9c-0.4,0-0.8,0-1.2,0c0.2,0.9,0.5,1.8,0.7,2.7c0.2,0.8,1.4,0.4,1.2-0.3c-0.2-0.9-0.5-1.8-0.7-2.7
				c-0.2-0.6-1.1-0.6-1.2,0c-0.1,0.6,0,1,0.1,1.6c0,0.1,0,0.3,0,0.4c0,0,0,0.1,0,0.1c0,0,0.1,0,0,0c-0.2,0-0.5-0.2-0.7-0.2
				c-0.2-0.1-0.5-0.2-0.7-0.3c-0.5-0.2-0.9-0.4-1.4-0.6c-0.2,0.4-0.3,0.8-0.5,1.1c0.7,0.2,1.4,0.4,2,0.6c0.6,0.2,1.3,0.5,1.9,0
				c1-0.9-0.1-2.1-1-2.6c-1.8-0.9-4.2-0.4-5.3,1.3c-0.2,0.3-0.1,0.7,0.2,0.9c2.3,1,4.6,2,7,2.8c0.2,0.1,0.5,0,0.6-0.2
				c1.2-1.5,1.2-3.7,0.1-5.3c-1.2-1.6-3.4-2-5.2-1.1c-1,0.5-1.7,1.3-2.1,2.4C47.5,86.8,48.7,87.2,49,86.4L49,86.4z"/>
		</g>
	</g>
	<g>
		<g>
			<path d="M48.6,91.1c0-0.1,0-0.3,0-0.4c0,0.1,0-0.1,0-0.1c0-0.1,0-0.1,0-0.2c0-0.3,0.1-0.5,0.2-0.8c0.1-0.3,0.1-0.5,0.2-0.8
				c0-0.1,0.1-0.3,0.1-0.4c0,0,0.1-0.2,0-0.1c0-0.1,0.1-0.1,0.1-0.2c0.1-0.3,0.1-0.7-0.2-0.9c-0.3-0.1-0.7-0.1-0.9,0.2
				c-0.5,1.1-0.8,2.3-0.9,3.5c0,0.3,0.3,0.6,0.6,0.6C48.3,91.7,48.6,91.4,48.6,91.1L48.6,91.1z"/>
		</g>
	</g>
	<g>
		<g>
			<path d="M52.5,92.5c0.2-1,0.4-2,0.6-3c0.1-0.3-0.1-0.7-0.4-0.8c-0.3-0.1-0.7,0.1-0.8,0.4c-0.2,1-0.4,2-0.6,3
				c-0.1,0.3,0.1,0.7,0.4,0.8C52,93,52.4,92.9,52.5,92.5L52.5,92.5z"/>
		</g>
	</g>
	<g>
		<g>
			<path d="M54.3,87.4c0,0.6-0.1,1.2-0.1,1.8c0,0.3,0.3,0.6,0.6,0.6c0.4,0,0.6-0.3,0.6-0.6c0-0.6,0.1-1.2,0.1-1.8
				c0-0.3-0.3-0.6-0.6-0.6C54.6,86.8,54.3,87.1,54.3,87.4L54.3,87.4z"/>
		</g>
	</g>
	<g>
		<g>
			<path class="st18" d="M52.9,52.2c1.1-3.6,3.1-6.8,5.7-9.5c0.6-0.6-0.3-1.5-0.9-0.9c-2.8,2.9-4.8,6.3-6,10.1
				C51.5,52.6,52.7,52.9,52.9,52.2L52.9,52.2z"/>
		</g>
	</g>
	<g>
		<g>
			<path class="st18" d="M84.5,43c0.7-0.1,1.4-0.3,2.1-0.4c0.3-0.1,0.8,0,1.1-0.2c0.2,0,0.1-0.1-0.2-0.1c0,0.1,0.1,0.2,0.1,0.3
				c0,0.1,0,0.3,0,0.4c-0.1,1.3-1.2,2.1-2.1,2.9c-0.4,0.3-0.1,0.9,0.3,1c0.3,0.1,0.6,0.1,0.9,0c0.1-0.1,0.3-0.1,0.4-0.2
				c0.1,0,0-0.1,0,0c0.1,0.5,0.1,1.1,0,1.6c-0.2,0.6-0.8,0.9-1.4,1.2c-0.3,0.2-0.7,0.3-1.1,0.4c-0.1,0-0.2,0-0.3,0.1
				c0,0-0.1,0-0.1,0c0,0,0,0,0,0c-0.3-0.7-1.4-0.1-1.1,0.6c0.5,1,1.7,0.6,2.5,0.3c0.9-0.4,2-0.8,2.5-1.8c0.3-0.8,0.4-1.9,0.2-2.7
				c-0.2-0.5-0.5-0.8-1-0.9c-0.2,0-0.4,0-0.6,0.1c-0.1,0-0.4,0.2-0.5,0.2c0.1,0.3,0.2,0.7,0.3,1c1.3-1.1,2.7-2.4,2.4-4.3
				c0-0.4-0.1-0.8-0.4-1.1c-0.4-0.3-0.8-0.2-1.3-0.1c-1,0.2-2,0.4-3,0.5C83.4,42,83.7,43.2,84.5,43L84.5,43z"/>
		</g>
	</g>
	<g>
		<g>
			<path class="st18" d="M73.3,140.4c-1.1-0.1-2.2-0.1-3.3,0.4c-0.8,0.4-1.5,1.2-1.9,2c-0.7,1.5-1,4.2,0.8,5.1
				c0.7,0.4,1.3-0.7,0.6-1.1c-0.6-0.3-0.7-0.9-0.7-1.5c0-0.7,0.1-1.4,0.4-2c0.3-0.6,0.8-1.1,1.4-1.4c0.8-0.3,1.7-0.2,2.6-0.2
				c0.3,0,0.6-0.3,0.6-0.6C73.9,140.7,73.6,140.5,73.3,140.4L73.3,140.4z"/>
		</g>
	</g>
	<g>
		<g>
			<path class="st18" d="M78.8,147.9c1.1-0.7,1.4-2,1.4-3.2c0-1.3-0.1-2.7-0.3-4c-0.1-0.3-0.5-0.5-0.8-0.4c-0.4,0.1-0.5,0.4-0.4,0.8
				c0.2,1.1,0.3,2.2,0.3,3.3c0,0.8,0,2-0.8,2.5c-0.3,0.2-0.4,0.5-0.2,0.9C78.1,147.9,78.5,148.1,78.8,147.9L78.8,147.9z"/>
		</g>
	</g>
	<g>
		<g>
			<path class="st18" d="M104.6,110.1c-1.1,4.5-1.7,9-1.8,13.6c0,0.8,1.2,0.8,1.2,0c0.1-4.5,0.6-8.9,1.7-13.3
				C106,109.7,104.8,109.4,104.6,110.1L104.6,110.1z"/>
		</g>
	</g>
	<g>
		<g>
			<path class="st18" d="M72.2,74.3c1.2-2.2,2.1-4.4,2.9-6.8c0.2-0.8-1-1.1-1.2-0.3c-0.7,2.2-1.7,4.4-2.8,6.5
				C70.8,74.3,71.8,75,72.2,74.3L72.2,74.3z"/>
		</g>
	</g>
	<g>
		<g>
			<path class="st18" d="M69.6,69.1c0,4,1.1,8,3.3,11.3c0.4,0.7,1.5,0,1.1-0.6c-2.1-3.2-3.2-6.9-3.2-10.7
				C70.9,68.3,69.6,68.3,69.6,69.1L69.6,69.1z"/>
		</g>
	</g>
	<g>
		<g>
			<path class="st18" d="M54.6,57.8c0,0.8,0,1.7-0.1,2.5c0,0.6,0.7,0.8,1.1,0.4c2.3-1.9,4.5-4,6.4-6.3c-0.3,0-0.7-0.1-1-0.1
				c0.6,1.4,1.3,2.8,1.9,4.2c0.2,0.4,0.7,0.4,1,0.1c1.9-2.2,3.2-4.8,3.8-7.6c0.2-0.8-1-1.1-1.2-0.3c-0.6,2.6-1.8,5-3.5,7
				c0.3,0,0.7,0.1,1,0.1c-0.6-1.4-1.3-2.8-1.9-4.2c-0.2-0.4-0.7-0.4-1-0.1c-2,2.2-4.1,4.3-6.4,6.3c0.4,0.1,0.7,0.3,1.1,0.4
				c0-0.8,0-1.7,0.1-2.5C55.9,57,54.7,57,54.6,57.8L54.6,57.8z"/>
		</g>
	</g>
	<g>
		<g>
			<path d="M36.1,92.5c-4.1-1.3-8.8-0.7-12.4,1.7c-3.1,2-6.8,6.7-3.7,10.3c1.3,1.5,3.4,2.2,5.1,1.1c0.7-0.4,0.1-1.5-0.6-1.1
				c-1.6,1-3.7-0.4-4.2-2.1c-0.7-2.4,1.1-4.8,2.8-6.3c3.5-3,8.4-3.9,12.7-2.5C36.6,93.9,36.9,92.7,36.1,92.5L36.1,92.5z"/>
		</g>
	</g>
	<g>
		<g>
			<path d="M25.2,88.3c-0.7,3.4,0,7.1,2.1,10c0.5,0.7,1.5,0,1.1-0.6c-1.8-2.6-2.5-5.9-1.9-9C26.6,87.9,25.4,87.6,25.2,88.3
				L25.2,88.3z"/>
		</g>
	</g>
	<g>
		<g>
			<path d="M117.7,87.1c0,2.4,0,4.7,0,7.1c0,0.3,0.3,0.7,0.6,0.6c2.2-0.2,4.1-1.8,4.4-4c0.3-2.2-1.1-4.3-3.1-5.1
				c-0.7-0.3-1.1,0.9-0.5,1.1c2.1,0.9,4.2,2.1,6,3.6c1.7,1.3,3.3,2.9,4.2,4.9c0.8,1.9,0.7,4.1-1.2,5.3c-1.6,1-3.7,1.1-5.5,1.1
				c-0.8,0-0.8,1.3,0,1.2c2.1,0,4.5-0.1,6.3-1.4c1.9-1.3,2.5-3.5,1.9-5.6c-0.6-2.4-2.4-4.3-4.2-5.9c-2.1-1.8-4.4-3.2-6.9-4.3
				c-0.2,0.4-0.3,0.8-0.5,1.1c1.4,0.6,2.4,2.2,2.2,3.7c-0.2,1.6-1.6,2.8-3.1,3c0.2,0.2,0.4,0.4,0.6,0.6c0-2.4,0-4.7,0-7.1
				C119,86.3,117.7,86.3,117.7,87.1L117.7,87.1z"/>
		</g>
	</g>
	<g>
		<g>
			<path d="M122.6,81.2c2.1,0.1,4,1.1,5.3,2.8c0.3-0.3,0.5-0.7,0.8-1c-3.2-2.1-4-6.8-2-10c0.4-0.7-0.6-1.3-1.1-0.6
				c-2.5,3.7-1.3,9.2,2.4,11.7c0.6,0.4,1.2-0.5,0.8-1c-1.5-1.9-3.8-3-6.2-3.1C121.8,79.9,121.8,81.2,122.6,81.2L122.6,81.2z"/>
		</g>
	</g>
	<g>
		<g>
			<path class="st18" d="M61.4,32.8c-0.3,0.3-0.4,0.8,0,1.1c0.2,0.2,0.6,0.3,0.9,0.4c0.7,0.1,1.4-0.5,2-1c1.2-0.9,2.2-2.1,2.9-3.5
				c0.1-0.3,0.1-0.6-0.2-0.8c-0.2-0.2-0.6-0.2-0.8,0c-1.4,1.7-3.2,3.1-5.2,4.1c0.3,0.2,0.6,0.4,0.9,0.5c0.1-1,1.2-1.8,2.2-1.8
				c0.8,0,0.8-1.2,0-1.2c-1.8-0.1-3.2,1.3-3.5,3c-0.1,0.5,0.6,0.7,0.9,0.5c2.1-1,3.9-2.5,5.4-4.3c-0.3-0.3-0.7-0.5-1-0.8
				c-0.5,1-1.2,1.8-2,2.6c-0.4,0.4-0.8,0.7-1.2,1c-0.1,0.1-0.2,0.2-0.4,0.2c0.1,0,0,0,0,0c-0.1,0-0.1,0,0,0c0,0,0,0,0,0
				c0,0-0.1,0-0.1,0c0.1,0,0,0,0,0c-0.1,0,0.1,0.1,0,0c0.2,0.2,0.2,0.5,0.1,0.7c0.2-0.3,0.3-0.6,0-0.9
				C62.1,32.6,61.6,32.6,61.4,32.8L61.4,32.8z"/>
		</g>
	</g>
	<g>
		<g>
			<path class="st18" d="M79.2,37.7c-1.2-0.3-2.3-0.3-3.5-0.1c-1.1,0.2-2.4,0.6-3.2,1.4c-0.8,0.7-1.1,2-0.1,2.7
				c0.7,0.5,1.8,0.4,2.6,0.1c1.4-0.5,2.8-1.1,4.1-1.7c0.4-0.2,0.4-0.7,0.1-1c-1-1.3-3.1-1.6-4.4-0.6c-0.3,0.2-0.4,0.5-0.2,0.9
				c0.2,0.3,0.6,0.4,0.9,0.2c1.4-0.9,3-1.4,4.7-1.6c-0.1-0.4-0.3-0.7-0.4-1.1c-1.4,1.2-3.2,2-5,2.3c-0.3,0.1-0.5,0.5-0.4,0.8
				c0.1,0.4,0.4,0.5,0.8,0.4c2.1-0.3,4-1.2,5.6-2.6c0.4-0.3,0.1-1.1-0.4-1.1c-1.9,0.1-3.7,0.7-5.4,1.7c0.2,0.4,0.4,0.7,0.6,1.1
				c0.9-0.7,2.2-0.5,2.9,0.4c0-0.3,0.1-0.7,0.1-1c-0.5,0.3-5.3,2.7-5.5,1.5c-0.1-0.4,0.6-0.8,0.9-1c0.5-0.3,1-0.5,1.6-0.6
				c1.1-0.3,2.3-0.3,3.4,0C79.6,39.1,80,37.9,79.2,37.7L79.2,37.7z"/>
		</g>
	</g>
	<g>
		<g>
			<path class="st18" d="M101.3,85.5c-4.6,0.1-9.2,0.1-13.8,0.2c-0.7,0-0.9,1.1-0.2,1.2c4.7,0.7,9.5,1,14.3,1
				c-0.1-0.4-0.2-0.8-0.3-1.2c-2,1-4.1,1.7-6.3,2.1c-1.5,0.3-4.9,0.8-5.1-1.6c-0.1,0.2-0.2,0.4-0.3,0.5c2.6-1.7,5.8-2.2,8.7-1.3
				c-0.1-0.3-0.2-0.7-0.3-1c-3.2,2.5-7.5,3.5-11.5,2.7c0,0.4,0,0.8,0,1.2c2.5-0.4,5-0.8,7.5-1.2c0.6-0.1,0.6-1.1,0-1.2
				c-1.8-0.3-3.7-0.7-5.5-1c0,0.4,0,0.8,0,1.2c1.6-0.6,3.3-0.9,5-0.7c0.8,0.1,0.8-1.2,0-1.2c-1.8-0.1-3.7,0.1-5.4,0.8
				c-0.5,0.2-0.7,1.1,0,1.2c1.8,0.3,3.7,0.7,5.5,1c0-0.4,0-0.8,0-1.2c-2.5,0.4-5,0.8-7.5,1.2c-0.6,0.1-0.6,1.1,0,1.2
				c4.5,0.9,9.1-0.2,12.7-3c0.4-0.3,0.1-0.9-0.3-1c-3.3-1-6.9-0.5-9.7,1.4c-0.2,0.1-0.3,0.3-0.3,0.5c0.3,2.6,3,3.3,5.2,3
				c2.8-0.3,5.6-1.2,8.1-2.5c0.6-0.3,0.3-1.2-0.3-1.2c-4.7,0-9.3-0.3-14-1c-0.1,0.4-0.1,0.8-0.2,1.2c4.6-0.1,9.2-0.1,13.8-0.2
				C102.1,86.8,102.1,85.5,101.3,85.5L101.3,85.5z"/>
		</g>
	</g>
	<g>
		<g>
			<path class="st18" d="M99.4,98.3c-1.9,0-3.9-0.1-5.8-0.1c0.1,0.4,0.2,0.8,0.3,1.2c2-1.3,4.4-2,6.8-2.1c-0.1-0.4-0.3-0.7-0.4-1.1
				c-1,1-2.3,1.7-3.7,2c-0.7,0.1-0.5,1.2,0.2,1.2c1.7,0,3.3,0,5,0.1c0-0.4,0-0.8,0-1.2c-1.3,0.1-2.5,0-3.8-0.2
				c0.1,0.3,0.3,0.5,0.4,0.8c0.1-0.4,0.4-0.7,0.8-0.8c0.4-0.2,1,0,1.3-0.3c0.3-0.3,0.3-1,0-1.3c-0.5-0.4-1.2-0.2-1.5,0.3
				c-0.5,0.7,0.6,1.3,1.1,0.6c-0.1,0-0.1,0.1-0.2,0.1c-0.1-0.1-0.2-0.1-0.3-0.2c0-0.2,0.1-0.4,0.1-0.6c0.1,0,0.2-0.1,0.3-0.1
				c-0.6,0.1-1.1,0.1-1.7,0.4c-0.5,0.4-0.9,0.8-1.1,1.4c-0.1,0.3,0.1,0.7,0.4,0.8c1.3,0.3,2.7,0.4,4.1,0.3c0.8-0.1,0.8-1.2,0-1.2
				c-1.7,0-3.3,0-5-0.1c0.1,0.4,0.1,0.8,0.2,1.2c1.6-0.3,3.1-1.2,4.3-2.3c0.4-0.4,0.1-1.1-0.4-1.1c-2.6,0-5.2,0.8-7.4,2.2
				c-0.5,0.3-0.3,1.1,0.3,1.2c1.9,0,3.9,0.1,5.8,0.1C100.2,99.6,100.2,98.3,99.4,98.3L99.4,98.3z"/>
		</g>
	</g>
	<g>
		<g>
			<path class="st18" d="M53.1,103.9c0,1.2,0,2.5,0,3.7c0,0.3,0,0.7,0,1c0,0.3,0,0.4-0.2,0.5c-0.4,0.1-1-0.1-1.4-0.2
				c-1.9-0.5-3.6-1.7-4.6-3.4c-0.2,0.3-0.4,0.6-0.5,0.9c3.3,0.3,6.5,1.5,9.1,3.6c0.6,0.5,1.5-0.3,0.9-0.9c-1.4-1.4-2.8-2.8-4.2-4.3
				c0,0.3,0,0.6,0,0.9c0.9-1.1,2.6-0.4,3.5,0.5c1.1,1.2,1.8,2.7,3,3.7c0.1-0.4,0.3-0.7,0.4-1.1c-2.1-0.2-4.1-0.7-5.9-1.5
				c-0.1,0.4-0.2,0.8-0.3,1.2c1.5-0.2,3,0.2,4.3,1c0.6,0.4,1.2-0.5,0.8-1c-1.6-1.7-3.4-3.4-5.2-4.9c-0.6-0.5-1.5,0.4-0.9,0.9
				c1.9,1.5,3.6,3.1,5.2,4.9c0.3-0.3,0.5-0.7,0.8-1c-1.5-0.9-3.2-1.3-5-1.2c-0.5,0.1-0.9,0.9-0.3,1.2c2.1,0.9,4.3,1.5,6.6,1.7
				c0.5,0,0.8-0.7,0.4-1.1c-1.5-1.3-2.1-3.3-3.8-4.4c-1.3-0.9-3.4-1.2-4.5,0.2c-0.2,0.3-0.3,0.6,0,0.9c1.4,1.4,2.8,2.8,4.2,4.3
				c0.3-0.3,0.6-0.6,0.9-0.9c-2.9-2.3-6.3-3.7-10-4c-0.5,0-0.8,0.6-0.5,0.9c1.3,2.2,3.6,3.7,6.1,4.1c1.2,0.2,2.4,0,2.5-1.4
				c0.1-1.6,0-3.3,0-5C54.3,103.1,53.1,103.1,53.1,103.9L53.1,103.9z"/>
		</g>
	</g>
	<g>
		<g>
			<path class="st18" d="M96.2,117.5c-0.6,0.1-1.2-0.1-1.8-0.1c-0.5,0-1.1,0.2-1.5,0.5c-0.8,0.6-0.9,1.9,0.1,2.4
				c0.9,0.4,1.9-0.1,2.7-0.6c1.2-0.7,2.3-1.5,3.5-2.2c0.6-0.4,0.2-1.3-0.5-1.1c-1.5,0.4-3.1,0.8-4.6,1.3c-0.7,0.2-1.5,0.5-2.3,0.6
				c-0.3,0.1-0.7,0.1-1,0c-0.1-0.1-0.3-0.3-0.2-0.4c-0.1,0.1-0.2,0.2-0.4,0.3c2.6-0.8,5.3-1.3,8-1.2c-0.2-0.3-0.4-0.6-0.5-0.9
				c-1.2,2-3.7,2.9-5.8,2.2c-0.8-0.2-1.1,1-0.3,1.2c2.7,0.8,5.8-0.4,7.2-2.8c0.2-0.4-0.1-0.9-0.5-0.9c-2.7,0-5.5,0.4-8.1,1.2
				c-0.3,0.1-0.6,0.2-0.7,0.5c-0.1,0.3-0.2,0.5-0.1,0.8c0.1,0.6,0.5,1,1,1.3c0.6,0.3,1.3,0.2,1.9,0c0.7-0.2,1.3-0.4,2-0.6
				c1.6-0.4,3.1-0.9,4.7-1.3c-0.2-0.4-0.3-0.8-0.5-1.1c-0.8,0.5-1.7,1.1-2.5,1.6c-0.6,0.4-1.3,1-2.1,1.1c-0.1,0-0.3,0.1-0.4,0
				c-0.1-0.1,0.3-0.3,0.4-0.4c0.4-0.2,0.8,0,1.2,0c0.5,0.1,0.9,0.1,1.4,0C97.3,118.5,96.9,117.3,96.2,117.5L96.2,117.5z"/>
		</g>
	</g>
	<g>
		<g>
			<path class="st18" d="M107.7,114.6c1.9-0.7,4.2-0.1,5.4,1.5c0.1-0.3,0.1-0.6,0.2-0.9c-2.4,1.8-5.5,2.6-8.5,2
				c0,0.4,0.1,0.8,0.1,1.1c2.8-1.3,5.9-1.7,9-1.3c0-0.4,0-0.8,0-1.2c-3,0.2-6.1-0.1-9-0.9c0,0.4,0,0.8,0,1.2c2.5-0.7,5.2-1,7.8-0.9
				c-0.1-0.4-0.3-0.7-0.4-1.1c-0.9,0.8-2.2,1.3-3.5,1.1c0.1,0.3,0.2,0.6,0.4,0.9c1.6-2.1,4.1-3.4,6.7-3.4c0.8,0,0.8-1.3,0-1.2
				c-3.1,0.1-5.9,1.6-7.8,4.1c-0.2,0.3,0,0.9,0.4,0.9c1.7,0.2,3.4-0.2,4.7-1.4c0.4-0.4,0.1-1-0.4-1.1c-2.7-0.1-5.5,0.2-8.1,0.9
				c-0.6,0.2-0.6,1,0,1.2c3,0.8,6.2,1.1,9.3,0.9c0.8-0.1,0.8-1.1,0-1.2c-3.3-0.4-6.6,0.1-9.6,1.4c-0.5,0.2-0.4,1,0.1,1.1
				c3.3,0.6,6.8-0.1,9.4-2.2c0.2-0.2,0.4-0.6,0.2-0.9c-1.6-2.1-4.4-3-6.8-2.1C106.6,113.7,106.9,114.9,107.7,114.6L107.7,114.6z"/>
		</g>
	</g>
	<g>
		<g>
			<path class="st18" d="M55.7,134.6c1.2-0.5,2.5-0.4,3.7,0c0.6,0.3,1.1,0.6,1.5,1.1c0.5,0.5,1,1,1.7,1.3c0-0.4,0-0.8,0-1.2
				c-2.3,0.5-4.7-0.1-6.6-1.4c0,0.4,0,0.7,0,1.1c1.2-0.6,2.7-0.8,4.1-0.6c0.3,0,0.7-0.1,0.8-0.4c0.1-0.3-0.1-0.7-0.4-0.8
				c-1.7-0.3-3.4,0-5,0.7c-0.5,0.2-0.3,0.8,0,1.1c2.2,1.6,4.9,2.1,7.5,1.6c0.3-0.1,0.5-0.3,0.5-0.6c0-0.3-0.2-0.5-0.5-0.6
				c-0.6-0.3-1.1-0.9-1.6-1.3c-0.6-0.5-1.2-0.9-2-1.1c-1.4-0.5-3-0.4-4.3,0.2c-0.3,0.1-0.4,0.6-0.2,0.9
				C55,134.7,55.3,134.7,55.7,134.6L55.7,134.6z"/>
		</g>
	</g>
	<g>
		<g>
			<path class="st18" d="M47.7,138.4c-1.5-0.4-2.8-1.6-3.4-3.1c-0.3-0.8-1.4-0.5-1.2,0.3c0.5,2.5,1.8,4.8,3.6,6.6c0.5,0.5,1,1,1.7,1
				c0.7-0.1,1.1-0.7,1.2-1.3c0.3-1.2,0.1-2.6-0.8-3.5c-1-0.9-2.5-1.1-3.6-0.2c-0.2,0.2-0.2,0.5-0.1,0.8c0.3,0.6,0.7,1.2,1,1.7
				c0.4,0.7,1.5,0.1,1.1-0.6c-0.3-0.6-0.7-1.2-1-1.7c0,0.3-0.1,0.5-0.1,0.8c0.5-0.4,1.3-0.2,1.8,0.2c0.6,0.6,0.7,1.5,0.5,2.3
				c0,0.1-0.1,0.4-0.2,0.4c0.1,0,0,0,0,0c-0.1,0-0.2-0.1-0.3-0.2c-0.4-0.3-0.7-0.7-1-1.1c-0.6-0.7-1.1-1.5-1.6-2.3c-0.5-1-0.8-2-1-3
				c-0.4,0.1-0.8,0.2-1.2,0.3c0.7,1.9,2.3,3.4,4.2,4C48.1,139.9,48.5,138.6,47.7,138.4L47.7,138.4z"/>
		</g>
	</g>
	<g>
		<g>
			<path class="st18" d="M27.1,145.8c1.5,0.3,2.9,0.5,4.4,0.8c0.4,0.1,0.9-0.3,0.8-0.8c-0.5-1.4-1-2.7-1.4-4.1
				c-0.2,0.3-0.4,0.5-0.6,0.8c2,0,3.4,2.3,2.7,4.1c0.3-0.1,0.6-0.2,0.9-0.4c-0.8-0.5-1.4-1.3-1.7-2.3c-0.3-0.8-1.5-0.4-1.2,0.3
				c0.4,1.2,1.2,2.3,2.3,3c0.4,0.2,0.8,0,0.9-0.4c1-2.6-1.2-5.7-3.9-5.7c-0.4,0-0.7,0.4-0.6,0.8c0.5,1.4,1,2.7,1.4,4.1
				c0.3-0.3,0.5-0.5,0.8-0.8c-1.5-0.3-2.9-0.5-4.4-0.8c-0.3-0.1-0.7,0.1-0.8,0.4C26.6,145.3,26.7,145.7,27.1,145.8L27.1,145.8z"/>
		</g>
	</g>
	<g>
		<g>
			<path class="st18" d="M22.4,124.9c1.2,0.6,2.8,0.3,3.7-0.8c0.5-0.5,0.7-1.2,0.7-1.9c-0.1-0.8-0.4-1.5-0.9-2
				c-0.6-0.6-1.4-1-2.2-0.9c-0.8,0-0.8,1.2,0,1.2c0.1,0,0.1,0,0.2,0c-0.1,0,0.1,0,0.1,0c0.1,0,0.3,0.1,0.4,0.1
				c0.2,0.1,0.4,0.1,0.6,0.3c0.4,0.2,0.7,0.6,1,1c0-0.3,0.1-0.5,0.1-0.8c-0.6,0.5-1.4,0.7-2.2,0.5c-0.7-0.2-1.1,0.8-0.5,1.1
				c0.7,0.5,1.6,0.8,2.4,1c0-0.4-0.1-0.8-0.1-1.1c-0.4,0.2-0.9,0.3-1.3,0.2c-0.3-0.1-0.7,0.1-0.8,0.4c-0.1,0.3,0.1,0.7,0.4,0.8
				c0.8,0.1,1.5,0,2.3-0.3c0.5-0.2,0.4-1-0.1-1.1c-0.8-0.2-1.5-0.5-2.1-0.9c-0.2,0.4-0.3,0.8-0.5,1.1c1.2,0.3,2.5,0,3.4-0.8
				c0.2-0.2,0.2-0.5,0.1-0.8c-0.7-1.2-2-1.9-3.4-2c0,0.4,0,0.8,0,1.2c0.1,0,0.1,0,0.2,0c0,0,0.1,0,0.1,0c0,0,0.1,0,0,0
				c0,0,0.1,0,0.1,0c0.1,0,0.1,0,0.2,0.1c0,0,0.1,0,0.1,0c0.1,0-0.1,0,0,0c0.1,0,0.1,0.1,0.2,0.1c0.1,0,0.1,0.1,0.2,0.1
				c0,0,0,0,0.1,0.1c-0.1,0,0,0,0,0c0.1,0.1,0.2,0.2,0.3,0.3c0,0,0,0,0.1,0.1c0,0-0.1-0.1,0,0c0,0.1,0.1,0.1,0.1,0.2
				c0,0.1,0.1,0.1,0.1,0.2c0,0,0.1,0.2,0.1,0.1c0,0,0.1,0.2,0.1,0.4c0,0,0,0.1,0,0.1c0,0,0-0.1,0,0c0,0.1,0,0.1,0,0.2
				c0,0.1,0,0.1,0,0.2c0-0.1,0,0.1,0,0.1c0,0.1,0,0.1-0.1,0.2c0,0.1,0,0,0,0.1c-0.1,0.1-0.1,0.2-0.2,0.3c-0.1,0.1,0,0,0,0
				c0,0-0.1,0.1-0.1,0.1c0,0-0.1,0.1-0.1,0.1c0,0,0,0-0.1,0.1c0,0,0,0,0,0c-0.1,0.1-0.2,0.1-0.3,0.2c-0.1,0-0.1,0.1-0.2,0.1
				c-0.1,0,0,0,0,0c0,0-0.1,0-0.1,0c-0.1,0-0.3,0.1-0.4,0.1c-0.1,0,0,0,0,0c0,0-0.1,0-0.1,0c-0.1,0-0.1,0-0.2,0c0,0-0.2,0-0.1,0
				c0.1,0-0.1,0-0.1,0c-0.1,0-0.1,0-0.2-0.1c0,0-0.1,0,0,0c0.1,0-0.1,0-0.1,0c-0.3-0.1-0.7-0.1-0.9,0.2
				C22,124.4,22.1,124.8,22.4,124.9L22.4,124.9z"/>
		</g>
	</g>
	<g>
		<g>
			<path class="st18" d="M27.5,134.8c2.6-0.9,4.9-2.6,6.5-4.9c0.4-0.6-0.5-1.3-1-0.8c-2.1,2.4-4.7,4.3-7.6,5.7
				c0.3,0,0.5,0.1,0.8,0.1c-0.9-1-0.4-2.5,0.5-3.3c1.2-1.1,3.2-1.1,4.7-0.9c0-0.4-0.1-0.8-0.1-1.1c-1.3,0.9-2.7,1.8-4,2.7
				c0.3,0.3,0.6,0.6,0.9,0.9c0.4-0.8,0.9-1.6,1.3-2.4c0.2-0.4-0.1-0.9-0.5-0.9c-0.8,0-1.6,0-2.4,0c-0.8,0-0.8,1.2,0,1.2
				c0.8,0,1.6,0,2.4,0c-0.2-0.3-0.4-0.6-0.5-0.9c-0.4,0.8-0.9,1.6-1.3,2.4c-0.3,0.5,0.3,1.2,0.9,0.9c1.3-0.9,2.7-1.8,4-2.7
				c0.4-0.3,0.4-1.1-0.1-1.1c-2-0.3-4.5-0.3-6.1,1.3c-1.3,1.3-1.7,3.6-0.3,5c0.2,0.2,0.5,0.2,0.8,0.1c3-1.4,5.7-3.5,7.9-5.9
				c-0.3-0.3-0.7-0.5-1-0.8c-1.4,2-3.5,3.5-5.8,4.4C26.4,133.9,26.7,135.1,27.5,134.8L27.5,134.8z"/>
		</g>
	</g>
	<g>
		<g>
			<path class="st18" d="M94.5,49.4c-0.9,1.2-1.8,2.3-2.7,3.6c-0.4,0.6-0.8,1.3-1.2,1.9c-0.4,0.6-0.9,1.3-0.9,2
				c-0.1,1.3,1.3,1.6,2.4,1.3c1.2-0.4,2.1-1.5,3-2.4c1.2-1.2,2.3-2.5,3.3-3.8c0.4-0.6-0.5-1.3-1-0.8c-2.2,2.2-4.5,4.3-6.9,6.2
				c0.3,0.3,0.7,0.5,1,0.8c1.2-2.1,2.3-4.3,3.5-6.4c-0.4-0.2-0.7-0.4-1.1-0.6c-0.7,1.3-1.3,2.7-2,4c-0.4,0.7,0.7,1.4,1.1,0.6
				c0.7-1.3,1.3-2.7,2-4c0.4-0.7-0.7-1.3-1.1-0.6c-1.2,2.1-2.3,4.3-3.5,6.4c-0.4,0.7,0.4,1.2,1,0.8c2.4-1.9,4.7-4,6.9-6.2
				c-0.3-0.3-0.7-0.5-1-0.8c-0.7,1-1.5,1.9-2.4,2.8c-0.8,0.9-1.7,1.8-2.6,2.5c-0.3,0.2-0.6,0.4-1,0.4c-0.3,0-0.4,0.1-0.3-0.2
				c0.1-0.3,0.2-0.5,0.4-0.8c0.2-0.3,0.3-0.5,0.5-0.8c0.3-0.5,0.7-1.1,1-1.6c0.8-1.2,1.6-2.3,2.5-3.4c0.2-0.3,0.3-0.6,0-0.9
				C95.1,49.2,94.7,49.1,94.5,49.4L94.5,49.4z"/>
		</g>
	</g>
	<g>
		<g>
			<path class="st18" d="M63.1,71.8c1.6,0.6,3.1,1.2,4.7,1.9c0.3,0.1,0.7-0.1,0.8-0.4c0.5-1.7-1.4-2.9-2.6-3.7
				c-1.5-1.1-3.1-2.2-4.6-3.3c-0.6-0.4-1.3,0.5-0.8,1c2.3,1.9,4.7,3.8,7,5.8c0.2-0.3,0.4-0.7,0.6-1c-2.4-0.7-4.6-2-6.5-3.7
				c-0.2,0.3-0.4,0.7-0.6,1c1.9,0.3,3.7,1.1,5.2,2.2c0.3-0.3,0.5-0.7,0.8-1c-1.9-1.1-3.7-2.5-5.3-4c-0.6-0.6-1.5,0.3-0.9,0.9
				c1.7,1.6,3.6,3,5.6,4.2c0.6,0.3,1.3-0.5,0.8-1c-1.7-1.3-3.6-2.2-5.7-2.6c-0.6-0.1-1.1,0.6-0.6,1c2,1.9,4.4,3.2,7,4
				c0.6,0.2,1.1-0.6,0.6-1c-2.3-1.9-4.7-3.8-7-5.8c-0.3,0.3-0.5,0.7-0.8,1c1.4,1,2.7,1.9,4.1,2.9c0.6,0.4,1.2,0.8,1.8,1.3
				c0.4,0.3,0.9,0.8,0.7,1.4c0.3-0.1,0.5-0.3,0.8-0.4c-1.6-0.6-3.1-1.2-4.7-1.9c-0.3-0.1-0.7,0.1-0.8,0.4
				C62.6,71.4,62.8,71.7,63.1,71.8L63.1,71.8z"/>
		</g>
	</g>
	<g>
		<g>
			<path class="st18" d="M79.1,90.8c0.1,2.3,0.2,4.6,0.3,6.8c0,0.7,1,0.8,1.2,0.2c1.9-5,2.6-10.4,2-15.7c-0.1-0.8-1.2-0.8-1.2,0
				c-0.3,4.1-1,8.2-1.9,12.2c0.4,0.1,0.8,0.1,1.2,0.2c0.2-4.4,0.3-8.9,0.5-13.3c0-0.8-1.2-0.8-1.2,0c-0.4,3.9-0.8,7.9-1.2,11.8
				c0.4,0,0.8,0,1.2,0c0-4.1,0.6-8.1,1.8-12c0.2-0.8-1-1.1-1.2-0.3c-1.2,4-1.8,8.2-1.9,12.3c0,0.8,1.2,0.8,1.2,0
				c0.4-3.9,0.8-7.9,1.2-11.8c-0.4,0-0.8,0-1.2,0c-0.2,4.4-0.3,8.9-0.5,13.3c0,0.7,1.1,0.9,1.2,0.2c0.9-4.1,1.6-8.3,1.9-12.6
				c-0.4,0-0.8,0-1.2,0c0.6,5.2-0.1,10.4-2,15.3c0.4,0.1,0.8,0.1,1.2,0.2c-0.1-2.3-0.2-4.6-0.3-6.8C80.3,90,79.1,90,79.1,90.8
				L79.1,90.8z"/>
		</g>
	</g>
	<g>
		<g>
			<path d="M22,78.4c-3.4-8.9-4.3-18.6-2.9-28c1.6-10,5.8-19.4,12.5-27C39.6,14.5,50.3,8.8,61.8,6c7.3-1.8,14.9-2.4,22.4-2.3
				c4.3,0.1,8.8,0.1,13,1c4.1,0.8,8,2.7,11.4,5.1c7,5,12.5,12.4,16.2,20.1c4.3,8.9,6.1,19,5.9,28.8c-0.1,2.4-0.3,4.8-0.5,7.2
				c-0.1,0.8,1.2,0.8,1.2,0c2.3-19.1-3-39-16.8-52.7c-3-3-6.4-5.6-10.3-7.4c-3.9-1.9-7.8-2.6-12.1-2.9c-8.2-0.7-16.5-0.5-24.6,0.8
				c-12.4,2-24.4,7-33.6,15.7c-7.6,7.2-12.9,16.7-15.2,26.9c-2.2,9.6-1.9,19.8,1,29.2c0.3,1.1,0.7,2.2,1.1,3.3
				C21.1,79.4,22.3,79.1,22,78.4L22,78.4z"/>
		</g>
	</g>
	<g>
		<g>
			<path d="M21.2,79.9c0.1,1,0.3,2.1,0.6,3.1c0.1,0.3,0.4,0.5,0.8,0.4c0.3-0.1,0.5-0.4,0.4-0.8c-0.1-0.5-0.2-1-0.3-1.4
				c0-0.2-0.1-0.5-0.1-0.7c0,0,0-0.2,0-0.1c0-0.1,0-0.1,0-0.2c0-0.1,0-0.3,0-0.4c0-0.3-0.3-0.6-0.6-0.6
				C21.5,79.3,21.1,79.6,21.2,79.9L21.2,79.9z"/>
		</g>
	</g>
	<g>
		<g>
			<path d="M40.6,69.7c-1,0.1-2.1,0.3-3.1,0.5c-0.3,0.1-0.5,0.5-0.4,0.8c0.1,0.3,0.4,0.5,0.8,0.4c0.5-0.1,1-0.2,1.4-0.3
				c0.2,0,0.5-0.1,0.7-0.1c0.1,0-0.1,0,0.1,0c0.1,0,0.1,0,0.2,0c0.1,0,0.3,0,0.4,0c0.3,0,0.6-0.3,0.6-0.6
				C41.2,70,40.9,69.7,40.6,69.7L40.6,69.7z"/>
		</g>
	</g>
	<g>
		<g>
			<path d="M21.5,80.6c1.2,0.9,2.4,1.8,3.7,2.6c0.3,0.2,0.7,0.1,0.9-0.2c0.2-0.3,0.1-0.7-0.2-0.9c-0.6-0.4-1.2-0.8-1.8-1.2
				c-0.3-0.2-0.6-0.4-0.9-0.6c-0.1-0.1-0.3-0.2-0.4-0.3c-0.1-0.1-0.1-0.1-0.2-0.2c-0.1,0-0.1-0.1,0,0c0,0-0.1-0.1-0.1-0.1
				c-0.3-0.2-0.6-0.3-0.9,0C21.3,80,21.2,80.4,21.5,80.6L21.5,80.6z"/>
		</g>
	</g>
	<g>
		<g>
			<path d="M21.7,80c1.2,0.4,2.5,0.4,3.7,0.1c0.3-0.1,0.5-0.5,0.4-0.8c-0.1-0.3-0.4-0.5-0.8-0.4c-0.1,0-0.3,0.1-0.4,0.1
				c-0.1,0-0.1,0-0.2,0c0.1,0-0.1,0-0.1,0c-0.3,0-0.6,0-0.8,0c-0.1,0-0.3,0-0.4,0c-0.1,0-0.1,0-0.2,0c0.1,0-0.1,0-0.1,0
				c-0.3,0-0.5-0.1-0.8-0.2c-0.3-0.1-0.7,0.1-0.8,0.4C21.2,79.6,21.4,79.9,21.7,80L21.7,80z"/>
		</g>
	</g>
	<g>
		<g>
			<path d="M40.9,70.6c0,1.2,0.4,2.5,1.1,3.5c0.2,0.3,0.6,0.4,0.9,0.2c0.3-0.2,0.4-0.6,0.2-0.9c-0.2-0.2-0.3-0.5-0.4-0.7
				c0-0.1-0.1-0.1-0.1-0.2c0,0.1,0,0,0-0.1c-0.1-0.1-0.1-0.3-0.1-0.4c-0.1-0.3-0.1-0.5-0.2-0.8c0,0,0-0.3,0-0.1c0-0.1,0-0.1,0-0.2
				c0-0.1,0-0.3,0-0.4c0-0.3-0.3-0.6-0.6-0.6C41.2,70,40.9,70.2,40.9,70.6L40.9,70.6z"/>
		</g>
	</g>
	<g>
		<g>
			<path d="M32.9,85.9c0-0.1-0.1-0.2-0.1-0.4c0,0.1,0,0.1,0,0.2c0-0.3,0-0.5,0-0.8c0,0.1,0,0.1,0,0.2c0-0.1,0-0.1,0-0.2
				c0-0.2,0-0.3-0.1-0.5c-0.1-0.1-0.2-0.3-0.4-0.3c-0.2,0-0.3,0-0.5,0.1c-0.1,0.1-0.3,0.2-0.3,0.4c-0.1,0.5-0.1,1.1,0,1.6
				c0,0.2,0.2,0.3,0.3,0.4c0.1,0.1,0.3,0.1,0.5,0.1c0.2,0,0.3-0.1,0.4-0.3C32.9,86.2,32.9,86.1,32.9,85.9L32.9,85.9z"/>
		</g>
	</g>
	<g>
		<g>
			<path d="M37.1,86.5c-0.1-0.4-0.3-0.8-0.4-1.2c-0.1-0.2-0.1-0.3-0.3-0.4c-0.1-0.1-0.3-0.1-0.5-0.1c-0.2,0-0.3,0.1-0.4,0.3
				c-0.1,0.1-0.1,0.3-0.1,0.5c0.1,0.4,0.3,0.8,0.4,1.2c0.1,0.2,0.1,0.3,0.3,0.4c0.1,0.1,0.3,0.1,0.5,0.1c0.2,0,0.3-0.1,0.4-0.3
				C37.1,86.8,37.1,86.6,37.1,86.5L37.1,86.5z"/>
		</g>
	</g>
	<g>
		<g>
			<path d="M39,83.1c-0.7-0.3-1.4-0.6-2.1-0.9c-0.1-0.1-0.4,0-0.5,0.1c-0.1,0.1-0.3,0.2-0.3,0.4c0,0.2,0,0.3,0.1,0.5
				c0.1,0.1,0.2,0.2,0.4,0.3c0.7,0.3,1.4,0.6,2.1,0.9c0.1,0.1,0.4,0,0.5-0.1c0.1-0.1,0.3-0.2,0.3-0.4c0-0.2,0-0.3-0.1-0.5
				C39.2,83.2,39.1,83.1,39,83.1L39,83.1z"/>
		</g>
	</g>
</g>
</svg>
