<?xml version="1.0" encoding="utf-8"?>
<!-- Generator: Adobe Illustrator 24.0.1, SVG Export Plug-In . SVG Version: 6.00 Build 0)  -->
<svg version="1.1" id="Layer_1" xmlns="http://www.w3.org/2000/svg" xmlns:xlink="http://www.w3.org/1999/xlink" x="0px" y="0px"
	 viewBox="0 0 554 502" style="enable-background:new 0 0 554 502;" xml:space="preserve">
<style type="text/css">
	.st0{fill:#0F0809;}
</style>
<g>
	<g>
		<path class="st0" d="M370.8,298.4c9.1-11.4,19.3-21.9,30.3-31.5c10.9-9.4,22.4-17.7,35-25.1c7-4.1,14.3-7.9,21.7-11.3
			c1.8-0.8,2.3-3.5,1.3-5.1c-1.1-1.9-3.3-2.2-5.1-1.3c-13.3,6.1-26,13.3-38,21.7c-12.2,8.5-23.6,18.2-34.1,28.8
			c-5.8,5.9-11.3,12.1-16.5,18.5c-1.3,1.6-1.5,3.8,0,5.3C366.8,299.7,369.5,300,370.8,298.4L370.8,298.4z"/>
	</g>
</g>
<g>
	<g>
		<path class="st0" d="M379.2,309.2c16-9.5,32.8-16.8,50.6-21.9c5-1.4,10.1-2.7,15.3-3.7c2-0.4,3.1-2.8,2.6-4.6
			c-0.6-2.1-2.6-3-4.6-2.6c-18.6,3.8-36.7,10.2-53.7,18.7c-4.8,2.4-9.4,5-14,7.7c-1.7,1-2.4,3.4-1.3,5.1
			C375.1,309.6,377.4,310.2,379.2,309.2L379.2,309.2z"/>
	</g>
</g>
<g>
	<g>
		<path class="st0" d="M283.2,290.4c-17.5-12.8-37-22.9-57.5-30c-5.8-2-11.7-3.8-17.6-5.2c-1.9-0.5-4.2,0.6-4.6,2.6
			c-0.4,1.9,0.6,4.1,2.6,4.6c20.7,5.2,40.1,13.3,58.4,24.5c5.1,3.1,10.1,6.5,15,10c1.6,1.2,4.2,0.3,5.1-1.3
			C285.6,293.6,284.8,291.6,283.2,290.4L283.2,290.4z"/>
	</g>
</g>
<g>
	<g>
		<path class="st0" d="M284.1,306.5c-25.9-10.5-52.5-19.5-79.4-26.9c-7.6-2.1-15.2-4.1-22.9-5.9c-1.9-0.5-4.2,0.6-4.6,2.6
			c-0.4,1.9,0.6,4.1,2.6,4.6c27.2,6.5,54,14.6,80.2,24.3c7.4,2.7,14.8,5.6,22.1,8.5c1.8,0.7,4.2-0.8,4.6-2.6
			C287.2,309,286.1,307.3,284.1,306.5L284.1,306.5z"/>
	</g>
</g>
<g>
	<g>
		<path class="st0" d="M147.1,248.5c13.4,0.4,26.8,0.5,40.2,0.1c6.7-0.2,13.4-0.4,20-0.8c5.1-0.4,10.7-1.7,13.3-6.6
			c2.9-5.6,0.6-12.6-4.3-16.4c-4.8-3.7-11.3-4.8-17.2-5.7c-12.9-2.1-26.1-1.8-38.9,0.9c-5.9,1.3-11.5,3-16.3,6.8
			c-4.7,3.7-7.3,9.3-5.9,15.2c0.4,2,2.7,3.1,4.6,2.6c2-0.6,3.1-2.6,2.6-4.6c0,0-0.2-1.1-0.1-0.5c0.1,0.6,0-0.5,0-0.5
			c0-0.4,0-0.8,0-1.3c0,0.9,0.1-0.4,0.2-0.7c0.1-0.2,0.2-0.5,0.2-0.7c-0.2,0.5-0.1,0.3,0-0.1c0.2-0.4,0.4-0.8,0.7-1.2
			c0.1-0.2,0.2-0.3,0.4-0.5c-0.4,0.6,0,0,0.1-0.1c0.7-0.8,1.4-1.5,2.2-2.2c0.5-0.5,0.2-0.1,0,0c0.2-0.2,0.5-0.3,0.7-0.5
			c0.4-0.3,0.8-0.6,1.3-0.8c0.9-0.5,1.8-1,2.7-1.4c1-0.5-0.4,0.2,0.2-0.1c0.3-0.1,0.5-0.2,0.8-0.3c0.4-0.1,0.8-0.3,1.2-0.4
			c1.4-0.4,2.7-0.8,4.1-1.1c10.9-2.6,22.2-3.2,33.5-1.9c2.6,0.3,5.3,0.7,8.1,1.3c2.6,0.5,5.2,1.1,7.6,2c-0.4-0.2,0.2,0.1,0.2,0.1
			c0.3,0.1,0.6,0.3,0.9,0.5c0.5,0.3,1.1,0.6,1.5,1c-0.2-0.1-0.3-0.3,0.2,0.2c0.2,0.2,0.4,0.4,0.6,0.5c0-0.1,0.7,0.8,0.4,0.4
			c-0.2-0.3,0.3,0.4,0.3,0.5c0.2,0.3,0.3,0.5,0.4,0.8c0.1,0.1,0.3,0.9,0.1,0.3c0.2,0.5,0.3,0.9,0.4,1.4c0.2,0.7,0,0.3,0,0.1
			c0,0.3,0,0.6,0,0.9c0,0.2-0.1,1,0,0.3c-0.1,0.4-0.2,0.7-0.3,1.1c0,0.2-0.3,0.6,0,0.1c-0.1,0.2-0.2,0.4-0.3,0.6
			c-0.3,0.6-0.1,0.2,0,0c-0.2,0.2-0.4,0.4-0.5,0.6c-0.1,0.2-0.7,0.5-0.1,0.1c-0.2,0.1-0.3,0.2-0.5,0.3c-0.2,0.1-0.4,0.2-0.6,0.3
			c-0.8,0.5,0.6-0.2-0.3,0.1c-0.9,0.3-1.9,0.5-2.9,0.7c-0.2,0-0.7,0.1,0,0c-0.2,0-0.4,0.1-0.7,0.1c-0.6,0.1-1.2,0.1-1.9,0.1
			c-6,0.3-12.1,0.6-18.1,0.8c-13.7,0.4-27.5,0.4-41.2-0.1c-2-0.1-3.8,1.8-3.8,3.8C143.5,246.9,145,248.5,147.1,248.5L147.1,248.5z"
			/>
	</g>
</g>
<g>
	<g>
		<path class="st0" d="M108.8,115c-2.1-0.6-4.1-1.3-6.1-2.1c-0.1,0-0.7-0.3-0.1-0.1c-0.2-0.1-0.5-0.2-0.7-0.3
			c-0.5-0.2-0.9-0.4-1.3-0.6c-0.9-0.4-1.9-0.9-2.8-1.4c-3.6-1.9-7.1-4-10.5-6.2c-6.9-4.4-13.6-8.8-21.2-11.9c-4-1.6-8-2.7-12.3-3.2
			c-1.6-0.2-3.2-0.4-4.8-0.1c-0.9,0.2-1.8,0.5-2.7,0.9c-5.5,2.1-10.8,4.8-15.9,7.9c-1.6,1-3.2,2-4.2,3.6c-0.9,1.5-1.6,3.2-2.4,4.9
			c-2.4,5.4-4.6,10.9-6.7,16.5c-0.9,2.3-1.7,4.6-2.4,6.9c-0.6,1.8-1,3.4-0.8,5.3c0.5,8,2.9,15.6,7.1,22.4c3.9,6.4,9,11.9,14.2,17.3
			c2.6,2.7,5.2,5.4,7.8,8.2c1.3,1.5,2.7,3,4,4.5c0.6,0.7,1.2,1.5,1.8,2.2c0.2,0.2,0.3,0.4,0.4,0.6c0.1,0.1,0.4,0.6,0.1,0.1
			c0.3,0.4,0.7,0.9,1,1.3c1.2,1.7,2.4,3.3,3.5,5.1c1.1,1.7,3.3,2.4,5.1,1.3c1.7-1,2.4-3.4,1.3-5.1c-4.3-6.8-9.5-12.8-15-18.6
			c-2.5-2.7-5.1-5.3-7.6-7.9c-1.2-1.3-2.4-2.7-3.6-4c-0.5-0.6-1.1-1.2-1.6-1.9c-0.3-0.3-0.5-0.7-0.8-1c-0.1-0.1-1-1.2-0.5-0.6
			c-2.1-2.7-4-5.6-5.6-8.7c-0.4-0.8-0.8-1.5-1.1-2.3c0-0.1-0.3-0.7-0.1-0.3c0.2,0.4,0-0.1-0.1-0.2c-0.2-0.5-0.4-1-0.6-1.5
			c-0.6-1.7-1.1-3.4-1.5-5.1c-0.2-0.9-0.4-1.8-0.5-2.7c0-0.1-0.1-0.7,0-0.1c0-0.2-0.1-0.5-0.1-0.7c-0.1-0.5-0.1-1-0.1-1.5
			c-0.1-0.6,0-1.4-0.1-2c0-0.2-0.2,1.2-0.1,0.6c0-0.1,0.1-0.3,0.1-0.4c0.4-1.8,1-3.5,1.6-5.2c1.8-5.3,3.9-10.5,6.1-15.6
			c0.1-0.2,0.1-0.3,0.2-0.5c0,0.1-0.3,0.8-0.1,0.2c0.1-0.3,0.3-0.6,0.4-0.9c0.2-0.6,0.5-1.1,0.7-1.7c0.4-1,0.9-2,1.3-2.9
			c0.3-0.7,0.7-1.4,1-2c0.1-0.2,0.3-0.4,0.3-0.5c0.2-0.3-0.7,1-0.4,0.5c0.1-0.1,0.2-0.2,0.3-0.3c-0.2,0.3-0.8,0.6-0.3,0.2
			c0.2-0.1,0.3-0.2,0.5-0.3c0.4-0.3,0.8-0.5,1.3-0.8c1.1-0.7,2.3-1.3,3.4-1.9c2.6-1.4,5.3-2.7,8-4c0.6-0.3,1.2-0.5,1.8-0.8
			c0.6-0.3-0.7,0.3,0.1,0c0.3-0.1,0.6-0.2,0.9-0.4c0.8-0.3,1.7-0.5,2.6-0.8c0.4-0.1-0.8-0.1-0.5,0.1c0.2,0.1,0.6,0,0.9,0.1
			c0.5,0,1,0.1,1.5,0.1c0.8,0.1,0.3,0,0.1,0c0.4,0.1,0.7,0.1,1.1,0.2c1.9,0.3,3.8,0.8,5.6,1.3c0.9,0.3,1.8,0.6,2.7,0.9
			c0.4,0.1,0.8,0.3,1.2,0.4c0.2,0.1,0.4,0.2,0.7,0.3c0.4,0.2-0.4-0.2,0.2,0.1c1.8,0.8,3.5,1.7,5.2,2.6c3.4,1.8,6.7,3.9,9.9,6
			c6.9,4.4,13.7,8.7,21.3,11.8c1.9,0.8,3.8,1.4,5.7,2c1.9,0.5,4.2-0.7,4.6-2.6C111.9,117.6,110.9,115.6,108.8,115L108.8,115z"/>
	</g>
</g>
<g>
	<g>
		<path class="st0" d="M39.9,137.5c3.9,0.7,7.8,1.7,11.5,3c1.9,0.7,3.9,1.4,5.8,2.2c0.4,0.2,0.1,0,0,0c0.2,0.1,0.5,0.2,0.7,0.3
			c0.4,0.2,0.8,0.4,1.3,0.6c1,0.4,1.9,0.9,2.9,1.4c7.3,3.6,13.6,8,19.4,13.2c3.4,3,6.5,6.4,9.3,9.9c1.3,1.6,4,1.3,5.3,0
			c1.6-1.6,1.3-3.7,0-5.3c-10.6-13.1-25-23.1-40.8-28.8c-4.4-1.6-8.8-2.8-13.4-3.6c-1.9-0.4-4.1,0.5-4.6,2.6
			C36.8,134.7,37.8,137.1,39.9,137.5L39.9,137.5z"/>
	</g>
</g>
<g>
	<g>
		<path class="st0" d="M116,144.1c3.3-10.2,3.8-21,1.7-31.4c-0.4-2-2.8-3.1-4.6-2.6c-2.1,0.6-3,2.6-2.6,4.6c1.8,9,1.2,18.5-1.7,27.5
			c-0.6,1.9,0.7,4.2,2.6,4.6C113.4,147.2,115.3,146.1,116,144.1L116,144.1z"/>
	</g>
</g>
<g>
	<g>
		<path class="st0" d="M302.3,108.7c6.2-4.1,12.3-8.5,18.5-12.7c4.9-3.3,9.9-6.6,15.4-9c0.2-0.1,0.4-0.2,0.6-0.3
			c0,0-0.6,0.2-0.2,0.1c0.3-0.1,0.6-0.2,0.9-0.4c0.6-0.2,1.3-0.5,1.9-0.7c1.3-0.4,2.6-0.8,3.9-1.1c0.6-0.1,1.2-0.3,1.9-0.4
			c0.3-0.1,0.6-0.1,0.9-0.2c0.2,0,0.3,0,0.5-0.1c0.6-0.1-0.6,0.1,0,0c1.4-0.1,2.9-0.3,4.3-0.3c1.5,0,2.9,0,4.4,0.1
			c0.8,0.1,1.6,0.1,2.4,0.2c0.2,0,0.4,0,0.6,0.1c-0.1,0-0.5-0.1,0,0c0.5,0.1,0.9,0.1,1.4,0.2c0.8,0.1,1.6,0.3,2.4,0.4
			c0.3,0.1,1,0.3,1.2,0.3c0.3-0.1-0.6-0.3-0.6-0.3c0.3,0.3,0.8,0.5,1.2,0.8c0.2,0.1-0.8-0.6-0.3-0.2c0.1,0.1,0.3,0.2,0.4,0.3
			c0.3,0.3,0.7,0.5,1,0.8c0.7,0.6,1.3,1.2,2,1.8c1.6,1.5,3.1,3,4.7,4.6c2.9,3,5.7,6,8.4,9.2c0.1,0.2-0.6-0.8-0.1-0.1
			c0.1,0.1,0.2,0.3,0.3,0.4c0.2,0.2,0.3,0.5,0.5,0.7c0.1,0.2,0.2,0.4,0.3,0.6c0.3,0.3-0.2-0.6-0.2-0.6c0,0.1,0.1,0.2,0.1,0.3
			c0.1,0.9,0.3,1.9,0.5,2.8c0.1,0.6,0.2,1.2,0.3,1.8c0,0.2,0.1,0.7,0-0.1c0,0.2,0,0.3,0.1,0.5c0,0.4,0.1,0.7,0.1,1.1
			c0.1,1.2,0.1,2.4,0.1,3.6c0,0.2,0.2-0.8,0-0.1c0,0.1-0.1,0.2-0.1,0.3c-0.1,0.6,0.1-0.4,0.2-0.4c0,0-1.3,1.9-1.4,2
			c-2.2,3.1-4.3,6.3-6.5,9.4c-7.9,11.4-15.6,22-25.9,31.5c-1.3,1.2-2.6,2.4-4,3.5c-1.5,1.3-1.4,4,0,5.3c1.5,1.5,3.8,1.3,5.3,0
			c11.1-9.5,20.1-21,28.5-32.9c2.2-3.2,4.4-6.3,6.6-9.5c1.2-1.7,2.4-3.4,3.5-5.1c0.9-1.3,1.1-2.8,1.3-4.3c0.2-2.8-0.3-5.8-0.7-8.6
			c-0.3-1.7-0.4-3.3-1.3-4.8c-2-3.4-5-6.3-7.7-9.2c-3-3.2-6.1-6.3-9.4-9.2c-1.1-1-2.3-2-3.6-2.7c-1.3-0.7-2.8-0.8-4.2-1.1
			c-1.9-0.3-3.9-0.6-5.8-0.8c-6.1-0.6-12.3,0-18.1,1.8c-12.8,4-23.5,12.9-34.4,20.4c-1.8,1.2-3.6,2.4-5.4,3.6
			c-1.7,1.1-2.4,3.3-1.3,5.1C298.2,109.1,300.6,109.8,302.3,108.7L302.3,108.7z"/>
	</g>
</g>
<g>
	<g>
		<path class="st0" d="M334.7,130.5c11.6-9,24.9-16.4,38.7-21.2c3.9-1.3,7.9-2.5,11.9-3.4c2-0.5,3.1-2.7,2.6-4.6
			c-0.6-2-2.6-3.1-4.6-2.6c-15.1,3.6-29.4,10-42.4,18.4c-3.9,2.5-7.7,5.3-11.5,8.2c-1.6,1.2-1.3,4,0,5.3
			C331,132.1,333.1,131.7,334.7,130.5L334.7,130.5z"/>
	</g>
</g>
<g>
	<g>
		<path class="st0" d="M316,173.3c4.4,26.7,12.8,52.6,24.8,76.8c3.4,6.8,7,13.4,11,19.9c1.1,1.7,3.4,2.4,5.1,1.3
			c1.7-1,2.4-3.4,1.3-5.1c-13.8-22.8-24-47.2-30.5-73c-1.8-7.2-3.3-14.5-4.5-21.9c-0.3-2-2.8-3.1-4.6-2.6
			C316.5,169.3,315.6,171.3,316,173.3L316,173.3z"/>
	</g>
</g>
<g>
	<g>
		<path class="st0" d="M240,201.3c4.6,14.8,11.6,28.8,20.7,41.3c9.2,12.7,20.4,23.7,33.1,32.8c6.9,4.9,14.3,9.2,22.1,12.8
			c1.8,0.8,4,0.5,5.1-1.3c0.9-1.6,0.5-4.3-1.3-5.1c-6.8-3.1-13.3-6.7-19.5-10.9c-1.5-1-3-2.1-4.5-3.2c-1.7-1.3-2.4-1.8-4-3.1
			c-2.9-2.3-5.7-4.8-8.4-7.3c-2.7-2.6-5.3-5.2-7.8-8c-1.3-1.4-2.5-2.8-3.7-4.3c-0.6-0.7-1.1-1.4-1.7-2.1c-0.3-0.4-0.6-0.8-0.9-1.2
			c0,0-0.4-0.5-0.2-0.2c0.2,0.2-0.4-0.5-0.4-0.5c-4.5-5.9-8.5-12.2-12-18.8c-1-1.9-2-3.8-2.9-5.8c-0.4-0.9-0.9-1.8-1.3-2.8
			c-0.2-0.5-0.4-0.9-0.6-1.4c-0.1-0.2-0.2-0.5-0.3-0.7c-0.2-0.6,0,0-0.1-0.3c-1.6-3.9-3.1-7.9-4.3-12c-0.6-1.9-2.6-3.2-4.6-2.6
			C240.7,197.2,239.4,199.3,240,201.3L240,201.3z"/>
	</g>
</g>
<g>
	<g>
		<path class="st0" d="M264.1,316.7c1.9,14.5,3.7,29.1,5.6,43.6c0.4,2.8,2.9,4.6,5.6,3.2c6.5-3.3,12.2-8.2,17-13.7
			c5.2-6,9.5-12.8,11.8-20.5c0.6-1.9-0.7-4.2-2.6-4.6c-2-0.5-4,0.6-4.6,2.6c-1.9,6.3-5.7,12.5-10.1,17.4c-2.3,2.6-4.9,5.1-7.6,7.3
			c0,0-0.9,0.7-0.4,0.4c-0.4,0.3-0.8,0.6-1.2,0.9c-0.6,0.4-1.2,0.8-1.8,1.2c-1.3,0.9-2.7,1.7-4.2,2.4c1.9,1.1,3.8,2.2,5.6,3.2
			c-1.9-14.5-3.7-29.1-5.6-43.6c-0.2-1.9-1.5-3.8-3.8-3.8C266.1,313,263.9,314.6,264.1,316.7L264.1,316.7z"/>
	</g>
</g>
<g>
	<g>
		<path class="st0" d="M358.1,333.7c-0.6,5.5-0.3,11.1,0.8,16.5c1,4.8,3.2,10.7,9.1,10.6c5.6-0.1,8.5-5.8,10.4-10.2
			c2.1-5,3.5-10.1,4.1-15.5c0.7-5.7,0.3-11.6-0.9-17.2c-0.4-2-2.7-3.1-4.6-2.6c-2.1,0.6-3,2.6-2.6,4.6c0.8,3.9,1.1,7.7,0.9,12
			c-0.2,4-0.9,7.8-2.2,11.8c-0.7,2-1.3,3.6-2.1,5.3c-0.9,1.8-1.5,3.2-2.8,4.2c0.6-0.5-0.6,0.4-0.3,0.1c0.3-0.3-0.2,0-0.2,0
			c0.7-0.6,0.1,0.3,0,0c0.1,0,0.1,0,0.2,0c0.3,0,0.2,0-0.2-0.1c0-0.1,0.5,0.3,0.2,0c-0.3-0.3,0.1,0.1,0.1,0.1c0,0-0.6-0.7-0.3-0.4
			c0.2,0.3-0.1-0.1-0.1-0.2c-0.1-0.2-0.2-0.4-0.3-0.6c0.3,0.6-0.1-0.4-0.2-0.6c-0.3-1-0.5-2-0.8-3c-1-4.8-1.2-9.9-0.6-15
			c0.2-2-1.9-3.8-3.8-3.8C359.6,330.1,358.3,331.6,358.1,333.7L358.1,333.7z"/>
	</g>
</g>
<g>
	<g>
		<path class="st0" d="M301.3,327c-1.5,5.8,0.4,12.2,2.5,17.6c2.2,5.5,4.9,11.4,9.2,15.6c1.5,1.5,3.7,1.3,5.3,0
			c8.9-7.3,14.1-18,15.2-29.4c-2.3,0.6-4.7,1.3-7,1.9c1.3,2.3,2.7,4.6,3.8,6.9c0.2,0.4,0.4,0.7,0.5,1.1c0.4,1-0.2-0.7,0.1,0.2
			c0.2,0.5,0.4,1,0.5,1.6c0.1,0.3,0.3,1.6,0.2,0.6c-0.1-0.9,0,0.2,0,0.5c0.1,0.9,0.2,1.9,0.4,2.8c1.3,4.7,5,9.8,9.9,11
			c6.7,1.6,11.6-3.9,14.4-9.2c3.4-6.3,5.2-13.6,5.1-20.8c0-2-1.7-3.8-3.8-3.8c-2,0.1-3.8,1.6-3.8,3.8c0,1.3,0,2.6-0.1,3.9
			c-0.1,1.3-0.2,2.2-0.6,3.8c-0.5,2.4-1.4,5.2-2.3,7.2c-0.5,1.2-1.2,2.3-1.8,3.5c-0.3,0.5-0.6,1.1-1,1.6c-0.1,0.2-0.3,0.4-0.4,0.6
			c0.3-0.5-0.3,0.4-0.4,0.4c-0.4,0.5-0.9,0.9-1.4,1.3c0.4-0.3-0.6,0.3-0.8,0.4c0.6-0.3-0.1,0-0.3,0.1c-0.2,0.1-0.9,0.1-0.3,0.1
			c-0.2,0-0.5,0-0.7,0c0.7,0-0.1-0.1-0.3-0.1c-0.6-0.1-0.2-0.1,0,0c-0.3-0.1-0.5-0.3-0.7-0.4c-0.1-0.1-0.7-0.5-0.2-0.1
			c-0.2-0.1-0.4-0.3-0.5-0.5c-0.2-0.2-0.3-0.3-0.5-0.5c0.1,0.1-0.7-0.8-0.4-0.5c0.3,0.4-0.4-0.6-0.4-0.5c-0.2-0.3-0.4-0.6-0.6-0.9
			c-0.2-0.4-0.5-0.9-0.7-1.3c0.3,0.5-0.1-0.3-0.2-0.4c-0.1-0.3-0.2-0.7-0.3-1c-0.2-1,0.1,1.1,0,0.1c0-0.3,0-0.5-0.1-0.8
			c-0.1-1-0.2-1.9-0.5-2.9c-1.2-4.1-3.6-7.9-5.7-11.5c-0.8-1.4-2.6-2.2-4.2-1.7c-1.7,0.5-2.6,2-2.8,3.6c-0.5,4.6-2.1,9.8-4.4,13.9
			c-0.6,1.1-1.2,2.1-1.9,3.1c-0.3,0.5-0.7,1-1.1,1.4c0.2-0.3,0.1-0.1-0.1,0.1c-0.2,0.2-0.4,0.5-0.6,0.7c-1.5,1.8-3.2,3.4-5,4.9
			c1.8,0,3.5,0,5.3,0c-0.4-0.4-0.7-0.8-1.1-1.2c-0.2-0.2-0.3-0.4-0.5-0.6c0.6,0.8,0.1,0.1-0.1-0.1c-0.7-1-1.4-2.1-2.1-3.2
			c-0.7-1.2-1.4-2.4-2-3.7c-0.3-0.7-0.7-1.4-1-2.1c0-0.1-0.5-1.1-0.2-0.4c-0.2-0.4-0.3-0.7-0.4-1.1c-1-2.6-1.9-5.4-2.4-8.2
			c-0.1-0.3-0.1-0.7-0.2-1c-0.1-0.8,0.1,0.7,0-0.2c0-0.6-0.1-1.2-0.1-1.8c0-0.6,0-1.1,0-1.6c0-0.8-0.1-0.3,0,0.1
			c-0.1-0.2,0.1-0.7,0.2-0.9c0.5-1.9-0.6-4.2-2.6-4.6C304,323.9,301.8,324.9,301.3,327L301.3,327z"/>
	</g>
</g>
<g>
	<g>
		<path class="st0" d="M84.3,258.9c-6.9,22.8-7.2,48,0.9,70.5c7.5,20.8,22.2,38.8,41.8,49.3c10.6,5.7,22.5,9,34.6,9.3
			c2,0,3.8-1.8,3.8-3.8c-0.1-2.1-1.6-3.7-3.8-3.8c-1.2,0-2.5-0.1-3.7-0.2c-0.6,0-1.2-0.1-1.8-0.2c-0.2,0-0.5-0.1-0.7-0.1
			c-0.2,0-0.5-0.1-0.7-0.1c-0.4-0.1-0.5-0.1-0.2,0c0.5,0.1-0.7-0.1-0.6-0.1c-0.2,0-0.5-0.1-0.7-0.1c-0.6-0.1-1.2-0.2-1.8-0.3
			c-1.3-0.3-2.7-0.5-4-0.9c-2.4-0.6-4.8-1.3-7.1-2.2c-2.6-0.9-3.9-1.5-6.3-2.6c-4.5-2.2-8.8-4.7-12.8-7.7c-1.2-0.9-1.4-1.1-2.5-1.9
			c-1-0.8-2-1.7-3-2.6c-1.9-1.7-3.8-3.5-5.5-5.4c-3.6-3.8-6.1-7-8.9-11.4c-2.8-4.4-5.5-9.5-7.3-14c-2.1-5.3-3.7-10.7-4.9-16.3
			c-0.3-1.3-0.5-2.6-0.7-3.9c-0.2-1.4-0.4-2.7-0.6-3.8c-0.3-2.8-0.6-5.6-0.7-8.4c-0.6-13,1-25.1,4.8-37.5c0.6-1.9-0.7-4.2-2.6-4.6
			C86.9,255.9,84.9,256.9,84.3,258.9L84.3,258.9z"/>
	</g>
</g>
<g>
	<g>
		<path class="st0" d="M240.4,412.5c16,9.4,36.1,10.6,53.4,4.3c4.5-1.6,8.7-3.7,12.7-6.2c2.1-1.2,4.1-2.4,6.2-3.5
			c1.1-0.5,1.4-0.7,2.5-1.1c1.1-0.4,2.2-0.7,3.3-0.9c0.7-0.1-0.5,0,0.2,0c0.3,0,0.5,0,0.8-0.1c0.5,0,1.1,0,1.6,0
			c0.1,0,0.9,0.1,0.4,0c-0.5,0,0.2,0,0.3,0.1c0.5,0.1,0.9,0.2,1.4,0.3c0.4,0.1,0.8,0.3,1.2,0.4c-0.7-0.3,0.3,0.2,0.5,0.3
			c0.4,0.2,0.7,0.4,1.1,0.7c0.2,0.1,0.3,0.2,0.5,0.4c0.8,0.6-0.5-0.5,0.3,0.2c0.6,0.6,1.3,1.2,1.8,1.8c0.2,0.2,0.9,1.1,0.4,0.5
			c0.3,0.4,0.6,0.8,0.8,1.2c0.5,0.8,0.9,1.5,1.3,2.3c0.3,0.5-0.2-0.5,0,0c0.1,0.2,0.2,0.4,0.2,0.6c0.2,0.5,0.3,1,0.5,1.4
			c0.2,0.9,0.4,1.7,0.6,2.6c-0.1-0.8,0,0.4,0,0.7c0,0.6,0,1.1,0,1.7c0,0.4-0.1,0.9-0.1,1.3c0.1-0.8-0.1,0.6-0.1,0.8
			c-0.2,1-0.5,2-0.9,3c-0.2,0.6,0.2-0.5,0,0.1c-0.1,0.2-0.2,0.4-0.3,0.6c-0.2,0.4-0.4,0.8-0.7,1.3c-0.5,0.9-1.1,1.7-1.7,2.5
			c0.4-0.5,0,0-0.1,0.1c-0.2,0.2-0.3,0.4-0.5,0.6c-0.3,0.4-0.6,0.7-1,1.1c-0.8,0.8-1.6,1.6-2.4,2.3c-0.7,0.7-1.5,1.3-2.3,2
			c-1,0.8-1.1,0.9-2.1,1.6c-1.6,1.2-3.2,2.4-4.9,3.5c-3.1,2.1-6.5,3.9-9.9,5.4c-0.5,0.2,0.5-0.2-0.1,0c-0.2,0.1-0.4,0.2-0.6,0.3
			c-0.4,0.2-0.9,0.3-1.3,0.5c-0.9,0.3-1.8,0.7-2.8,1c-1.9,0.6-3.8,1.2-5.7,1.7c-1.9,0.5-3.8,0.9-5.7,1.2c-0.9,0.2-1.9,0.3-2.8,0.5
			c-0.2,0-0.5,0.1-0.7,0.1c-0.1,0-0.8,0.1-0.4,0.1c0.4-0.1-0.3,0-0.4,0c-0.3,0-0.6,0.1-0.9,0.1c-8.1,0.9-16.3,0.9-24.4,0.1
			c-1-0.1-1.9-0.2-2.9-0.3c-0.2,0-0.5-0.1-0.7-0.1c0.7,0.1,0,0-0.1,0c-0.6-0.1-1.2-0.2-1.8-0.3c-1.9-0.3-3.9-0.6-5.8-1
			c-3.8-0.8-7.5-1.7-11.1-2.9c-1.7-0.5-3.4-1.1-5.1-1.8c-0.8-0.3-1.6-0.6-2.4-0.9c-0.1,0-0.7-0.3-0.3-0.1c0.4,0.2-0.2-0.1-0.3-0.1
			c-0.4-0.2-0.9-0.4-1.3-0.6c-4.3-2-8.5-4.2-12.5-6.6c-2.1-1.2-4.1-2.5-6.1-3.9c-1.7-1.1-4.2-0.3-5.1,1.3c-1.1,1.9-0.3,4,1.3,5.1
			c14.3,9.9,30.5,16.4,47.7,18.9c16.7,2.5,34.5,2,50.6-3.6c3.9-1.4,7.7-3,11.3-5.1c3.6-2,6.9-4.4,10.1-6.9
			c7.3-5.6,14-12.6,14.6-22.4c0.5-8.3-4.1-17.4-11.6-21.3c-4.3-2.2-9.1-2.5-13.7-1.3c-4.9,1.3-9.2,4.1-13.5,6.7
			c-4.1,2.4-7.6,4-12,5.4c-2.2,0.7-4.5,1.3-6.8,1.7c-2.5,0.5-3.8,0.7-6.4,0.9c-2.3,0.2-4.5,0.2-6.8,0.2c-1.1,0-2.3-0.1-3.4-0.2
			c-0.5,0-1.1-0.1-1.6-0.2c-0.1,0-0.9-0.1-0.5-0.1c0.2,0-0.7-0.1-0.9-0.1c-2.2-0.4-4.4-0.8-6.6-1.4c-1.1-0.3-2.2-0.6-3.2-1
			c-0.5-0.2-1-0.4-1.5-0.5c-0.2-0.1-0.5-0.2-0.7-0.3c0,0-1.1-0.4-0.6-0.2c-2.1-0.9-4.1-1.9-6.1-3.1c-1.7-1-4.1-0.4-5.1,1.3
			C238,409.2,238.6,411.5,240.4,412.5L240.4,412.5z"/>
	</g>
</g>
<g>
	<g>
		<path class="st0" d="M195.2,355c-0.5,3.1-0.4,6,0.1,9c0.5,2.8,1.4,5.5,2.6,8.1c0.4,0.8,1.4,1.5,2.2,1.7c0.9,0.2,2.1,0.1,2.9-0.4
			c0.8-0.5,1.5-1.3,1.7-2.2c0.2-1,0-1.9-0.4-2.9c-0.3-0.7,0.3,0.7-0.1-0.2c-0.1-0.3-0.2-0.6-0.3-0.9c-0.2-0.5-0.4-1-0.5-1.5
			c-0.3-1.1-0.6-2.3-0.8-3.4c0-0.1,0-0.3-0.1-0.4c-0.1-0.4-0.1-0.3,0,0.2c-0.1-0.1-0.1-0.6-0.1-0.8c-0.1-0.6-0.1-1.1-0.1-1.7
			c0-0.6,0-1.1,0-1.7c0-0.3,0-0.5,0.1-0.8c0-0.2,0-0.3,0.1-0.5c-0.1,0.6-0.1,0.7,0,0.2c0.2-1,0.2-1.9-0.4-2.9
			c-0.5-0.8-1.3-1.5-2.2-1.7C198.1,351.9,195.6,352.9,195.2,355L195.2,355z"/>
	</g>
</g>
<g>
	<g>
		<path class="st0" d="M311,392c2,0,3.8-1.7,3.8-3.8c-0.1-2-1.6-3.8-3.8-3.8c-2,0-3.8,1.7-3.8,3.8C307.4,390.3,308.9,392,311,392
			L311,392z"/>
	</g>
</g>
<g>
	<g>
		<path class="st0" d="M275,361.1c2,0,3.8-1.7,3.8-3.8c-0.1-2-1.6-3.8-3.8-3.8c-2,0-3.8,1.7-3.8,3.8
			C271.3,359.4,272.9,361.1,275,361.1L275,361.1z"/>
	</g>
</g>
<g>
	<g>
		<path class="st0" d="M338,224.7c2.6-1.9,5.3-3.6,8.2-5c0.4-0.2,0.7-0.3,1.1-0.5c0.2-0.1,1.2-0.5,0.6-0.2c0.8-0.3,1.7-0.7,2.5-1
			c1.6-0.6,3.3-1.1,5-1.5c0.8-0.2,1.6-0.4,2.4-0.5c0.4-0.1,0.8-0.2,1.2-0.2c0.2,0,0.3-0.1,0.5-0.1c0,0,1-0.1,0.6-0.1
			c-0.4,0.1,0.2,0,0.2,0c0.2,0,0.5-0.1,0.7-0.1c0.4,0,0.8-0.1,1.2-0.1c0.9-0.1,1.7-0.1,2.6-0.1c0.8,0,1.6,0,2.4,0.1
			c0.4,0,0.8,0.1,1.2,0.1c0.4,0-0.1,0-0.2,0c0.3,0,0.5,0.1,0.8,0.1c1.5,0.3,3,0.7,4.5,1.2c0.1,0,0.5,0.2,0.1,0
			c-0.4-0.2,0.2,0.1,0.3,0.1c0.3,0.2,0.7,0.3,1,0.5c0.7,0.4,1.3,0.8,2,1.2c0.1,0.1,0.3,0.2,0.4,0.3c-0.1-0.1-0.5-0.5,0,0
			c0.3,0.3,0.6,0.5,0.9,0.8c0.3,0.3,0.6,0.6,0.9,1c0,0,0.4,0.5,0.2,0.2c-0.2-0.2,0.4,0.6,0.4,0.6c0.2,0.4,0.5,0.8,0.7,1.2
			c0.1,0.2,0.2,0.3,0.2,0.5c-0.1-0.2-0.1-0.5,0,0.2c0.1,0.4,0.2,0.7,0.3,1.1c-0.1-0.6,0-0.1,0,0.1c0,0.1,0,1,0,0.6
			c0.1-0.5-0.3,1,0,0.4c-0.1,0.2-0.6,0.9-0.2,0.4c-0.1,0.2-0.3,0.3-0.5,0.5c0.1-0.1,0.6-0.3,0,0c-0.2,0.1-1.3,0.6-0.6,0.3
			c-1.8,0.7-3.7,0.9-5.5,1.2c-2.2,0.4-4.4,0.6-6.7,0.8c-4.6,0.4-9.2,0.5-13.7,0.5c-2.7,0-5.3-0.1-8-0.1c-1.3,0-2.6-0.1-3.9-0.1
			c-0.5,0-1,0-1.6-0.1c-0.2,0-0.5,0-0.7-0.1c0.4,0,0.2,0-0.1,0c-0.5-0.1-0.9-0.2-1.4-0.4c0.7,0.3-0.7-0.6-0.2-0.2
			c-0.2-0.2-0.4-0.4-0.5-0.6c0.2,0.2,0.4,0.5,0.1,0.1c-0.4-0.5,0-0.1,0,0.1c-0.1-0.2-0.1-0.5-0.2-0.7c-0.2-0.3,0,0.2,0,0.3
			c0-0.2,0-0.5,0-0.7c0-0.1,0-0.3,0-0.4c0,0.4,0,0.5,0,0c0-0.1,0.1-0.3,0.1-0.4c-0.1,0.6-0.2,0.4,0,0.1c-0.1,0.2-0.6,0.6-0.9,0.7
			c1.9-0.6,3.2-2.6,2.6-4.6c-0.5-1.9-2.7-3.2-4.6-2.6c-4.9,1.5-5.7,7.7-3.6,11.8c2.5,5.1,8.6,5,13.4,5.1c11,0.3,22.1,0.3,33-1.7
			c4.8-0.9,9.8-2.7,10.9-8.1c1-5-1.8-10.2-5.5-13.3c-6.3-5.3-14.8-6.5-22.8-5.5c-9,1.2-18.1,4.5-25.4,10.1c-1.6,1.2-2.5,3.2-1.3,5.1
			C333.8,224.9,336.4,225.9,338,224.7L338,224.7z"/>
	</g>
</g>
<g>
	<g>
		<path class="st0" d="M353.4,171.5c-8.1-18.7-18.9-36.4-33.6-50.7c-9.4-9.1-20.2-16.2-31.1-23.4c-2.9-1.9-5.8-4-8.7-5.9
			c-5.3-3.2-11-5.9-16.8-8c-12.1-4.6-25-6.3-37.9-7.1c-22.8-1.4-45.8-0.5-68.2,3.7c-20.9,3.9-41.8,11-59.2,23.4
			c-2.2,1.6-4.4,3.2-6.5,4.9c-1.6,1.3-1.3,4,0,5.3c1.6,1.6,3.7,1.3,5.3,0c0.5-0.4,1-0.8,1.5-1.2c0.6-0.5,0.3-0.2,0.1-0.1
			c0.3-0.2,0.6-0.5,0.9-0.7c1-0.8,2-1.5,3.1-2.2c2-1.4,4.1-2.8,6.2-4c4.4-2.6,8.9-5,13.6-7c0.6-0.3,1.2-0.5,1.8-0.8
			c0.1,0,0.7-0.3,0.2-0.1c0.2-0.1,0.5-0.2,0.7-0.3c1.3-0.5,2.6-1,3.9-1.5c2.4-0.9,4.9-1.8,7.4-2.6c5.1-1.7,10.3-3.1,15.5-4.3
			c10.8-2.5,20.9-3.9,31.9-4.8c11.1-0.9,22.3-1.1,33.4-0.7c12.2,0.4,24.3,1.3,36.1,4.5c5.8,1.6,11.2,3.7,16.5,6.3
			c4.4,2.2,8.5,4.9,12.6,7.7c4.4,3.1,9,5.9,13.5,8.9c2.6,1.7,5.1,3.5,7.5,5.4c0.2,0.1,1.3,1,0.4,0.3c0.3,0.2,0.6,0.5,0.9,0.7
			c0.7,0.6,1.4,1.1,2.1,1.7c1.3,1.1,2.6,2.2,3.9,3.3c2.9,2.6,5.7,5.4,8.4,8.2c1.4,1.5,2.7,3,4,4.6c0.7,0.9,1.4,1.7,2.1,2.6
			c0.3,0.4,0.6,0.8,1,1.2c0.4,0.5-0.5-0.7,0.2,0.2c0.2,0.3,0.4,0.6,0.6,0.8c6.4,8.4,11.7,17.6,16.4,27.1c1.3,2.7,2.6,5.4,3.7,8.2
			c0.8,1.9,3.5,2.3,5.1,1.3C353.9,175.6,354.2,173.4,353.4,171.5L353.4,171.5z"/>
	</g>
</g>
<g>
	<g>
		<path class="st0" d="M178.1,177.3c8,13.5,19,26.5,33.8,32.7c3.5,1.5,7.2,2.4,11,2.8c2,0.2,3.8-1.9,3.8-3.8
			c-0.1-2.2-1.7-3.5-3.8-3.8c-0.2,0-0.3,0-0.5-0.1c-0.6,0,0.6,0.1,0.1,0c-0.3-0.1-0.6-0.1-0.9-0.2c-0.8-0.1-1.6-0.3-2.4-0.5
			c-1.4-0.4-2.8-0.8-4.2-1.3c-0.2-0.1-1.1-0.5-0.5-0.2c-0.4-0.2-0.7-0.3-1.1-0.5c-0.7-0.3-1.4-0.7-2.2-1.1c-1.5-0.8-2.9-1.6-4.2-2.6
			c-0.7-0.4-1.3-0.9-1.9-1.4c-0.3-0.2-0.6-0.4-0.9-0.7c0.4,0.3-0.1-0.1-0.1-0.1c-0.2-0.2-0.4-0.3-0.6-0.5c-1.4-1.1-2.7-2.3-4-3.6
			c-2.7-2.6-5.2-5.4-7.5-8.3c-1-1.3-2.5-3.3-3.6-4.9c-1.3-1.9-2.6-3.9-3.8-6c-1-1.7-3.4-2.4-5.1-1.3
			C177.7,173.2,177,175.6,178.1,177.3L178.1,177.3z"/>
	</g>
</g>
<g>
	<g>
		<path class="st0" d="M331.4,210.1c5.4-2.8,9.9-7.4,13.9-11.8c4.2-4.6,8.1-9.5,11.4-14.7c1.1-1.8,2.4-3.8,2.9-5.9
			c0.5-1.9-0.6-4.2-2.6-4.6c-1.9-0.4-4.1,0.6-4.6,2.6c-0.1,0.3-0.2,0.5-0.2,0.8c-0.1,0.5,0.4-0.9,0.1-0.3c-0.1,0.2-0.2,0.4-0.3,0.6
			c-0.4,0.8-0.9,1.7-1.4,2.5c-1.3,2.2-2.8,4.3-4.4,6.3c-0.1,0.2-0.7,0.9-0.4,0.6c0.2-0.3-0.3,0.4-0.5,0.6c-0.5,0.6-1,1.2-1.5,1.9
			c-1,1.2-2,2.4-3.1,3.6c-2.1,2.3-4.2,4.6-6.5,6.6c-0.6,0.5-1.2,1.1-1.8,1.6c-0.3,0.2-0.6,0.5-0.9,0.7c-0.5,0.4,0,0,0.1-0.1
			c-0.1,0.1-0.3,0.2-0.4,0.3c-1.1,0.8-2.3,1.6-3.6,2.3c-1.8,0.9-2.3,3.4-1.3,5.1C327.3,210.6,329.6,211,331.4,210.1L331.4,210.1z"/>
	</g>
</g>
<g>
	<g>
		<path class="st0" d="M178,173.6c-3,5.1-3.4,11.1-2.6,16.8c0.6,4.5,2,8.9,2.7,13.4c1.5-1.5,3.1-3.1,4.6-4.6
			c-1.7-0.3-3.3-0.6-4.9-1.1c-0.7-0.2-1.4-0.5-2.1-0.8c0.5,0.2-0.4-0.2-0.5-0.2c-0.4-0.2-0.8-0.4-1.2-0.6c-1.4-0.7-2.8-1.6-4.2-2.5
			c-1.4-0.9-2.8-2-3.9-2.8c-2.3-1.8-4.6-3.7-6.6-5.8c-0.9-0.9-1.7-1.8-2.6-2.7c-0.5-0.5-1-1.1-1.4-1.6c-0.2-0.3-0.4-0.5-0.6-0.8
			c-0.1-0.2-0.7-1-0.4-0.4c-0.9-1.2-1.8-2.5-2.5-3.8c-0.2-0.3-0.4-0.7-0.5-1.1c-0.3-0.6,0.2,0.5-0.1-0.3c-0.2-0.6-0.4-1.2-0.4-1.8
			c-0.2-1.5-2.1-2.8-3.6-2.8c-1.7,0.1-3.1,1.1-3.6,2.8c-2.1,6.1-2.5,13.1-1.7,19.5c0.8,6.7,2.7,13.6,7.3,18.8
			c0.9-2.1,1.8-4.3,2.7-6.4c-0.3,0-0.6-0.1-0.9-0.1c-0.4,0,0.4,0.1-0.3,0c-0.6-0.1-1.2-0.2-1.8-0.3c-1.1-0.3-2.2-0.6-3.3-1
			c-0.3-0.1-0.4-0.2-0.1,0c-0.3-0.1-0.5-0.2-0.8-0.4c-0.5-0.2-1-0.5-1.5-0.8c-1-0.6-1.9-1.2-2.8-1.8c-0.5-0.4,0.6,0.5-0.2-0.1
			c-0.2-0.1-0.4-0.3-0.5-0.4c-0.4-0.4-0.9-0.8-1.3-1.2c-0.8-0.8-1.7-1.7-2.4-2.6c-0.4-0.5-0.8-0.9-1.1-1.4c0.2,0.3,0,0.1-0.1-0.1
			c-0.2-0.3-0.4-0.6-0.6-0.9c-0.7-1-1.4-2.1-2.1-3.1c-1.3-2.2-5.3-2.7-6.5,0c-3.3,7.3-2.6,16.6,0.9,23.8c0.9,1.8,3.5,2.3,5.1,1.3
			c1.9-1.1,2.2-3.3,1.3-5.1c-0.1-0.2-0.2-0.4-0.3-0.5c0.2,0.4,0.2,0.4,0,0c-0.1-0.3-0.2-0.6-0.3-0.9c-0.3-0.8-0.5-1.5-0.7-2.3
			c-0.2-0.7-0.3-1.4-0.4-2.2c-0.1-0.5-0.1-0.5,0-0.1c0-0.2-0.1-0.5-0.1-0.7c0-0.4-0.1-0.8-0.1-1.1c-0.1-1.6-0.1-3.3,0.1-4.9
			c-0.1,0.7,0.1-0.5,0.1-0.6c0.1-0.4,0.2-0.8,0.3-1.2c0.1-0.3,0.2-0.7,0.3-1c0-0.2,0.6-1.4,0.2-0.6c-2.2,0-4.3,0-6.5,0
			c2.9,4.8,6.5,9.1,11,12.5c4.5,3.3,9.8,5.1,15.3,5.5c1.4,0.1,2.9-1,3.4-2.3c0.6-1.4,0.3-2.9-0.8-4.1c-0.3-0.3-0.5-0.6-0.7-0.9
			c0.4,0.5,0.1,0.1-0.1-0.2c-0.4-0.6-0.8-1.2-1.1-1.8c-0.3-0.5-0.6-1.1-0.8-1.7c-0.2-0.4-0.2-0.4,0,0c-0.1-0.1-0.1-0.3-0.2-0.4
			c-0.1-0.4-0.3-0.7-0.4-1.1c-0.5-1.4-0.9-2.8-1.2-4.2c-0.2-0.8-0.3-1.6-0.4-2.4c0-0.1-0.2-1.2-0.1-0.4c-0.1-0.4-0.1-0.8-0.1-1.2
			c-0.3-3.1-0.3-6.1-0.1-9.2c0-0.3,0.1-0.7,0.1-1c0-0.2,0.1-0.4,0.1-0.7c-0.1,0.5-0.1,0.5,0,0c0.1-0.6,0.2-1.3,0.3-1.9
			c0.3-1.4,0.6-2.7,1.1-4.1c-2.4,0-4.8,0-7.2,0c0.4,2.8,2,5.4,3.6,7.6c1.8,2.6,3.9,5,6.1,7.2c4.7,4.8,10.1,9.3,15.9,12.5
			c3.6,2,7.6,3.5,11.7,4.1c3,0.5,5.1-1.6,4.6-4.6c-0.6-3.9-1.9-7.7-2.5-11.7c-0.1-0.7,0,0.2,0-0.2c0-0.3-0.1-0.6-0.1-0.9
			c-0.1-0.6-0.1-1.2-0.1-1.8c-0.1-1.2-0.1-2.4,0-3.7c0,0,0.1-1.2,0-0.5c0-0.2,0.1-0.5,0.1-0.7c0.1-0.7,0.3-1.3,0.5-1.9
			c0.1-0.3,0.2-0.6,0.3-0.9c0-0.1,0.4-0.9,0.2-0.6c-0.2,0.4,0.2-0.5,0.3-0.6c0.2-0.3,0.3-0.7,0.5-1c1-1.7,0.4-4.1-1.3-5.1
			C181.4,171.3,179,171.9,178,173.6L178,173.6z"/>
	</g>
</g>
<g>
	<g>
		<path class="st0" d="M353.6,173.9c0.3,3.8,1.2,7.5,1.8,11.2c0.1,0.4,0.2,0.9,0.2,1.3c0,0.2,0.2,1.6,0.1,0.9
			c0.1,1.1,0.2,2.2,0.3,3.3c0.2,2.6,0.1,5.2-0.2,7.8c-0.3,3,3.4,4.5,5.6,3.2c11.5-6.3,23.1-13.8,31.2-24.4c-2.3-0.3-4.6-0.6-6.9-0.9
			c0,0.1,0.1,0.9,0.1,0.4c-0.1-0.5,0,0.1,0,0.2c0,0.5,0.1,0.9,0.1,1.4c0,1-0.1,2.1-0.2,3.1c-0.1,0.6,0.2-0.9,0,0.2
			c0,0.2-0.1,0.5-0.1,0.7c-0.1,0.5-0.2,1.1-0.3,1.6c-0.2,1.1-0.5,2.2-0.8,3.3c-1,3.6-2.3,7.2-3.7,10.7c-0.7,1.8,0.8,4.2,2.6,4.6
			c2.2,0.5,3.8-0.7,4.6-2.6c1.5-3.7,2.9-7.5,3.9-11.4c1.2-4.6,2.1-9.5,1.2-14.2c-0.3-1.4-1.8-2.5-3.1-2.7c-1.6-0.2-2.8,0.6-3.7,1.8
			c0.4-0.5-0.3,0.3-0.3,0.4c-0.2,0.3-0.5,0.6-0.7,0.9c-0.5,0.6-1,1.2-1.5,1.7c-1,1.1-2,2.1-3.1,3.1c-1.2,1.1-2.4,2.2-3.7,3.2
			c-1.3,1-2,1.6-3.4,2.6c-5,3.7-10.3,6.9-15.8,9.9c1.9,1.1,3.8,2.2,5.6,3.2c0.5-4.9,0.2-9.7-0.6-14.6c-0.3-1.8-0.7-3.6-1-5.4
			c-0.2-0.8-0.3-1.6-0.4-2.5c-0.1-0.5-0.1-0.5,0,0c0-0.2,0-0.4-0.1-0.6c-0.1-0.5-0.1-1-0.1-1.4c-0.1-2-1.6-3.8-3.8-3.8
			C355.5,170.3,353.5,171.8,353.6,173.9L353.6,173.9z"/>
	</g>
</g>
<g>
	<g>
		<path class="st0" d="M355.6,285.3c0.6-0.3-0.2,0.1-0.2,0.1c0.2-0.1,0.4-0.2,0.6-0.2c0.3-0.1,0.6-0.2,1-0.3
			c0.8-0.3,1.7-0.5,2.6-0.7c0.8-0.2,1.6-0.3,2.4-0.5c0.2,0,0.4-0.1,0.6-0.1c0,0,1-0.1,0.5-0.1c-0.5,0.1,0.2,0,0.3,0
			c0.3,0,0.5-0.1,0.8-0.1c4-0.4,8.1-0.5,12.1-0.1c0.4,0,0.9,0.1,1.3,0.1c0.2,0,0.9,0.1,0.1,0c0.2,0,0.4,0.1,0.6,0.1
			c0.9,0.1,1.8,0.3,2.8,0.5c0.8,0.2,1.5,0.4,2.2,0.6c0.4,0.1,0.8,0.3,1.2,0.4c0.2,0.1,0.4,0.2,0.6,0.2c-0.4-0.1-0.6-0.3-0.1,0
			c0.3,0.2,0.6,0.3,1,0.5c0.7,0.4-0.3-0.3,0.1,0c0.2,0.2,0.4,0.4,0.6,0.6c0.1,0.1,0.2,0.2,0.3,0.4c-0.7-0.7-0.1-0.2,0,0.1
			c0.5,0.7,0.8,1.4,1.2,2.1c0.2,0.4,0.4,0.7,0.5,1.1c0.1,0.2,0.2,0.5,0.3,0.7c-0.2-0.5-0.1-0.2,0,0.1c0.7,1.7,1.3,3.5,1.7,5.3
			c0.2,0.8,0.4,1.6,0.6,2.4c0.1,0.4,0.2,0.8,0.2,1.2c0,0.1,0,0.4,0.1,0.5c-0.1-0.2-0.1-0.9,0-0.2c0.2,2,0,3.4-0.9,5
			c-1.2,2.3-2.2,3.6-4,5.4c-1.7,1.7-2.9,2.7-4.7,3.9c-1,0.6-2,1.2-3.1,1.8c-0.5,0.2-0.9,0.5-1.4,0.7c-0.7,0.3-0.9,0.4-1.3,0.6
			c-4.8,1.8-9.6,2.8-14.6,2.9c-5.8,0.2-11.4-0.1-16.8-1.8c-2.3-0.7-4.3-1.8-5.9-3.5c-0.2-0.2-0.3-0.4-0.5-0.6
			c-0.7-0.8,0.2,0.4-0.3-0.4c-0.3-0.5-0.7-1.1-0.9-1.6c0.1,0.1,0.2,0.6-0.1-0.1c-0.1-0.3-0.2-0.6-0.3-0.9c-0.1-0.3-0.2-0.6-0.2-0.9
			c0.1,0.7,0-0.4,0-0.5c-0.1-2-1.7-3.8-3.8-3.8c-2,0.1-3.8,1.6-3.8,3.8c0.2,5.9,3.9,11,8.9,13.8c5.3,2.9,11.6,3.6,17.5,4
			c11.8,0.7,23.8-1.7,33.2-9.1c4.3-3.4,8.4-8,9.9-13.4c1.2-4.3,0.1-8.8-1.2-13c-1.2-4-2.8-8.3-5.7-11.4c-2.6-2.8-6.9-3.8-10.5-4.5
			c-5.1-0.9-10.3-1.1-15.5-0.7c-4.8,0.4-9.5,1.1-13.9,3.1c-1.8,0.8-2.3,3.5-1.3,5.1C351.5,285.9,353.7,286.2,355.6,285.3
			L355.6,285.3z"/>
	</g>
</g>
<g>
	<g>
		<path class="st0" d="M325.3,310.5c-2,2-3.2,2.9-5.6,4.4c-1,0.6-2,1.1-3,1.6c-0.5,0.3-1,0.5-1.5,0.7c-0.1,0.1-0.9,0.4-0.3,0.1
			c-0.4,0.1-0.7,0.3-1.1,0.4c-2.3,0.9-4.6,1.6-7,2.1c-1.2,0.3-2.4,0.5-3.6,0.8c-0.6,0.1-1.2,0.2-1.7,0.3c-0.3,0.1-0.6,0.1-1,0.2
			c-0.1,0-1.4,0.2-0.8,0.1c-5.1,0.7-10.3,1-15.4,1.2c-5.8,0.2-10.9-0.1-16.3-1.8c-2.3-0.7-4.3-1.7-6.4-3.2c-0.1-0.1-0.7-0.6-0.3-0.2
			c-0.2-0.2-0.4-0.3-0.6-0.5c-0.5-0.4-0.9-0.8-1.4-1.3c-0.4-0.3-0.7-0.7-1-1.1c-0.2-0.3-0.5-0.6-0.7-0.8c-0.5-0.6,0.1,0.3-0.3-0.4
			c-0.6-0.9-1.2-1.8-1.7-2.8c-0.1-0.2-0.2-0.4-0.3-0.7c-0.5-1,0.2,0.6-0.2-0.4c-0.2-0.6-0.4-1.1-0.6-1.7c-0.2-0.6-0.3-1.2-0.4-1.7
			c0-0.1-0.1-0.7,0-0.1c0-0.2,0-0.5-0.1-0.7c0-0.6,0-1.2,0-1.8c0-0.2,0-0.5,0.1-0.7c-0.1,0.8,0.1-0.5,0.1-0.6c0.1-0.5,0.3-1,0.4-1.5
			c0.1-0.3,0.2-0.5,0.3-0.8c0.2-0.6-0.4,0.7,0.1-0.2c0.5-1,1.1-2,1.8-2.9c-0.4,0.6,0.5-0.5,0.6-0.7c0.3-0.4,0.7-0.7,1.1-1.1
			c0.4-0.4,0.9-0.8,1.3-1.1c-0.1,0.1-0.5,0.4,0.1-0.1c0.3-0.2,0.6-0.4,0.9-0.6c0.9-0.6,1.9-1.2,2.9-1.7c0.5-0.2,1-0.5,1.5-0.7
			c0.2-0.1,0.4-0.2,0.7-0.3c-0.6,0.3,0.5-0.2,0.6-0.2c2.3-0.9,4.7-1.5,7.1-2c13.1-2.6,27.1-0.6,40.2,1.5c1.9,0.3,4.1-0.5,4.6-2.6
			c0.4-1.8-0.5-4.3-2.6-4.6c-13.5-2.2-27.2-4-40.9-2c-10.7,1.6-22.5,6.2-26.9,16.9c-4.4,10.8,2.5,22.7,11.9,28.1
			c10.7,6.1,24.2,5.2,36,4c12.6-1.2,25.5-4.2,34.8-13.4c1.4-1.4,1.4-3.9,0-5.3C329.2,309,326.8,309,325.3,310.5L325.3,310.5z"/>
	</g>
</g>
<g>
	<g>
		<path class="st0" d="M365.4,235.7c2.5,12.3,3.7,24.8,3.5,37.4c0,2,1.7,3.8,3.8,3.8c2.1-0.1,3.7-1.6,3.8-3.8
			c0.2-13.2-1.1-26.5-3.8-39.4c-0.4-2-2.8-3.1-4.6-2.6C365.9,231.6,365,233.7,365.4,235.7L365.4,235.7z"/>
	</g>
</g>
<g>
	<g>
		<path class="st0" d="M253.3,413.8c5-13,10-26.1,15-39.1c-2.3,0.3-4.6,0.6-6.9,0.9c5.6,9.9,7.6,22,5.4,33c-0.4,1.9,0.5,4.1,2.6,4.6
			c1.9,0.4,4.2-0.6,4.6-2.6c2.6-13.2,0.5-27-6.2-38.8c-0.7-1.3-2.3-2-3.7-1.8c-1.6,0.2-2.6,1.3-3.1,2.7c-5,13-10,26.1-15,39.1
			c-0.7,1.8,0.8,4.2,2.6,4.6C250.8,416.9,252.5,415.8,253.3,413.8L253.3,413.8z"/>
	</g>
</g>
<g>
	<g>
		<path class="st0" d="M329.3,403.6c3.3-5.8,6.2-11.7,9.2-17.7c2.1-4.3,4.2-8.6,7-12.5c-2.2,0-4.3,0-6.5,0c1.2,2.9,2.3,6.9,2.7,9.7
			c0.2,1.9,0.3,3.7,0.3,5.6c0,0.9-0.1,1.7-0.1,2.6c0,0.4-0.1,0.9-0.1,1.3c0,0.3-0.1,0.6-0.1,0.9c0-0.2,0-0.2,0,0.1
			c-1,7.3-3.6,13.8-7.2,20.1c-1,1.8-0.4,4.1,1.3,5.1c1.7,1,4.1,0.4,5.1-1.3c4-7.2,7-14.9,8.1-23.1c1.1-8.5-0.1-16.9-3.5-24.7
			c-0.5-1.2-2-1.9-3.2-1.9c-1.4,0-2.4,0.8-3.2,1.9c-2.8,3.8-4.9,8.2-7,12.5c-3,5.9-5.9,11.9-9.2,17.7c-1,1.8-0.4,4.1,1.3,5.1
			C325.9,406,328.3,405.4,329.3,403.6L329.3,403.6z"/>
	</g>
</g>
<g>
	<g>
		<path class="st0" d="M280,411.9c0.3-1.2,0.6-2.3,1-3.5c0.2-0.6,0.4-1.2,0.6-1.8c0.1-0.4,0.3-0.7,0.4-1.1c0.1-0.2,0.1-0.2-0.1,0.1
			c0.1-0.2,0.2-0.4,0.3-0.6c0.6-1.3,1.3-2.6,2.1-3.8c0.1-0.1,0.7-1,0.5-0.7c-0.3,0.3,0.4-0.5,0.5-0.6c0.2-0.2,0.4-0.4,0.6-0.7
			c0.1-0.1,0.9-0.8,0.5-0.5c-0.4,0.3,0.5-0.3,0.6-0.3c0.6-0.4-0.4,0,0.4-0.2c0.3-0.1,0.6-0.2,0.9-0.2c-0.9,0.1,0.4,0.1,0.6,0.1
			c-0.7,0-0.2,0,0.2,0.1c0.3,0.1,0.8,0.4,0.3,0.1c0.4,0.2,0.7,0.4,1.1,0.6c0.6,0.4-0.3-0.4,0.3,0.2c0.2,0.2,0.5,0.5,0.7,0.7
			c0.2,0.2,0.3,0.3,0.5,0.5c-0.2-0.3-0.2-0.3,0.1,0.1c0.4,0.6,0.8,1.2,1.1,1.9c0.2,0.4,0.2,0.4,0.1,0.1c0.1,0.2,0.1,0.3,0.2,0.5
			c0.1,0.4,0.3,0.8,0.4,1.2c0.1,0.4,0.2,0.7,0.2,1.1c-0.1-0.6-0.1-0.4,0.1,0.7c0.1,0.3,0.2,0.6,0.4,0.9c1.4,2.2,5.2,2.6,6.5,0
			c1-2.1,0.7-4.2-0.2-6.3c0,1.3,0,2.5,0,3.8c1.5-2.7,3.1-5.8,4.9-7.8c0.5-0.6,1.1-1.3,1.7-1.8c0.7-0.7,0.7-0.7,1.4-1.2
			c0.6-0.4,1.2-0.8,1.9-1.1c0.2-0.1,0.2-0.1,0,0c0.2-0.1,0.4-0.1,0.6-0.2c0.4-0.1,0.7-0.2,1.1-0.3c0.3-0.1,0.6-0.2,1-0.2
			c-0.7,0.1,0.4,0,0.5,0c0.4,0,0.8,0,1.2,0c-0.7-0.1,0.5,0.1,0.5,0.1c0.2,0,1.1,0.4,0.4,0.1c0.3,0.1,0.6,0.3,0.9,0.5
			c0.1,0,0.8,0.6,0.4,0.3c-0.3-0.3,0.4,0.4,0.5,0.5c0.2,0.2,0.4,0.4,0.5,0.6c-0.5-0.6,0.1,0.2,0.2,0.3c0.2,0.3,0.3,0.6,0.4,0.9
			c-0.3-0.8,0,0.2,0.1,0.3c0.1,0.2,0.1,1.1,0.1,0.3c0,0.3,0,0.6,0,0.9c0,0.6,0.2-0.1,0,0.1c-0.2,0.2-0.2,0.8-0.4,1.1
			c-0.8,1.8,0.8,4.2,2.6,4.6c2.2,0.5,3.8-0.7,4.6-2.6c1.7-4,0.1-8.7-2.7-11.7c-3.3-3.5-8.2-4.4-12.7-3.3c-4.6,1.1-8.3,4.2-11.2,7.9
			c-1.4,1.8-2.6,3.7-3.7,5.7c-0.7,1.2-1.7,2.7-1.7,4.1c0,0.7,0.2,1.3,0.5,1.9c-0.1-0.2-0.2-0.4-0.2-0.6c0,0.2,0,0.4,0,0.6
			c0-0.5,0.1-0.9,0.4-1.3c2.2,0,4.3,0,6.5,0c0,0,0,0,0,0c0.2,0.6,0.3,1.3,0.5,1.9c-0.5-4.4-2.3-8.7-5.8-11.6
			c-3.6-2.9-8.2-3.7-12.3-1.4c-3.2,1.8-5.4,5.1-7,8.3c-1.5,3-2.7,6.2-3.4,9.5c-0.4,1.9,0.6,4.1,2.6,4.6
			C277.3,414.9,279.6,413.9,280,411.9L280,411.9z"/>
	</g>
</g>
<g>
	<g>
		<path class="st0" d="M254.1,312.1c-10-4.3-20.8-2.1-30.1,3c-9.4,5.2-17.7,13.3-22.9,22.7c-2.8,5.1-4.8,10.7-5.2,16.5
			c-0.1,2,1.8,3.8,3.8,3.8c2.2-0.1,3.6-1.6,3.8-3.8c0-0.3,0.2-2,0.1-1c0.1-0.5,0.1-0.9,0.2-1.4c0.2-1.1,0.5-2.3,0.9-3.4
			c0.3-1.1,0.7-2.1,1.1-3.1c0.3-0.7,0-0.1,0,0.1c0.1-0.3,0.2-0.6,0.4-0.8c0.3-0.6,0.5-1.1,0.8-1.7c1.1-2.2,2.4-4.3,3.8-6.3
			c0.3-0.4,0.6-0.9,1-1.3c-0.5,0.7,0.2-0.2,0.2-0.3c0.2-0.3,0.4-0.5,0.6-0.8c0.8-0.9,1.6-1.8,2.4-2.7c1.7-1.8,3.6-3.6,5.6-5.2
			c0.2-0.2,0.4-0.3,0.6-0.5c0.1-0.1,0.7-0.6,0.2-0.1c0.5-0.4,1-0.7,1.5-1.1c1-0.7,2.1-1.4,3.1-2.1c1-0.6,2-1.2,3.1-1.7
			c0.5-0.2,0.9-0.5,1.4-0.7c0.3-0.1,0.6-0.3,0.9-0.4c0.2-0.1,0.4-0.2,0.6-0.3c-0.4,0.2-0.4,0.2,0,0c2.1-0.8,4.2-1.5,6.4-1.9
			c0.3-0.1,0.6-0.1,0.9-0.2c0.1,0,1.2-0.2,0.7-0.1c-0.6,0.1,0.3,0,0.4,0c0.4,0,0.8-0.1,1.2-0.1c1.1-0.1,2.3-0.1,3.4,0
			c0.3,0,0.6,0,0.8,0.1c0.2,0,0.4,0,0.6,0.1c-0.5-0.1-0.6-0.1-0.2,0c0.6,0.1,1.1,0.2,1.6,0.3c0.5,0.1,1.1,0.3,1.6,0.4
			c0.3,0.1,0.5,0.2,0.8,0.3c0.2,0.1,1.3,0.5,0.4,0.1c1.9,0.8,4,0.6,5.1-1.3C256.4,315.7,256,312.9,254.1,312.1L254.1,312.1z"/>
	</g>
</g>
<g>
	<g>
		<path class="st0" d="M177.6,221.4c-0.1,6.6-0.3,13.1-0.6,19.7c-0.1,2.6,2.4,5.1,5,5c2.8-0.1,4.8-2.2,5-5
			c0.4-6.6,0.6-13.1,0.6-19.7c0-2.6-2.3-5.1-5-5C179.8,216.5,177.6,218.6,177.6,221.4L177.6,221.4z"/>
	</g>
</g>
<g>
	<g>
		<path class="st0" d="M357.2,217.5c-0.4,5.3-0.4,10.5,0.1,15.8c0.1,1.4,0.5,2.5,1.5,3.5c0.9,0.9,2.3,1.5,3.5,1.5
			c2.5-0.1,5.3-2.2,5-5c-0.5-5.2-0.5-10.5-0.1-15.8c0.1-1.2-0.6-2.7-1.5-3.5c-0.9-0.9-2.3-1.5-3.5-1.5c-1.3,0.1-2.6,0.5-3.5,1.5
			C357.8,215,357.3,216.1,357.2,217.5L357.2,217.5z"/>
	</g>
</g>
<g>
	<g>
		<path class="st0" d="M353,281.8c-8.7-2.1-17.8-2.6-26.7-2.5c-7.1,0.1-16.9,0-19.6,8.3c-1.3,4,0.3,8.3,3,11.4
			c2.7,3.1,6.8,4.6,10.8,5.2c4.4,0.7,8.8,1,13.2,1.2c4.3,0.2,9,0.4,13.1-1c4.5-1.5,8.4-5.1,9.1-9.9c0.6-4.5-2.1-9.6-6.8-10.6
			c-1.9-0.4-4.1,0.6-4.6,2.6c-0.4,1.9,0.6,4.2,2.6,4.6c0.2,0,1,0.4,0.3,0c0.2,0.1,0.8,0.7,0.3,0.1c0.1,0.1,0.7,0.9,0.3,0.2
			c0.2,0.2,0.3,0.5,0.4,0.7c0.3,0.5-0.1-0.8,0.1,0.2c0,0.1,0.2,1.2,0.1,0.3c0,0.3,0,0.7,0,1c0.1-0.9-0.1,0.3-0.2,0.5
			c-0.2,0.6,0.4-0.6-0.1,0.3c0,0-0.7,1-0.2,0.4c-0.2,0.3-0.5,0.6-0.7,0.8c0,0-0.9,0.8-0.4,0.4c-0.5,0.4-1,0.7-1.6,0.9
			c-0.9,0.4,0.5-0.1-0.6,0.2c-0.5,0.1-1,0.3-1.5,0.4c-1.3,0.3-2.8,0.4-4.5,0.4c-1.9,0-3.8,0-5.7-0.1c-1.8-0.1-3.6-0.2-5.3-0.3
			c-1.6-0.1-3.8-0.3-4.8-0.5c-1.5-0.2-2.9-0.6-4.4-1c-0.3-0.1-0.7-0.2-1.3-0.6c-0.4-0.2-0.7-0.4-1-0.6c-0.4-0.3-0.4-0.3-0.1-0.1
			c-0.2-0.2-0.3-0.3-0.5-0.5c-0.2-0.2-0.4-0.4-0.6-0.7c-0.4-0.5,0.3,0.7-0.1-0.2c-0.2-0.3-0.4-0.6-0.5-0.9c-0.5-0.9,0.1,0.6-0.2-0.4
			c-0.1-0.3-0.2-0.6-0.2-0.8c-0.1-0.6,0,0.8,0-0.2c0-0.3,0-0.7,0-1c-0.1,0.8,0.2-0.5,0.3-0.7c-0.3,0.6,0.1,0,0.2-0.2
			c0.4-0.5-0.6,0.6,0.1-0.1c0.2-0.2,0.4-0.4,0.7-0.7c-0.6,0.6,0.1-0.1,0.3-0.1c0.3-0.2,0.6-0.3,0.9-0.4c-0.2,0.1-0.7,0.2,0,0
			c0.8-0.2,1.5-0.4,2.3-0.6c0.1,0,1.2-0.2,0.4-0.1c0.2,0,0.5-0.1,0.7-0.1c0.7-0.1,1.3-0.1,2-0.1c1.9-0.1,3.7-0.1,5.6-0.1
			c8.2-0.1,16.1,0.4,24,2.2c1.9,0.4,4.2-0.6,4.6-2.6C356.1,284.5,355,282.3,353,281.8L353,281.8z"/>
	</g>
</g>
<g>
	<g>
		<path class="st0" d="M64.4,316.6c-7.9,6-16.4,10.1-25.9,12.5c-3,0.7-3.4,4.2-1.7,6.3c8.7,10.4,22.2,16.6,35.7,16.8
			c3.8,0.1,7.7-0.4,11.5-1.3c2-0.5,3.1-2.7,2.6-4.6c-0.6-2-2.6-3.1-4.6-2.6c-1,0.2-1.9,0.4-2.9,0.6c-0.2,0-0.5,0.1-0.7,0.1
			c0.4,0,0.4,0-0.1,0c-0.5,0.1-1,0.1-1.5,0.2c-2,0.2-3.9,0.2-5.9,0.1c-1-0.1-2-0.1-2.9-0.3c0.7,0.1-0.4-0.1-0.5-0.1
			c-0.5-0.1-1-0.2-1.5-0.3c-1.9-0.4-3.9-0.9-5.7-1.5c-2.2-0.7-3-1.1-4.9-2c-1.7-0.8-3.3-1.8-4.8-2.8c-1.8-1.2-2.6-1.8-4.2-3.3
			c-1.5-1.3-2.8-2.8-4.1-4.3c-0.6,2.1-1.1,4.2-1.7,6.3c10-2.4,19.5-6.9,27.7-13.2c1.6-1.2,2.5-3.2,1.3-5.1
			C68.6,316.4,66,315.3,64.4,316.6L64.4,316.6z"/>
	</g>
</g>
<g>
	<g>
		<path class="st0" d="M81,351.9c-6.2,7.6-13.5,13.4-22.3,17.7c-2.7,1.3-2.2,5,0,6.5c12.7,8.4,27.8,13,43,13.5
			c4.2,0.1,8.5-0.1,12.7-0.7c1.9-0.3,3.8-1.5,3.8-3.8c-0.1-1.8-1.7-4-3.8-3.8c-3.6,0.5-7.2,0.7-10.8,0.7c-1.8,0-3.5-0.1-5.3-0.2
			c-0.9-0.1-1.8-0.2-2.7-0.3c-1.1-0.1-1.3-0.1-2.1-0.3c-3.6-0.5-7.1-1.3-10.5-2.3c-3.3-1-6.8-2.2-9.6-3.5c-3.7-1.7-7.3-3.7-10.8-5.9
			c0,2.2,0,4.3,0,6.5c9.2-4.4,17.4-10.9,23.8-18.8c1.3-1.6,1.5-3.8,0-5.3C85,350.6,82.3,350.4,81,351.9L81,351.9z"/>
	</g>
</g>
<g>
	<g>
		<path class="st0" d="M118.6,385.8c-7.4,5.5-14.5,11.3-21.5,17.5c-1,0.9-1.3,2.4-1,3.6c0.4,1.4,1.4,2.1,2.6,2.6
			c6.6,2.7,13.5,4.3,20.7,5.1c2,0.2,3.8-1.9,3.8-3.8c-0.1-2.2-1.7-3.5-3.8-3.8c-2.8-0.3-6-0.9-9.2-1.7c-3.2-0.8-6.4-1.9-9.5-3.1
			c0.6,2.1,1.1,4.2,1.7,6.3c6.5-5.7,13.3-11.3,19.9-16.3c1.6-1.2,2.5-3.3,1.3-5.1C122.7,385.6,120.3,384.6,118.6,385.8L118.6,385.8z
			"/>
	</g>
</g>
<g>
	<g>
		<path class="st0" d="M63.4,215.4c-14.5,9.1-31.3,13.3-48.4,12c-2.6-0.2-4,2.5-3.6,4.7c1.2,7.2,6.8,12.5,12.9,15.9
			c7,4,15,6.4,22.8,8.5c4.9,1.3,9.9,2.4,14.9,3.3c1.9,0.3,4.1-0.5,4.6-2.6c0.4-1.8-0.6-4.2-2.6-4.6c-8.4-1.5-16.7-3.6-24.7-6.3
			c-1.8-0.6-3.5-1.2-5.3-1.9c-0.4-0.2-0.8-0.3-1.1-0.5c0.6,0.2-0.2-0.1-0.4-0.2c-0.8-0.3-1.5-0.7-2.3-1.1c-1.4-0.7-2.8-1.5-4.2-2.4
			c-0.3-0.2-0.6-0.4-0.9-0.6c-0.1-0.1-0.8-0.6-0.6-0.4c0.3,0.3-0.2-0.2-0.3-0.2c-0.1-0.1-0.3-0.2-0.4-0.3c-0.3-0.3-0.6-0.5-0.9-0.8
			c-0.6-0.6-1.2-1.2-1.7-1.9c0,0-0.4-0.5-0.1-0.1c0.3,0.4-0.2-0.4-0.3-0.4c-0.2-0.3-0.4-0.6-0.6-1c-0.2-0.4-0.4-0.8-0.6-1.2
			c-0.2-0.4,0,0.1,0,0.1c-0.1-0.2-0.2-0.4-0.2-0.6c-0.3-0.9-0.5-1.7-0.7-2.6c-1.2,1.6-2.4,3.2-3.6,4.7c18.2,1.4,36.8-3.3,52.2-13
			c1.7-1.1,2.4-3.3,1.3-5.1C67.5,215,65.1,214.3,63.4,215.4L63.4,215.4z"/>
	</g>
</g>
<g>
	<g>
		<path class="st0" d="M46.5,264.1c-8.4,2.4-16.8,3.4-25.6,3.2c-2.9-0.1-4.5,3.2-3.2,5.6c7,13.1,21.2,21.8,36,22.1
			c2,0,3.8-1.8,3.8-3.8c-0.1-2.1-1.6-3.7-3.8-3.8c-0.9,0-1.7-0.1-2.6-0.1c-0.4,0-0.7-0.1-1.1-0.1c0.7,0.1-0.4-0.1-0.5-0.1
			c-1.6-0.3-3.2-0.6-4.7-1.1c-0.8-0.2-1.5-0.5-2.3-0.8c-0.4-0.2-0.8-0.3-1.2-0.5c0.6,0.2-0.4-0.2-0.5-0.2c-1.5-0.7-2.9-1.4-4.3-2.3
			c-2.8-1.7-4.7-3.2-7.1-5.8c-0.5-0.5-1-1.1-1.5-1.7c-0.2-0.3-0.5-0.6-0.7-0.9c0.4,0.4-0.5-0.6-0.5-0.7c-1-1.3-1.8-2.7-2.6-4.2
			c-1.1,1.9-2.2,3.8-3.2,5.6c9.3,0.3,18.6-0.9,27.6-3.4c1.9-0.6,3.2-2.6,2.6-4.6C50.6,264.8,48.4,263.5,46.5,264.1L46.5,264.1z"/>
	</g>
</g>
<g>
	<g>
		<path class="st0" d="M491.2,145c4.6-7.9,9.2-15.8,13.9-23.7c1-1.7,0.4-4.2-1.3-5.1c-1.8-0.9-4.1-0.5-5.1,1.3
			c-4.6,7.9-9.2,15.8-13.9,23.7c-1,1.7-0.4,4.2,1.3,5.1C487.8,147.3,490.1,146.8,491.2,145L491.2,145z"/>
	</g>
</g>
<g>
	<g>
		<path class="st0" d="M510.2,168.9c4-5.2,9-10.7,14.1-15.3c5.2-4.8,10.5-8.7,16.6-12.5c1.7-1.1,2.4-3.3,1.3-5.1
			c-1-1.7-3.4-2.4-5.1-1.3c-12.9,8-24.1,18.4-33.4,30.5c-1.2,1.6-0.3,4.2,1.3,5.1C507,171.4,509,170.6,510.2,168.9L510.2,168.9z"/>
	</g>
</g>
<g>
	<g>
		<path class="st0" d="M102.2,52.3c1.6,4.7,3.1,9.5,4.7,14.2c0.6,1.9,2.6,3.3,4.6,2.6c1.9-0.6,3.3-2.6,2.6-4.6
			c-1.6-4.7-3.1-9.5-4.7-14.2c-0.6-1.9-2.6-3.3-4.6-2.6C103,48.3,101.6,50.3,102.2,52.3L102.2,52.3z"/>
	</g>
</g>
<g>
	<g>
		<path class="st0" d="M129.5,15.6c2.9,14.2,5.8,28.5,8.7,42.7c0.4,2,2.8,3.1,4.6,2.6c2.1-0.6,3-2.6,2.6-4.6
			c-2.9-14.2-5.8-28.5-8.7-42.7c-0.4-2-2.8-3.1-4.6-2.6C130.1,11.5,129.1,13.6,129.5,15.6L129.5,15.6z"/>
	</g>
</g>
<g>
	<g>
		<path class="st0" d="M91.4,301.2c8-2.3,16.1-4.1,24.3-5.4c1-0.2,2-0.3,3.1-0.5c0.5-0.1,0.9-0.1,1.4-0.2c0.2,0,0.5-0.1,0.7-0.1
			c0.4-0.1,0.6-0.1,0.1,0c2.1-0.3,4.1-0.5,6.2-0.7c4.2-0.4,8.4-0.7,12.6-0.9c4.7-0.2,9.4-0.2,14.1-0.1c-1.6-1.2-3.2-2.4-4.8-3.7
			c0.1,0.2,0.4,1.3,0.2,0.4c-0.2-1.1-0.1,0.6,0-0.5c0.1-0.7,0-0.4,0-0.2c0,0,0.5-1.2,0.2-0.5c-0.1,0.1-0.4,0.6,0.1-0.1
			c0.5-0.6,0.1-0.2,0-0.1c-0.1,0.1-0.2,0.2-0.3,0.3c-0.2,0.2-0.1,0.1,0.2-0.1c0.6-0.2,0.1-0.1-0.1,0.1c-0.1,0.1-0.3,0.2-0.4,0.3
			c-0.3,0.2-0.7,0.4-1,0.5c-0.5,0.3,0.4-0.2,0.4-0.2c-0.1,0-0.5,0.2-0.6,0.2c-0.4,0.1-0.9,0.3-1.3,0.4c-2.1,0.5-4.3,0.6-6.4,0.9
			c-2.4,0.3-4.7,0.6-7.1,1c-9.5,1.3-19,2.6-28.5,3.8c-5.4,0.7-10.8,1.5-16.2,2.2c-2.5,0.3-3.9,3.3-3.6,5.5c0.3,2.5,2.4,4.2,4.9,4.3
			c18,1.1,36.3-0.7,53.8-5.2c2.5-0.6,4.3-3.6,3.5-6.2c-0.8-2.6-3.4-4.2-6.2-3.5c-4.2,1.1-8.4,2-12.7,2.7c-1.1,0.2-2.2,0.4-3.3,0.5
			c-0.6,0.1-1.1,0.2-1.7,0.2c-0.2,0-1.8,0.3-0.8,0.1c-2.1,0.3-4.3,0.5-6.5,0.7c-8.7,0.8-17.5,1-26.2,0.4c0.4,3.3,0.9,6.5,1.3,9.8
			c10.3-1.4,20.6-2.8,31-4.2c5.1-0.7,10.2-1.4,15.2-2.1c2.6-0.4,5.2-0.7,7.9-1.1c2-0.3,4.1-0.5,6-1.2c2.3-0.9,4.7-2,6.3-4
			c1.9-2.3,3-5.5,1.8-8.4c-0.9-2.1-2.4-3.6-4.8-3.7c-17.2-0.4-34.4,1.3-51.2,4.9c-4.7,1-9.3,2.2-13.9,3.5c-2.5,0.7-4.3,3.6-3.5,6.2
			C86.1,300.3,88.7,302,91.4,301.2L91.4,301.2z"/>
	</g>
</g>
<g>
	<g>
		<path class="st0" d="M207.5,81.9c1.8,20.9,9.8,40.7,22.8,57.2c3.5,4.4,7.3,8.5,11.4,12.2c3.3,3,8.2,0.8,8.5-3.5
			c1.4-19-1.8-38-11.2-54.7c-2.8-4.9-6-9.5-9.5-14c-1.4-1.7-4.3-1.8-6.1-0.8c-1.4,0.9-3,1.6-4.2,2.8c-1.5,1.5-2.3,3.7-2.1,5.8
			c0.3,2.4,1.2,4.6,1.9,6.9c0.7,2.1,1.4,4.3,2.1,6.4c2.9,8.9,5.9,17.7,8.8,26.6c1.7,5,3.3,10,5,14.9c3-1.3,6.1-2.6,9.1-3.9
			c-7-16-16.2-31.2-26.4-45.3c-2.9-4.1-6-8.1-9.2-11.9c-1.7-2-5.4-1.9-7.1,0c-2,2.2-1.8,4.9,0,7.1c0.6,0.7,1.2,1.5,1.8,2.2
			c0.3,0.4,0.6,0.7,0.8,1.1c0.2,0.2,0.3,0.4,0.5,0.6c0.1,0.1,0.8,1,0.3,0.4c-0.4-0.5,0.1,0.2,0.2,0.3c0.1,0.2,0.2,0.3,0.4,0.5
			c0.3,0.4,0.7,0.9,1,1.3c0.7,0.9,1.3,1.8,2,2.6c2.6,3.5,5,7.1,7.4,10.7c4.9,7.4,9.4,15,13.5,22.8c2.2,4.1,4.2,8.3,6.1,12.6
			c1,2.3,4.2,2.9,6.2,2c2.2-0.9,3.7-3.5,2.9-5.9c-5.4-16.4-10.9-32.7-16.3-49.1c-0.4-1.1-0.8-2.3-1.1-3.4c0-0.2-0.1-0.3-0.1-0.5
			c-0.2-0.6,0.1,1,0,0.5c-0.1-1-0.2,0.9-0.1,0.3c0-0.1-0.5,1.2-0.3,0.7c0.3-0.5-0.7,1-0.4,0.5c0.1-0.1,0.2-0.2,0.3-0.2
			c-0.1,0.1-1,0.7-0.4,0.3c0.8-0.4,1.5-0.9,2.2-1.3c-2-0.3-4-0.5-6.1-0.8c0.2,0.2,1.2,1.5,0.5,0.6c0.3,0.4,0.7,0.9,1,1.3
			c0.7,1,1.4,2,2.1,3c1.3,1.9,2.5,3.8,3.6,5.8c1.1,1.9,2.1,3.8,3,5.7c0.5,1,0.9,2,1.4,3c0.1,0.2,0.4,0.9-0.1-0.1
			c0.1,0.2,0.2,0.5,0.3,0.7c0.2,0.5,0.4,1.1,0.6,1.6c1.5,4,2.7,8.1,3.6,12.3c0.2,1,0.4,2,0.6,3c0.1,0.5,0.2,1,0.3,1.5
			c0.1,0.5,0.4,1.4,0.3,1.9c0-0.1-0.1-1.2,0-0.2c0,0.3,0.1,0.5,0.1,0.8c0.1,0.5,0.1,1,0.2,1.6c0.1,1.2,0.2,2.4,0.3,3.5
			c0.3,5.2,0.3,10.4-0.1,15.6c2.8-1.2,5.7-2.4,8.5-3.5c-3.6-3.2-6.9-6.6-9.9-10.3c-0.4-0.5-0.8-0.9-1.1-1.4
			c-0.2-0.3-0.4-0.5-0.6-0.8c0.1,0.1,0.6,0.8,0,0.1c-0.7-1-1.4-1.9-2.1-2.9c-1.4-2-2.7-4-3.9-6c-2.5-4.1-4.7-8.4-6.6-12.8
			c0.4,1,0.1,0.3,0,0.1c-0.1-0.3-0.3-0.6-0.4-0.9c-0.2-0.6-0.4-1.1-0.7-1.7c-0.4-1.1-0.8-2.3-1.2-3.4c-0.8-2.3-1.5-4.6-2.1-6.9
			c-0.7-2.6-1.3-5.2-1.7-7.8c-0.1-0.7-0.2-1.5-0.4-2.2c0-0.3-0.1-0.5-0.1-0.8c0-0.2-0.1-0.4-0.1-0.6c0.1,0.6,0.1,0.7,0,0.3
			c-0.2-1.4-0.3-2.8-0.5-4.2c-0.2-2.6-2.1-5.1-5-5C210,77,207.3,79.1,207.5,81.9L207.5,81.9z"/>
	</g>
</g>
<g>
	<g>
		<path class="st0" d="M136.9,96.7c6.8,14.8,14.2,30.4,27.4,40.6c1.6,1.3,3.4,1.9,5.5,1c1.7-0.7,3.2-2.6,3.1-4.6
			c-1-16.7-4.4-33.2-10.3-48.9c-0.7-1.9-2-3.3-4.2-3.6c-1.9-0.3-4.1,0.6-5,2.4c-6.1,11.7-6.3,25.5-1,37.5c2.9-1.7,5.8-3.4,8.6-5
			c-6.4-9.5-12.8-19.1-19.2-28.6c-1.5-2.2-4.5-3.3-6.8-1.8c-2.2,1.4-3.4,4.5-1.8,6.8c6.4,9.5,12.8,19.1,19.2,28.6
			c1.5,2.2,4.5,3.3,6.8,1.8c2.5-1.6,2.9-4.3,1.8-6.8c-0.4-0.9,0.1,0.4-0.1-0.1c-0.1-0.3-0.3-0.6-0.4-1c-0.2-0.6-0.4-1.2-0.6-1.8
			c-0.4-1.3-0.7-2.5-1-3.8c-0.1-0.3-0.1-0.7-0.2-1c-0.1-0.5-0.1-0.8,0-0.1c-0.1-0.7-0.2-1.4-0.2-2.1c-0.1-1.3-0.1-2.6-0.1-3.9
			c0-0.6,0.1-1.2,0.1-1.9c0-0.3,0.1-0.7,0.1-1c0-0.3,0-1.2,0-0.1c0-1.3,0.5-2.7,0.8-3.9c0.3-1.3,0.7-2.5,1.2-3.8
			c0.1-0.3,0.3-0.6,0.4-1c0.3-0.7-0.5,1.1,0.1-0.1c0.3-0.6,0.6-1.2,0.9-1.9c-3-0.4-6.1-0.8-9.1-1.2c2.8,7.5,5.1,15.3,6.8,23.1
			c0.8,3.9,1.5,7.8,2.1,11.8c-0.2-1.1,0.1,0.5,0.1,0.5c0.1,0.5,0.1,0.9,0.2,1.4c0.1,1.1,0.2,2.2,0.3,3.3c0.2,2,0.3,4.1,0.5,6.1
			c2.8-1.2,5.7-2.4,8.5-3.5c-3.2-2.4-6-5.2-8.6-8.3c-0.3-0.3-0.5-0.6-0.8-0.9c-0.1-0.2-1.2-1.5-0.5-0.6c-0.6-0.7-1.1-1.5-1.7-2.3
			c-1.2-1.6-2.3-3.3-3.3-5.1c-4.2-6.9-7.7-14.2-11-21.5c-1.1-2.4-4.7-3.2-6.8-1.8C136.2,91.4,135.7,94.2,136.9,96.7L136.9,96.7z"/>
	</g>
</g>
<g>
	<g>
		<path class="st0" d="M270.3,96c0.2,17.5,0.7,35.3,7.7,51.6c0.8,1.8,3.2,2.6,5,2.4c2-0.3,3.6-1.7,4.2-3.6c5-16.5,4.4-34.8-1.9-50.9
			c-0.9-2.3-2.9-3.9-5.5-3.6c-2.4,0.3-4.4,2.4-4.3,4.9c0.2,9.2,0.4,18.3,0.5,27.5c0.1,2.6,2.3,5.1,5,5c2.7-0.1,5.1-2.2,5-5
			c-0.2-9.2-0.4-18.3-0.5-27.5c-3.3,0.4-6.5,0.9-9.8,1.3c1.5,3.8,2.6,7.6,3.4,11.5c0.2,1,0.4,2,0.6,3.1c0.1,0.4,0.1,0.9,0.2,1.3
			c0.1,0.6,0.1,0.6,0,0c0,0.2,0.1,0.4,0.1,0.7c0.2,2,0.4,4,0.5,6c0.2,4,0,8-0.5,12.1c-0.1,1.1,0.1-0.8-0.1,0.4
			c-0.1,0.4-0.1,0.9-0.2,1.3c-0.2,1-0.4,2.1-0.6,3.1c-0.4,2-1,4.1-1.6,6.1c3-0.4,6.1-0.8,9.1-1.2c-0.2-0.5-0.2-0.5,0,0
			c-0.1-0.3-0.2-0.6-0.3-0.8c-0.2-0.4-0.3-0.8-0.5-1.3c-0.4-1-0.7-2-1-2.9c-0.6-1.8-1.1-3.7-1.6-5.6c-0.5-2-0.9-4.1-1.2-6.1
			c-0.1-0.4-0.1-0.9-0.2-1.3c0-0.2-0.3-2.1-0.1-0.9c-0.1-1-0.2-1.9-0.3-2.9c-0.9-8.2-1-16.4-1-24.6c0-2.6-2.3-5.1-5-5
			C272.6,91.2,270.3,93.2,270.3,96L270.3,96z"/>
	</g>
</g>
<g>
	<g>
		<path class="st0" d="M144,89.9c1.1,5.5,2.6,10.9,4.3,16.2c1.8,5.4,3.7,10.9,6.7,15.8c1,1.7,3.4,2.4,5.1,1.3c1.7-1,2.4-3.4,1.3-5.1
			c-0.6-1-1.2-2-1.7-3.1c-0.3-0.6-0.6-1.2-0.8-1.8c-0.1-0.3-0.3-0.6-0.4-0.9c0.3,0.6-0.1-0.2-0.2-0.4c-1.1-2.7-2.1-5.5-3-8.2
			c-1.7-5.2-3.2-10.5-4.2-15.8c-0.4-2-2.8-3.1-4.6-2.6C144.6,85.8,143.6,87.9,144,89.9L144,89.9z"/>
	</g>
</g>
<g>
	<g>
		<path class="st0" d="M129.8,362.3c5.5-3.9,11.3-7.3,17.3-10.2c0.8-0.4,1.6-0.7,2.4-1.1c0.3-0.1,0.5-0.2,0.8-0.4
			c0.1-0.1,1.5-0.6,0.4-0.2c1.6-0.7,3.2-1.3,4.9-1.9c3.1-1.1,6.3-2.2,9.6-3c0.7-0.2,1.4-0.4,2.1-0.5c0.4-0.1,0.8-0.2,1.1-0.3
			c1-0.3-1.2,0-0.2,0c0.3,0,1.2,0.1,1.5,0c-0.6,0.2-1-0.2-0.2,0c0.2,0,0.4,0.1,0.5,0.1c0.5,0.2,0.4,0.1-0.4-0.2
			c0.1,0.1,0.9,0.6,0.1,0c-0.1-0.1-0.2-0.2-0.3-0.2c0.4,0.4,0.3,0.2-0.3-0.5c0,0.1,0.1,0.1,0.1,0.2c-0.3-0.5-0.4-1.1-0.4-1.7
			c0,0.8,0.2-0.9,0.4-1.1c0.6-0.9,0.4-0.4,0.2-0.2c1.1-0.8,0.1-0.1-0.1,0.1c-0.9,0.5-1.8,0.9-2.7,1.4c-6.7,3.3-13.4,6.5-20.1,9.8
			c-7.8,3.8-15.5,7.6-23.3,11.4c-2.4,1.2-3.2,4.7-1.8,6.8c1.6,2.5,4.3,2.9,6.8,1.8c14.4-6.2,28.9-12.5,43.3-18.7
			c1.9-0.8,2.9-3.7,2.3-5.6c-0.7-2.1-2.5-3.6-4.8-3.7c-17-0.2-34,2.2-50.3,7.1c-4.5,1.4-9,2.9-13.4,4.7c-2.4,1-4.4,3.4-3.5,6.2
			c0.8,2.4,3.5,4.5,6.2,3.5c7.7-3,15.6-5.5,23.6-7.3c4-0.9,8.1-1.7,12.1-2.3c0.5-0.1,0.9-0.1,1.4-0.2c0.2,0,1.7-0.2,0.7-0.1
			c1-0.1,2-0.3,3-0.4c2.1-0.2,4.2-0.4,6.3-0.6c4.6-0.3,9.3-0.5,14-0.4c-0.8-3.1-1.7-6.2-2.5-9.3c-14.4,6.2-28.9,12.5-43.3,18.7
			c1.7,2.9,3.4,5.8,5,8.6c15.1-7.3,30.2-14.6,45.2-22c1.8-0.9,3.6-2.2,4.6-4.1c1.2-2.3,1.2-4.9,0-7.2c-1.8-3.3-6.1-4.5-9.6-4.4
			c-3.6,0.2-7.3,1.5-10.7,2.5c-3.8,1.2-7.5,2.6-11.2,4.2c-7.7,3.3-14.9,7.3-21.7,12.2c-2.1,1.5-3.3,4.4-1.8,6.8
			C124.3,362.6,127.5,363.9,129.8,362.3L129.8,362.3z"/>
	</g>
</g>
<g>
	<g>
		<path class="st0" d="M348.9,87.3c0,5.2,1.3,10.8,4.8,14.8c1.9,2.2,5.6,0.9,6.3-1.7c1.7-6.3,2.2-13,1.4-19.5
			c-0.2-1.9-1.6-3.8-3.8-3.8c-1.8,0.1-4,1.7-3.8,3.8c0.4,3.1,0.5,6.2,0.3,9.3c0,0.7-0.1,1.5-0.2,2.2c0,0.2-0.2,1.6-0.1,0.7
			c0,0.3-0.1,0.7-0.2,1c-0.2,1.5-0.6,2.9-1,4.4c2.1-0.6,4.2-1.1,6.3-1.7c-0.1-0.1-0.2-0.2-0.2-0.3c-0.1-0.2-0.1-0.1,0.1,0.1
			c0.2,0.3,0.2,0.3,0,0c0-0.1-0.1-0.1-0.1-0.2c-0.2-0.4-0.5-0.7-0.7-1.1c0,0-0.4-0.7-0.4-0.7c0,0,0.3,0.7,0.1,0.1
			c-0.2-0.5-0.4-1-0.5-1.5c-0.3-1-0.5-2-0.7-3.1c-0.1-0.6,0.1,0.9,0-0.1c0-0.3-0.1-0.5-0.1-0.8c0-0.6-0.1-1.2-0.1-1.8
			c0-2-1.7-3.8-3.8-3.8C350.7,83.7,348.9,85.2,348.9,87.3L348.9,87.3z"/>
	</g>
</g>
<g>
	<g>
		<path class="st0" d="M58.5,98.3c0.1,6.6,0.3,13.1,0.4,19.7c0,1.5,0.9,2.8,2.3,3.4c1.3,0.5,3.2,0.4,4.1-0.8
			c4.8-5.9,6.7-13.4,5.1-20.9c-0.4-1.9-2.8-3.2-4.6-2.6c-2,0.7-3,2.6-2.6,4.6c0.1,0.4,0.2,0.8,0.2,1.2c-0.2-0.9,0,0.1,0,0.2
			c0.1,0.7,0.1,1.5,0.1,2.2c0,0.3,0,0.6,0,0.9c0,0.2-0.2,1.5,0,0.6c-0.1,0.7-0.2,1.3-0.4,2c-0.2,0.7-0.3,1.3-0.6,1.9
			c-0.1,0.2-0.5,1.4-0.2,0.6c-0.1,0.3-0.3,0.6-0.4,0.8c-0.3,0.7-0.7,1.3-1.1,1.9c-0.2,0.3-0.3,0.5-0.5,0.8c-0.1,0.2-0.2,0.3-0.4,0.5
			c0.3-0.3,0.3-0.4,0,0c2.1,0.9,4.3,1.8,6.4,2.7c-0.1-6.6-0.3-13.1-0.4-19.7c0-2-1.7-3.8-3.7-3.8C60.2,94.7,58.5,96.2,58.5,98.3
			L58.5,98.3z"/>
	</g>
</g>
<g>
	<g>
		<path class="st0" d="M86.5,112.5c0,5.3,0,10.6,0,16c0,1.9,1.4,3.4,3.3,3.7c1.8,0.2,3.7-0.9,4.1-2.7c0.9-3.7,1.8-7.4,2.7-11.2
			c0.5-1.9-0.6-4.2-2.6-4.6c-1.9-0.4-4.1,0.6-4.6,2.6c-0.9,3.7-1.8,7.4-2.7,11.2c2.5,0.3,4.9,0.7,7.4,1c0-5.3,0-10.6,0-16
			c0-2-1.7-3.8-3.8-3.8C88.2,108.9,86.5,110.4,86.5,112.5L86.5,112.5z"/>
	</g>
</g>
<g>
	<g>
		<path class="st0" d="M93.9,287c-12.9-4.2-26.9-4.6-40.1-1.5c-1.9,0.5-3.3,2.3-3.6,4.2c-0.3,2.1,0.7,3.7,2.4,5
			c12.1,9.2,28.3,12.4,43,8.9c2.5-0.6,4.3-3.6,3.5-6.2c-0.9-2.7-3.4-4-6.2-3.5c-2,0.4-4,0.8-6,1.1c-1,0.2-2.1,0.3-3.1,0.5
			c-0.2,0-1.6,0.2-0.6,0.1c-0.5,0.1-1,0.1-1.5,0.2c-4,0.5-7.9,0.8-11.9,1c-2,0.1-4,0.2-5.9,0.2c-0.2,0-0.8-0.1-0.9-0.1
			c0.3-0.2,1.1,0.2,0.1,0c-0.2,0-1.9-0.4-1.9-0.6c0.6,0.3,0.8,0.3,0.4,0.2c-0.1-0.1-0.3-0.1-0.4-0.2c-0.3-0.1-0.6-0.3-0.8-0.5
			c-0.9-0.6-0.1-0.3,0,0.1c0-0.2-0.5-0.4-0.6-0.6c-0.7-0.6,0.6,0.9,0.2,0.2c-0.5-0.8,0.4,1.1,0.2,0.3c0.1,0.9,0.1,1.2,0.1,0.6
			c-0.2,0.9-0.2,1.1-0.1,0.7c0.1-0.4,0-0.2-0.3,0.6c0.1-0.2,0.2-0.3,0.3-0.5c1.5-2.2,0.5-5.6-1.8-6.8c-2.5-1.3-5.3-0.5-6.8,1.8
			c-1.3,2-1.6,4.4-0.9,6.7c0.7,2.2,2.3,3.9,4.2,5.2c3.4,2.4,7.6,2.9,11.6,2.8c9.8-0.3,19.6-1.4,29.2-3.3c-0.9-3.2-1.8-6.4-2.7-9.6
			c-0.8,0.2-1.7,0.4-2.6,0.5c-0.4,0.1-0.8,0.1-1.2,0.2c-0.4,0.1-0.3,0,0.3,0c-0.3,0-0.5,0.1-0.8,0.1c-1.6,0.2-3.2,0.3-4.8,0.3
			c-1.7,0-3.3-0.1-5-0.2c-0.1,0-1.5-0.2-0.7-0.1c0.7,0.1-0.8-0.1-0.9-0.1c-0.8-0.1-1.6-0.3-2.4-0.5c-1.6-0.3-3.1-0.8-4.7-1.3
			c-0.8-0.3-1.6-0.6-2.5-0.9c-0.1-0.1-1.3-0.6-0.7-0.3c0.6,0.3-0.7-0.3-0.9-0.4c-3-1.4-5.9-3.2-8.6-5.2c-0.4,3-0.8,6.1-1.2,9.1
			c1.5-0.4,3-0.7,4.5-0.9c0.8-0.1,1.5-0.2,2.3-0.4c-1.1,0.2,0.4,0,0.5,0c0.3,0,0.6-0.1,0.9-0.1c3.1-0.3,6.2-0.4,9.4-0.3
			c1.5,0.1,3,0.2,4.6,0.3c0.4,0,0.8,0.1,1.1,0.1c1,0.1-0.3-0.1,0.3,0c0.8,0.1,1.5,0.2,2.3,0.4c3.1,0.6,6.1,1.3,9.1,2.3
			c2.5,0.8,5.6-0.9,6.2-3.5C98.1,290.4,96.6,287.9,93.9,287L93.9,287z"/>
	</g>
</g>
<g>
	<g>
		<path class="st0" d="M80.9,361.8c20.5,2.6,41.4,1.2,61.3-3.8c-0.9-3.2-1.8-6.4-2.7-9.6c-17.4,4.6-34.8,9.2-52.2,13.8
			c-2.4,0.6-3.9,3.1-3.6,5.5c0.3,2.6,2.4,4.2,4.9,4.3c4.9,0.3,9.7,0.7,14.6,1c-0.4-3.3-0.9-6.5-1.3-9.8c-2.5,0.6-5.1,1.2-7.7,1.6
			c-0.3,0.1-0.6,0.1-0.9,0.1c-0.1,0-1,0.1-0.5,0.1c0.5-0.1-0.4,0.1-0.5,0.1c-0.3,0-0.6,0.1-0.9,0.1c-1.3,0.1-2.7,0.3-4,0.3
			c-5.2,0.3-10.4,0.1-15.6-0.5c-2.5-0.3-4.6,2.1-4.9,4.3c-0.3,2.2,1.1,5.1,3.6,5.5c18.7,2.8,37.7,3.5,56.6,2
			c-0.4-3.3-0.9-6.5-1.3-9.8c-2.1,0.4-4.2,0.7-6.2,1.1c-1,0.2-2.1,0.3-3.1,0.5c-0.6,0.1-1.1,0.2-1.7,0.2c0.9-0.1-0.4,0-0.6,0.1
			c-4.1,0.5-8.2,0.9-12.3,1.2c-8.3,0.6-16.7,0.7-25,0.4c-2.5-0.1-4.6,2-4.9,4.3c-0.3,2.6,1.2,4.6,3.6,5.5
			c13.3,5.1,29.3,1.1,39.1-9.1c1.8-1.9,2-5.2,0-7.1c-2-1.8-5.1-2-7.1,0c-0.5,0.5-1,1.1-1.6,1.6c-0.3,0.2-0.6,0.5-0.8,0.7
			c-0.4,0.3-0.8,0.7-0.1,0.1c-1.1,0.9-2.4,1.7-3.7,2.4c-0.6,0.4-1.3,0.7-2,1c-0.3,0.2-0.7,0.3-1,0.5c1.2-0.4,0.1-0.1-0.2,0
			c-1.4,0.5-2.9,1-4.4,1.3c-0.7,0.2-1.4,0.3-2.2,0.4c-0.2,0-0.4,0.1-0.5,0.1c0.7-0.1,0.8-0.1,0.4-0.1c-0.4,0-0.7,0.1-1.1,0.1
			c-1.5,0.1-2.9,0.1-4.4,0c-0.4,0-0.7,0-1.1-0.1c-0.2,0-1.4-0.2-0.6-0.1c0.8,0.1-0.4-0.1-0.6-0.1c-0.4-0.1-0.7-0.1-1.1-0.2
			c-1.5-0.3-3-0.8-4.4-1.3c-0.4,3.3-0.9,6.5-1.3,9.8c17.3,0.7,34.7-0.6,51.7-3.8c2.4-0.5,3.9-3.2,3.6-5.5c-0.3-2.3-2.4-4.5-4.9-4.3
			c-9.1,0.7-18.3,1-27.4,0.7c-4.6-0.1-9.1-0.4-13.7-0.8c-2.3-0.2-4.6-0.4-6.8-0.7c-1.1-0.1-2.1-0.3-3.2-0.4c-0.4,0-0.3,0,0.1,0
			c-0.3,0-0.6-0.1-1-0.1c-0.6-0.1-1.3-0.2-1.9-0.3c-0.4,3.3-0.9,6.5-1.3,9.8c11,1.3,22.1,0.5,32.8-2.2c2.4-0.6,3.9-3.1,3.6-5.5
			c-0.3-2.6-2.4-4.2-4.9-4.3c-4.9-0.3-9.7-0.7-14.6-1c0.4,3.3,0.9,6.5,1.3,9.8c17.4-4.6,34.8-9.2,52.2-13.8c2.5-0.7,4.3-3.6,3.5-6.2
			c-0.8-2.6-3.4-4.2-6.2-3.5c-10.2,2.6-18.6,3.9-28.8,4.5c-10,0.6-20,0.2-29.9-1c-2.6-0.3-5.1,2.5-5,5
			C76,359.8,78.1,361.4,80.9,361.8L80.9,361.8z"/>
	</g>
</g>
<g>
	<g>
		<path class="st0" d="M220,441.8c5.3-2.4,10.5-4.8,15.8-7.2c-1.8-0.7-3.7-1.5-5.5-2.2c0.3,0.8,0.6,1.6,0.7,2.4
			c0,0.2,0.1,0.5,0.1,0.7c-0.1-0.2-0.1-0.8,0-0.2c0,0.4,0.1,0.8,0.1,1.3c0,0.4,0,0.8,0,1.3c0,0.2-0.1,0.5-0.1,0.8
			c0-0.2,0.1-0.8,0-0.2c-0.2,0.9-0.4,1.7-0.6,2.6c-0.1,0.2-0.1,0.4-0.2,0.6c-0.2,0.7,0.2-0.5,0-0.1c-0.2,0.4-0.4,0.8-0.6,1.1
			c-0.2,0.4-0.4,0.7-0.6,1.1c-0.1,0.2-0.2,0.3-0.4,0.5c-0.4,0.6,0.4-0.4,0.1-0.1c-0.6,0.6-1.1,1.3-1.7,1.8c-0.1,0.1-0.3,0.4-0.5,0.4
			c0.2,0,0.6-0.4,0.1-0.1c-0.4,0.3-0.8,0.5-1.2,0.7c1.5,0.2,3,0.4,4.5,0.6c-0.2-0.2-0.3-0.3-0.5-0.5c-0.5-0.5,0.4,0.7,0,0
			c-0.1-0.2-0.2-0.4-0.4-0.6c-0.4-0.6,0.2,0.8,0,0c-0.1-0.4-0.2-0.8-0.3-1.3c-0.1-0.3,0,0.9,0,0c0-0.2,0-0.5,0-0.7
			c0-0.1,0.1-0.5,0-0.6c-0.1,0.6-0.1,0.7,0,0.3c0-0.1,0-0.2,0-0.2c0.1-0.2,0.1-0.5,0.2-0.7c0-0.1,0.1-0.2,0.1-0.3
			c0.1-0.3,0-0.2-0.2,0.3c0,0,0.7-1.2,0.7-1.2c0.1,0.1-0.6,0.7-0.1,0.1c0.2-0.2,0.4-0.4,0.6-0.6c1.5-1.3,1.4-4,0-5.3
			c-1.6-1.5-3.7-1.3-5.3,0c-4.8,4-4.8,12.3-0.3,16.5c1.2,1.1,3,1.4,4.5,0.6c7.7-4.4,11.6-14.8,8.3-23.1c-1-2.4-3.1-3.3-5.5-2.2
			c-5.3,2.4-10.5,4.8-15.8,7.2c-1.8,0.8-2.4,3.5-1.3,5.1C216.1,442.3,218.1,442.7,220,441.8L220,441.8z"/>
	</g>
</g>
<g>
	<g>
		<path class="st0" d="M302.8,447.7c0.9-1.5,1.9-3,2.9-4.4c0.2-0.3,0.5-0.7,0.8-1c0.4-0.6-0.3,0.3,0,0c0.1-0.1,0.2-0.3,0.4-0.4
			c0.6-0.7,1.1-1.4,1.7-2.1c2.3-2.6,4.8-5,7.5-7.2c-2.1-0.9-4.3-1.8-6.4-2.7c-0.1,5.5-0.2,11.1-0.2,16.6c2.3-0.6,4.7-1.3,7-1.9
			c-2-3.2-5.9-5.5-9.7-5c-1,0.1-1.9,0.3-2.7,1.1c-0.7,0.7-1.1,1.7-1.1,2.7c0.1,1.8,1.7,4,3.8,3.8c0.3,0,0.6-0.1,0.9-0.1
			c0.1,0,0.2,0,0.4,0c0.3,0,0.2,0-0.4-0.1c0.1,0.1,0.7,0.1,0.8,0.2c0.1,0,0.2,0.1,0.3,0.1c0.4,0.1,0.3,0.1-0.2-0.1
			c0,0,0.5,0.3,0.6,0.3c0.1,0.1,0.3,0.2,0.4,0.3c-0.4-0.3-0.5-0.4-0.2-0.1c0.2,0.2,0.3,0.3,0.5,0.5c0.3,0.3,0.2,0.2-0.1-0.2
			c0.1,0.1,0.2,0.3,0.3,0.4c0.9,1.4,2.6,2.2,4.2,1.7c1.6-0.5,2.7-1.9,2.8-3.6c0.1-5.5,0.2-11.1,0.2-16.6c0-1.5-1-2.9-2.3-3.4
			c-1.5-0.6-2.9-0.2-4.1,0.8c-5.7,4.7-10.6,10.4-14.4,16.7c-1,1.7-0.4,4.2,1.3,5.1C299.4,450,301.7,449.5,302.8,447.7L302.8,447.7z"
			/>
	</g>
</g>
<g>
	<g>
		<path class="st0" d="M64.1,209.1c0.5-0.1,1-0.2,1.4-0.3c0.6-0.1,0.5-0.1-0.2,0c0.2,0,0.5-0.1,0.7-0.1c1-0.1,1.9-0.2,2.9-0.2
			c1.9-0.1,3.9,0.1,5.8,0.3c0.6,0.1,0.5,0.1-0.2,0c0.2,0,0.5,0.1,0.7,0.1c0.5,0.1,1,0.2,1.4,0.3c1,0.2,1.9,0.4,2.8,0.7
			c0.9,0.3,1.9,0.5,2.8,0.9c0.5,0.2,0.9,0.3,1.4,0.5c0.1,0.1,1.5,0.6,0.8,0.3c-0.7-0.3,0.6,0.3,0.7,0.3c0.4,0.2,0.9,0.4,1.3,0.6
			c0.9,0.4,1.7,0.9,2.6,1.4c0.8,0.5,1.7,1,2.5,1.6c0.4,0.3,0.8,0.6,1.2,0.9c0.4,0.3,0.4,0.3-0.1-0.1c0.2,0.2,0.4,0.3,0.6,0.5
			c1.5,1.2,2.9,2.6,4.3,4c0.6,0.7,1.4,1.4,1.9,2.2c-0.8-1.1,0.2,0.3,0.3,0.5c0.3,0.4,0.6,0.8,0.8,1.2c1.4-2.5,2.9-5,4.3-7.5
			c-15.6,1.8-31.4,2.2-47.1,1.1c1.6,1.2,3.2,2.4,4.8,3.7c0-0.1-0.3-0.9-0.2-1c0.1,0.8,0.1,0.9,0.1,0.3c0-0.1,0-0.2,0-0.3
			c0,0,0-1,0.1-1c-0.1,0.8-0.1,0.9,0,0.3c0-0.2,0.1-0.3,0.1-0.5c0.1-0.3,0.2-0.6,0.3-1c0.1-0.4-0.5,1,0.1-0.1
			c0.2-0.3,0.3-0.6,0.5-0.9c0.1-0.1,0.8-1,0.3-0.5c-0.5,0.6,0.3-0.3,0.4-0.4c0.3-0.3,0.6-0.6,0.9-0.9c0.3-0.2,0.8-1,0.1-0.1
			c0.2-0.2,0.6-0.4,0.9-0.6c0.5-0.3,1.3-0.9,1.9-1c-0.2,0.1-0.4,0.2-0.5,0.2c0.2-0.1,0.4-0.2,0.7-0.2c0.3-0.1,0.7-0.2,1-0.3
			c0.3-0.1,0.8-0.1,1-0.2c-0.7,0.1-0.8,0.1-0.4,0.1c0.2,0,0.4,0,0.7-0.1c0.9-0.1,1.8,0,2.7,0c0.2,0,1.5,0.3,0.4,0
			c0.4,0.1,0.9,0.2,1.3,0.2c0.9,0.2,1.7,0.4,2.6,0.7c0.9,0.3,1.7,0.6,2.6,0.9c1.1,0.4-0.5-0.2,0.5,0.2c0.4,0.2,0.8,0.4,1.3,0.6
			c1.8,0.8,3.6,1.8,5.3,2.7c0.8-3.1,1.7-6.2,2.5-9.3c-6.6-0.2-13.2-0.4-19.9-0.6c-2.5-0.1-4.6,2-4.9,4.3c-0.3,2.2,1.1,5.2,3.6,5.5
			c12.7,1.7,25.5,2.6,38.3,2.6c2.6,0,5.1-2.3,5-5c-0.1-2.7-2.2-5-5-5c-6.1,0-12.2-0.2-18.3-0.6c-3-0.2-5.9-0.4-8.9-0.7
			c-1.6-0.2-3.1-0.3-4.7-0.5c-0.7-0.1-1.5-0.2-2.2-0.3c-0.3,0-0.7-0.1-1-0.1c0,0-1.6-0.2-0.6-0.1c-0.4,3.3-0.9,6.5-1.3,9.8
			c6.6,0.2,13.2,0.4,19.9,0.6c4.9,0.2,6.9-7,2.5-9.3c-7.9-4.2-17.5-8.9-26.7-5.9c-8.3,2.7-15,11-12.6,20.1c0.6,2.2,2.6,3.5,4.8,3.7
			c15.7,1.1,31.5,0.7,47.1-1.1c1.8-0.2,3.3-0.8,4.3-2.5c0.9-1.5,1-3.6,0-5c-8-12-21.2-19.6-35.5-20.9c-4-0.3-8.1,0-12,0.7
			c-2.6,0.5-4.3,3.7-3.5,6.2C58.8,208.4,61.3,209.7,64.1,209.1L64.1,209.1z"/>
	</g>
</g>
<g>
	<g>
		<path class="st0" d="M340.8,157.6c-4.4,1.4-8.8,2.8-13.2,4.3c-2.2,0.7-4.4,1.4-6.6,2.1c-1.9,0.6-4.1,1.1-5.9,2.2
			c-2.3,1.4-3.6,3.8-3,6.5c0.5,2.4,2.6,3.8,4.8,4.7c3.6,1.3,7.8,1.6,11.5,1.2c4.6-0.6,9-2.1,12.8-4.7c3-2.1,2-6.8-1.9-7
			c-5.9-0.2-11.9,0-17.8,0.8c0.3,2.5,0.7,4.9,1,7.4c3.3-1.2,6.7-2.4,10-3.6c1.9-0.7,3.2-2.5,2.6-4.6c-0.5-1.8-2.7-3.3-4.6-2.6
			c-3.3,1.2-6.7,2.4-10,3.6c-1.8,0.6-2.9,2.2-2.7,4.1c0.2,1.7,1.8,3.5,3.7,3.3c5.9-0.7,11.8-1,17.8-0.8c-0.6-2.3-1.3-4.7-1.9-7
			c-0.9,0.6-1.8,1.2-2.7,1.7c-0.4,0.2-0.7,0.4-1.1,0.5c-0.4,0.2-0.5,0.2-0.2,0.1c-0.2,0.1-0.5,0.2-0.8,0.3c-0.9,0.3-1.8,0.6-2.7,0.8
			c-0.5,0.1-1,0.2-1.6,0.3c-0.8,0.1,0.2,0-0.6,0.1c-1.1,0.1-2.1,0.1-3.2,0.1c-0.4,0-0.8,0-1.2-0.1c-0.3,0-0.5,0-0.8-0.1
			c0.3,0,0.3,0-0.2,0c-0.9-0.2-1.8-0.4-2.7-0.6c-0.2-0.1-0.5-0.1-0.7-0.2c0.4,0.2,0.4,0.2,0,0c-0.4-0.2-0.4-0.2,0,0
			c0.1,0.1,0.2,0.3,0.3,0.5c0.3,0.8,0,1.3-0.2,1.9c-0.3,0.2-0.3,0.3,0,0c0.4-0.2,0.4-0.2,0-0.1c0.9-0.4,2-0.7,3-1
			c2.3-0.7,4.6-1.5,6.8-2.2c4.6-1.5,9.3-3,13.9-4.5c1.9-0.6,3.2-2.6,2.6-4.6C344.9,158.3,342.7,157,340.8,157.6L340.8,157.6z"/>
	</g>
</g>
<g>
	<g>
		<path class="st0" d="M320.3,97.8c0.8,2.6,1.7,5.1,2.5,7.7c0.4,1.2,0.8,2.5,1.2,3.7c0.2,0.6,0.4,1.2,0.6,1.9c0.1,0.4,0,0.7,0-0.2
			c0-0.8,0.5-1.6,1.2-2c1.5,0.2,3,0.4,4.5,0.6c0,0-0.4-0.4-0.4-0.4c0.3,0.4,0.3,0.4,0.2,0.2c-0.1-0.1-0.1-0.1-0.2-0.2
			c-0.2-0.3-0.4-0.7-0.6-1c-0.2-0.3-0.3-0.6-0.5-0.9c-0.4-0.8,0.2,0.5,0,0c-0.1-0.2-0.1-0.3-0.2-0.5c-0.5-1.5-0.9-3.1-1.2-4.6
			c-0.7-3.4-1.3-6.7-2.9-9.8c-0.9-1.7-3.1-2.2-4.7-1.5c-1.7,0.7-2.6,2.6-2.2,4.4c1.1,4.1,2.1,8.1,3.2,12.2c2.4-0.7,4.8-1.3,7.2-2
			c-0.9-3-1.8-6-2.7-9c-0.6-1.9-2.7-3.3-4.6-2.6c-1.9,0.6-3.2,2.6-2.6,4.6c0.9,3,1.8,6,2.7,9c0.6,1.9,2.7,3.3,4.6,2.6
			c2-0.6,3.1-2.6,2.6-4.6c-1.1-4.1-2.1-8.1-3.2-12.2c-2.3,1-4.6,1.9-6.9,2.9c0.1,0.2,0.2,0.4,0.3,0.6c0,0.1,0.3,0.7,0.1,0.2
			c-0.2-0.5,0.1,0.2,0.1,0.3c0.1,0.2,0.1,0.3,0.2,0.5c0.3,0.8,0.5,1.5,0.6,2.3c0.4,1.6,0.6,3.3,1,4.9c0.8,3.7,2,7.1,4.5,10
			c1.1,1.2,3.2,1.4,4.5,0.6c2.1-1.3,2.9-3.5,2.4-5.9c-0.3-1.5-0.9-2.9-1.4-4.3c-1-3.1-2.1-6.2-3.1-9.4c-0.6-1.9-2.6-3.3-4.6-2.6
			C321.1,93.8,319.6,95.9,320.3,97.8L320.3,97.8z"/>
	</g>
</g>
<g>
	<g>
		<path class="st0" d="M315.2,95.4c-0.4,4.4,0.6,9.1,2.9,12.9c1.3,2.2,3,4.5,5.6,5.5c1.8,0.6,3.8,0.2,5.2-1c1.6-1.4,1.2-3.4,1-5.2
			c-0.4-2.9-1-5.6-1.9-8.3c-0.7-1.8-2.6-3.3-4.6-2.6c-1.8,0.6-3.3,2.6-2.6,4.6c0.5,1.5,1,3.1,1.3,4.7c0.2,0.8,0.3,1.5,0.4,2.3
			c0.1,0.5-0.1-0.8,0-0.1c0,0.2,0,0.4,0.1,0.5c0,0.5,0.1,0.9,0.1,1.4c0.4-0.9,0.7-1.8,1.1-2.7c0.4-0.2,0.8-0.5,1.2-0.7
			c0.7,0,0.9-0.1,0.5-0.1c-0.4,0,0.9,0.1,0.4,0c-0.4-0.1,0.9,0.4,0.3,0.1c-0.5-0.2,0.4,0.2,0.3,0.2c0,0-0.6-0.7-0.7-0.8
			c-0.1-0.1-0.2-0.2-0.3-0.4c-0.3-0.4,0.5,0.6,0.1,0.1c-0.4-0.6-0.8-1.2-1.2-1.8c-0.2-0.3-0.3-0.6-0.5-0.9c-0.1-0.1-0.1-0.3-0.2-0.4
			c-0.1-0.3-0.2-0.8,0.1,0.1c-0.2-0.6-0.5-1.2-0.6-1.9c-0.2-0.7-0.3-1.4-0.4-2c-0.1-0.5,0.1,0.9,0,0.2c0-0.2,0-0.3,0-0.5
			c0-0.4,0-0.7-0.1-1.1c0-0.8,0-1.5,0.1-2.2c0.2-2-1.9-3.8-3.8-3.8C316.8,91.7,315.4,93.3,315.2,95.4L315.2,95.4z"/>
	</g>
</g>
<g>
	<g>
		<path class="st0" d="M254.6,224.9c4.4-0.5,8.7-1,13.1-1.6c4.3-0.5,8.7-1.2,13-1.5c0.9-0.1,1.9-0.1,2.8,0c0.2,0,0.5,0,0.7,0
			c0.1,0,0.9,0.1,0.4,0c-0.4-0.1,0.3,0.1,0.4,0.1c0.3,0.1,0.6,0.1,0.8,0.2c0.3,0.1,1.3,0.5,0.6,0.2c0.1,0.1,1,0.6,0.7,0.4
			c-0.4-0.3,0.1,0.1,0.2,0.2c0.3,0.4-0.2-0.4,0,0c0.2,0.4,0-0.1,0-0.2c0.1,0.4,0.1,0.4,0.1,0.1c0-0.3,0-0.2,0,0.1c0.2-1-0.3,0.8,0,0
			c-0.1,0.2-0.2,0.3-0.2,0.5c0,0.1-0.5,0.6-0.2,0.3c0.2-0.2-0.9,0.7-0.7,0.6c0.3-0.2-0.3,0.2-0.3,0.1c-0.3,0.2-0.7,0.4-1,0.6
			c0,0-0.6,0.3-0.2,0.1c-0.2,0.1-0.4,0.2-0.6,0.2c-0.5,0.2-1.1,0.4-1.6,0.5c-1.2,0.3-2.4,0.6-3.6,0.8c-5,0.8-10.9,0.7-15.9-0.2
			c0.3,2.3,0.6,4.6,0.9,6.9c8.4-4.8,18.1-7.9,27.6-9.1c-0.3-2.5-0.7-4.9-1-7.4c-6.2,2.3-12.3,3.4-18.8,3.5c-2,0-3.8,1.7-3.8,3.8
			c0.1,2,1.6,3.8,3.8,3.8c7.1-0.2,14.2-1.4,20.8-3.8c1.8-0.6,2.9-2.2,2.7-4.1c-0.2-1.7-1.8-3.5-3.7-3.3c-11,1.4-21.7,4.5-31.4,10.1
			c-2.6,1.5-2.4,6.3,0.9,6.9c6.1,1.1,12.3,1.2,18.5,0.4c5.2-0.7,11.7-2.3,14.3-7.4c1.5-2.9,1.2-6.3-0.9-8.9
			c-1.5-1.8-3.8-2.9-6.1-3.3c-5.1-0.9-10.3,0.1-15.3,0.7c-5.6,0.7-11.3,1.4-16.9,2.1c-1.9,0.2-3.8,1.6-3.8,3.8
			C250.9,223,252.5,225.1,254.6,224.9L254.6,224.9z"/>
	</g>
</g>
<g>
	<g>
		<path class="st0" d="M337.6,230.2c-5,1.3-9.9,2.7-14.9,4c-3.9,1-8.2,2.4-10.5,6c-2.5,4-0.9,8.8,2.8,11.4c3.2,2.2,7.3,2.6,11.1,2.2
			c5.6-0.6,10.9-2.3,15.7-5.1c2.6-1.5,2.3-4.9,0-6.5c-6.6-4.5-15.7-4.7-22.5-0.6c-1.7,1-2.4,3.4-1.3,5.1c1.1,1.9,3.3,2.2,5.1,1.3
			c5.2-2.6,11.4-4.2,17.1-4.7c2-0.1,3.8-1.6,3.8-3.8c-0.1-1.9-1.7-3.9-3.8-3.8c-7.3,0.6-14.3,2.5-20.9,5.7c1.3,2.2,2.5,4.3,3.8,6.5
			c0.3-0.2,0.7-0.4,1-0.6c0.1,0,1.1-0.5,0.5-0.3c0.7-0.3,1.4-0.5,2.2-0.7c0.4-0.1,0.7-0.2,1.1-0.2c1.2-0.2-0.7,0,0.5-0.1
			c0.8-0.1,1.5-0.1,2.3-0.1c0.4,0,0.8,0,1.1,0.1c0.8,0.1-0.3-0.1,0.5,0.1c0.7,0.2,1.5,0.3,2.2,0.6c0.4,0.1,0.7,0.2,1.1,0.4
			c-0.5-0.2,0.2,0.1,0.3,0.2c0.7,0.4,1.4,0.8,2.1,1.3c0-2.2,0-4.3,0-6.5c-3.2,1.8-6.4,3-10.1,3.8c-1,0.2-1.4,0.3-2.3,0.3
			c-0.8,0.1-1.7,0.1-2.5,0.1c-0.3,0-0.6-0.1-0.9-0.1c-0.4,0,0.1,0,0.2,0c-0.2,0-0.3,0-0.5-0.1c-0.4-0.1-0.7-0.2-1.1-0.3
			c-0.2-0.1-1.1-0.4-0.7-0.2c0.4,0.1-0.4-0.2-0.5-0.3c-0.3-0.1-0.5-0.3-0.8-0.5c-0.4-0.2,0.2,0.1,0.2,0.1c-0.1-0.1-0.2-0.2-0.3-0.3
			c-0.6-0.6,0.1,0.3-0.2-0.2c-0.2-0.3-0.1-0.5,0,0.2c0-0.1-0.1-0.3-0.1-0.4c0-0.4,0,0.3,0,0.3c0-0.1-0.1-0.4,0-0.4
			c0.1-0.2,0,0,0,0.2c0,0,0.1-0.4,0.1-0.4c0,0,0-0.1,0-0.1c0,0.1-0.1,0.2-0.1,0.3c0.1-0.2,0.2-0.3,0.3-0.5c-0.3,0.5,0,0.1,0.2-0.2
			c0.4-0.5-0.3,0.1,0.2-0.2c0.3-0.2,0.7-0.4,1-0.6c0.2-0.1,1.1-0.5,0.5-0.3c1.5-0.6,3.1-1,4.7-1.4c4.7-1.3,9.5-2.6,14.2-3.8
			c2-0.5,3.2-2.7,2.6-4.6C341.7,230.9,339.6,229.7,337.6,230.2L337.6,230.2z"/>
	</g>
</g>
<g>
	<g>
		<path class="st0" d="M328.9,294.9c2.2-1.7,3.9-2.5,6.6-3c0.3,0,0.5-0.1,0.8-0.1c-0.6,0.1,0.6,0,0.6,0c0.6,0,1.2,0,1.8,0
			c0.3,0,0.7,0,1,0.1c-0.6-0.1,0.3,0,0.4,0.1c0.7,0.1,1.4,0.3,2.1,0.5c-0.3-2.3-0.6-4.6-0.9-6.9c-2,1.2-3.5,1.9-5.4,2.6
			c-1,0.3-2.1,0.6-3.2,0.9c-0.5,0.1-1.1,0.2-1.6,0.3c-0.3,0-0.5,0.1-0.8,0.1c0.5-0.1-0.3,0-0.4,0c-2.2,0.2-4.4,0.2-6.6,0
			c-0.7-0.1-1.6-0.2-2.7-0.5c-1.1-0.3-2.3-0.6-3.4-1c0.3,2.3,0.6,4.6,0.9,6.9c3.8-2.3,7.5-3.2,11.9-3c0.6,0,1.1,0.1,1.7,0.1
			c0.2,0,0.5,0.1,0.1,0c0.3,0,0.6,0.1,0.9,0.2c1.1,0.2,2.2,0.5,3.3,0.9c0.2,0.1,0.5,0.2,0.7,0.3c0.2,0.1,0.8,0.3,0.3,0.1
			c0.5,0.2,1,0.5,1.5,0.7c1.1,0.6,2.1,1.2,3,1.9c0-2.2,0-4.3,0-6.5c-0.1,0-1.1,0.5-0.4,0.2c-0.3,0.1-0.7,0.2-1,0.3
			c-0.3,0.1-0.7,0.2-1,0.3c-0.1,0-1,0.1-0.5,0.1c0.4,0-0.6,0-0.7,0c-0.3,0-0.6,0-0.9,0c-0.4,0-0.7,0-1-0.1c0.8,0.1-0.3-0.1-0.4-0.1
			c-0.6-0.1-1.2-0.3-1.9-0.5c-0.2-0.1-0.7-0.3-0.2-0.1c-0.3-0.1-0.6-0.3-0.9-0.5c-0.3-0.2-0.6-0.4-0.9-0.5c0,0-0.9-0.7-0.4-0.2
			c-0.5-0.5-1-0.9-1.5-1.5c-1.3-1.5-3.9-1.4-5.3,0c-1.5,1.5-1.3,3.8,0,5.3c5.2,5.9,14,7.2,20.8,3.7c1.2-0.6,1.9-2,1.9-3.2
			c0-1.4-0.8-2.4-1.9-3.2c-8.9-6.5-21.7-6.9-31.1-1.2c-2.9,1.8-2.1,5.8,0.9,6.9c9.8,3.4,21,2.1,29.9-3.2c2.8-1.7,2.2-5.9-0.9-6.9
			c-6.3-2-13.7-0.8-18.9,3.3c-1.6,1.2-2.5,3.2-1.3,5.1C324.7,295.1,327.3,296.1,328.9,294.9L328.9,294.9z"/>
	</g>
</g>
<g>
	<g>
		<g>
			<path class="st0" d="M389.6,286.1c8.5-4,16.5-8.7,24.4-13.7c3.2-2,6.5-4,9.9-5.8c2.1-1.1,4.2-2.1,6.3-3c0.6-0.3,1.2-0.5,1.8-0.8
				c0.3-0.1,0.6-0.3,0.9-0.4c0.1-0.1,0.2-0.1,0.4-0.1c-1,0.4-0.1,0,0.1,0c1.4-0.6,2.9-1.2,4.3-1.7c9-3.5,18.3-6.5,27.5-9.4
				c1.9-0.6,3.2-2.6,2.6-4.6c-0.5-1.9-2.7-3.2-4.6-2.6c-14,4.4-28.2,8.9-41.4,15.4c-6.9,3.5-13.3,7.9-19.9,11.8
				c-5.2,3.1-10.6,5.9-16.1,8.5c-1.8,0.9-2.3,3.5-1.3,5.1C385.5,286.7,387.7,287,389.6,286.1L389.6,286.1z"/>
		</g>
	</g>
	<g>
		<g>
			<path class="st0" d="M469,249.2c18.9,0.3,37.7,0.6,56.6,0.9c2,0,3.8-1.7,3.8-3.8c-0.1-2.1-1.6-3.7-3.8-3.8
				c-18.9-0.3-37.7-0.6-56.6-0.9c-2,0-3.8,1.7-3.8,3.8C465.3,247.5,466.9,249.2,469,249.2L469,249.2z"/>
		</g>
	</g>
	<g>
		<g>
			<path class="st0" d="M521.7,246.1c-10.7,15.7-21.4,31.5-32.1,47.2c-1.1,1.7-0.3,4.2,1.3,5.1c1.9,1.1,4,0.3,5.1-1.3
				c10.7-15.7,21.4-31.5,32.1-47.2c1.1-1.7,0.3-4.2-1.3-5.1C525,243.6,522.9,244.4,521.7,246.1L521.7,246.1z"/>
		</g>
	</g>
	<g>
		<g>
			<path class="st0" d="M464.5,247.4c-2.6,6-5.1,11.9-7.7,17.9c-1.2,2.7,0.2,5.3,3.2,5.6c2.1,0.2,4.2,0.4,6.4,0.7
				c1,0.1,2,0.2,2.9,0.3c0.5,0.1,1,0.1,1.5,0.2c0.2,0,0.5,0.1,0.7,0.1c0.8,0.1-0.4-0.1,0.3,0c0.2,0,0.5,0.2,0.6,0.1
				c-0.1,0-0.2-0.1-0.3-0.2c-0.2-0.3,0,0,0.1,0.1c-0.1-0.2-0.2-0.3-0.3-0.5c-0.2-0.4,0-0.1,0,0c0,0-0.1-0.8,0-0.3c0,0.1,0,0.3,0,0.4
				c0-0.3,0.1-0.6,0-0.1c0,0.1-0.4,1.1-0.2,0.7c0.2-0.3-0.3,0.5-0.3,0.6c-0.1,0.1-0.6,0.9-0.4,0.6c0.2-0.3-0.1,0.1-0.1,0.1
				c-0.1,0.2-0.3,0.3-0.4,0.5c-2.5,2.6-5.3,5.3-5.5,9.2c-0.2,4.5,3.8,7,7.8,7.6c4.7,0.7,9.5,1.4,14.2,2.1c-0.9-1.2-1.8-2.4-2.8-3.6
				c0,0.1-0.1,1.1,0,0.5c0,0.4-0.1,0.7-0.2,1.1c-0.1,0.4-0.2,0.7-0.3,1.1c0.2-0.6-0.2,0.4-0.2,0.5c-0.2,0.3-0.4,0.6-0.6,1
				c-0.4,0.6,0.2-0.1-0.3,0.4c-0.2,0.2-0.4,0.5-0.7,0.7c-0.1,0.1-0.3,0.3-0.4,0.4c0.3-0.2,0.2-0.2-0.1,0.1c-1.7,1.1-2.4,3.3-1.3,5.1
				c1,1.7,3.5,2.5,5.1,1.3c4.1-2.8,6.5-7.1,6.7-12.1c0-1.5-1.2-3.4-2.8-3.6c-4.3-0.6-8.5-1.2-12.8-1.9c-0.9-0.1-1.7-0.2-2.6-0.4
				c-0.4-0.1-0.7-0.2-1.1-0.3c-0.1,0-0.7-0.3-0.1,0c-0.2-0.1-0.4-0.3-0.1,0c0,0,0.3,0.4,0.1,0.1c-0.2-0.4,0,0.1,0.1,0.2
				c0,0.1,0,0.6,0,0.2c0.1-0.4-0.1,0.2-0.1,0.2c0-0.2,0.3-0.9,0-0.4c0.2-0.4,0.5-0.9,0.7-1.3c0,0,0.4-0.5,0.2-0.2
				c-0.2,0.3,0.2-0.2,0.2-0.2c0.3-0.3,0.5-0.6,0.8-0.9c0.5-0.5,1.1-1,1.6-1.6c1.3-1.4,2.3-2.9,3-4.7c1.5-3.9,0-8.2-4.1-9.6
				c-2.2-0.8-4.9-0.7-7.3-1c-2.5-0.3-4.9-0.5-7.4-0.8c1.1,1.9,2.2,3.8,3.2,5.6c2.6-6,5.1-11.9,7.7-17.9c0.8-1.9,0.6-4-1.3-5.1
				C468,245.1,465.3,245.5,464.5,247.4L464.5,247.4z"/>
		</g>
	</g>
	<g>
		<g>
			<path class="st0" d="M489.3,292.1c-18.6,9-37.1,18.3-55.4,27.9c-18.5,9.6-36.8,19.3-55.3,28.9c-12.6,6.5-25.3,13-38,19.3
				c-1.8,0.9-2.3,3.5-1.3,5.1c1.1,1.8,3.3,2.3,5.1,1.3c21.2-10.6,42.3-21.5,63.4-32.5c17.7-9.3,35.3-18.6,53.1-27.6
				c10.7-5.4,21.5-10.8,32.3-16c1.8-0.9,2.3-3.5,1.3-5.1C493.4,291.6,491.2,291.3,489.3,292.1L489.3,292.1z"/>
		</g>
	</g>
	<g>
		<g>
			<path class="st0" d="M494.2,247.2c1,8.4,4.9,16.2,11.3,21.7c1.5,1.3,3.9,1.6,5.3,0c1.3-1.4,1.6-3.9,0-5.3
				c-1.4-1.2-2.6-2.4-3.7-3.8c-0.1-0.1-0.5-0.6-0.2-0.2c0.3,0.4-0.3-0.3-0.3-0.3c-0.2-0.3-0.5-0.7-0.7-1c-0.5-0.8-1-1.5-1.4-2.3
				c-0.4-0.8-0.8-1.5-1.1-2.3c-0.2-0.5,0.2,0.6,0,0.1c-0.1-0.2-0.2-0.5-0.3-0.7c-0.1-0.4-0.3-0.8-0.4-1.1c-0.3-0.9-0.5-1.7-0.7-2.6
				c-0.1-0.4-0.2-0.8-0.2-1.2c0-0.2-0.1-0.5-0.1-0.7c-0.1-0.6,0.1,0.9,0,0c-0.2-1.9-1.6-3.8-3.8-3.8
				C496.1,243.5,494,245.1,494.2,247.2L494.2,247.2z"/>
		</g>
	</g>
	<g>
		<g>
			<path class="st0" d="M508.2,264.4c4.3-3.2,8.5-6.5,12.8-9.7c0.8-0.6,1.4-1.2,1.7-2.2c0.2-0.9,0.1-2.1-0.4-2.9
				c-0.5-0.8-1.3-1.5-2.2-1.7c-0.9-0.2-2.1-0.2-2.9,0.4c-4.3,3.2-8.5,6.5-12.8,9.7c-0.8,0.6-1.4,1.2-1.7,2.2
				c-0.2,0.9-0.1,2.1,0.4,2.9c0.5,0.8,1.3,1.5,2.2,1.7C506.2,265,507.4,265,508.2,264.4L508.2,264.4z"/>
		</g>
	</g>
</g>
<g>
	<g>
		<g>
			<path class="st0" d="M247.4,398.6c-11.3,8-22.9,15.6-35.1,22.1c-11.8,6.3-24.1,11.9-36.1,17.8c-8.3,4.1-16.1,8.8-23.9,13.6
				c-9.9,6.1-19.8,12.2-29.8,18c-4.6,2.6-9.1,5.2-13.8,7.6c-1.9,1-3.9,1.9-5.8,2.8c-0.4,0.2-0.9,0.4-1.3,0.6c-0.7,0.3,0.6-0.3,0.1,0
				c-0.2,0.1-0.5,0.2-0.7,0.3c-0.8,0.3-1.5,0.6-2.3,0.8c-0.7,0.2-1.3,0.4-2,0.6c-2,0.5-3.1,2.7-2.6,4.6c0.5,2,2.6,3.1,4.6,2.6
				c3.6-0.9,7.1-2.6,10.5-4.2c4.5-2.2,8.8-4.6,13.2-7c10.1-5.7,20-11.9,30-18c7.5-4.6,14.9-9.5,22.7-13.4
				c12.3-6.2,24.9-11.9,37.1-18.2c11.8-6.1,23.1-13,34-20.6c1.7-1.2,3.4-2.4,5.1-3.6c1.6-1.2,2.4-3.3,1.3-5.1
				C251.6,398.4,249.1,397.5,247.4,398.6L247.4,398.6z"/>
		</g>
	</g>
	<g>
		<g>
			<path class="st0" d="M96.2,483.4c-0.4,0-0.7-0.1-1.1-0.1c-0.8-0.1-0.3,0-0.1,0c-0.2,0-0.4-0.1-0.6-0.1c-0.9-0.1-1.7-0.3-2.6-0.6
				c-0.8-0.2-1.6-0.4-2.4-0.7c-0.4-0.1-0.7-0.3-1.1-0.4c-0.2-0.1-0.5-0.2-0.7-0.3c-0.1,0-0.6-0.2-0.2-0.1c-1.6-0.7-3.2-1.5-4.7-2.4
				c-0.7-0.4-1.4-0.9-2.1-1.3c-0.3-0.2-0.6-0.4-0.9-0.7c0.1,0,0.4,0.3,0,0c-0.2-0.2-0.5-0.4-0.7-0.6c-1.1-1-2.2-2-3.1-3.1
				c-0.1-0.1-0.4-0.6,0,0c-0.1-0.1-0.2-0.2-0.3-0.4c-0.2-0.3-0.3-0.5-0.5-0.8c-0.2-0.3-0.3-0.6-0.5-1c0,0-0.3-0.6-0.1-0.2
				c0.1,0.3-0.1-0.3-0.1-0.4c-0.3-0.7-0.4-1.5-0.6-2.3c-0.1-0.7,0,0.2-0.1-0.5c0-0.5-0.1-1-0.1-1.5c0-0.9,0-1.7,0.1-2.6
				c0.1-1.1,0.1-1.4,0.3-2.4c0.9-4.7,2.5-9.3,4.2-13.7c0.7-1.8-0.8-4.2-2.6-4.6c-2.2-0.5-3.8,0.7-4.6,2.6c-1.7,4.3-3.3,8.7-4.2,13.3
				c-0.8,4.2-1.2,8.7,0,12.8c2.1,7.4,9.1,12.6,15.8,15.7c4.3,2,8.7,3.3,13.5,3.6c2,0.1,3.8-1.8,3.8-3.8
				C99.8,485,98.3,483.6,96.2,483.4L96.2,483.4z"/>
		</g>
	</g>
	<g>
		<g>
			<path class="st0" d="M77.4,448.8c10.3-7.4,21.1-14.3,32-20.9c12.8-7.8,25.9-15.2,39-22.5c13.9-7.7,27.9-15.1,41.9-22.4
				c13.5-7,27.1-14,40.7-20.8c11.7-5.9,23.5-11.7,35.3-17.5c1.3-0.6,2.5-1.2,3.8-1.9c1.8-0.9,2.3-3.5,1.3-5.1
				c-1.1-1.9-3.3-2.2-5.1-1.3c-11.5,5.6-22.9,11.3-34.3,17c-13.5,6.7-26.9,13.5-40.2,20.5c-14.1,7.3-28.1,14.7-42,22.3
				c-13.3,7.3-26.5,14.8-39.6,22.5c-11.2,6.7-22.3,13.6-33.1,21.2c-1.2,0.8-2.3,1.6-3.5,2.5c-1.6,1.2-2.4,3.3-1.3,5.1
				C73.2,449,75.7,450,77.4,448.8L77.4,448.8z"/>
		</g>
	</g>
</g>
<g>
	<g>
		<path class="st0" d="M364.9,182.3c-3.9-4.4-7.8-8.8-11.5-13.3c-1.9-2.3-3.8-4.6-5.6-6.9c-0.9-1.1-1.7-2.2-2.5-3.2
			c-0.8-1,0.2,0.3,0.3,0.4c-0.2-0.3-0.5-0.6-0.7-0.9c-0.5-0.7-1-1.3-1.5-2c-7-9.3-13.7-18.9-19.9-28.8c-3.5-5.5-7.1-11-9.7-17
			c0.3,0.6,0.5,1.2,0.8,1.8c-1.1-2.5-1.9-5.2-2.3-7.9c0.1,0.7,0.2,1.3,0.3,2c-0.2-1.8-0.3-3.6,0-5.4c-0.1,0.7-0.2,1.3-0.3,2
			c0.2-1.1,0.4-2.2,0.8-3.3c1.2-3.7-1.4-8.4-5.2-9.2c-4.1-0.9-7.9,1.2-9.2,5.2c-2.7,8.2-0.4,16.7,3.1,24.2c3,6.4,7.1,12.5,10.9,18.5
			c8,12.5,16.8,24.5,26,36c5.1,6.3,10.3,12.5,15.7,18.5c2.6,2.9,8,2.9,10.6,0C367.8,189.7,367.7,185.4,364.9,182.3L364.9,182.3z"/>
	</g>
</g>
<g>
	<g>
		<path class="st0" d="M275.3,403.4c8.6-3.6,17.1-7.2,25.6-10.8c8.8-3.8,17.5-7.8,26.5-11.3c6-2.3,11.9-4.6,17.8-7.1
			c1.9-0.8,3.2-2.5,2.6-4.6c-0.5-1.8-2.7-3.4-4.6-2.6c-10.7,4.5-21.7,8.3-32.3,13.1c-8.2,3.6-16.3,7.2-24.6,10.7
			c-0.6,0.3-1.2,0.5-1.8,0.8c-0.6,0.3,0.4-0.2-0.2,0.1c-0.4,0.2-0.7,0.3-1.1,0.5c-1.2,0.5-2.3,1-3.5,1.5c-2.2,0.9-4.3,1.8-6.5,2.7
			c-1.9,0.8-3.2,2.5-2.6,4.6C271.2,402.5,273.5,404.2,275.3,403.4L275.3,403.4z"/>
	</g>
</g>
<g>
	<g>
		<path class="st0" d="M73,449.4c0.9,0.5,1.8,1,2.6,1.6c0.4,0.3,0.8,0.6,1.3,0.9c0.2,0.1,0.4,0.3,0.6,0.5c-0.3-0.2-0.2-0.2,0.1,0.1
			c1.6,1.3,3,2.7,4.4,4.2c1.5,1.6,2.4,2.8,3.5,4.3c1.2,1.6,2.3,3.3,3.3,5.1c2.1,3.5,3.9,7.2,5.7,10.9c0.9,1.9,1.8,3.8,1.7,5.7
			c0.1-0.8-0.2,0.5-0.2,0.7c0.3-0.9-0.6,0.9-0.1,0.2c-0.1,0.2-0.3,0.3-0.5,0.5c0.3-0.2,0.3-0.2-0.1,0c-0.4,0.2-0.4,0.2,0,0
			c-0.4,0.1-0.4,0.1,0,0c-2,0.1-3.8,1.6-3.8,3.8c0.1,1.9,1.7,3.9,3.8,3.8c4.9-0.3,8.2-4.4,8.4-9.2c0.2-4.4-2.3-8.6-4.2-12.5
			c-3.4-6.8-7.3-13.5-12.5-19.1c-2.9-3.1-6.4-5.9-10.2-7.9c-1.8-1-4.1-0.4-5.1,1.3C70.7,446,71.2,448.5,73,449.4L73,449.4z"/>
	</g>
</g>
<g>
	<g>
		<path class="st0" d="M77.8,464.4c-0.1,0.7-0.2,1.4-0.2,2.2c0,0.7,0.1,1.4,0.3,2.1c0.2,1.1,0.7,2.2,1.2,3.2
			c0.5,0.9,1.2,1.9,2.1,2.6c0.5,0.5,1.1,0.9,1.7,1.3c0.6,0.4,1.3,0.6,1.9,0.9c0.3,0,0.7,0.1,1,0.1c0.5,0,1-0.1,1.4-0.3
			c0.7-0.3,1.4-0.8,1.8-1.5c0.7-1.3,1.1-2.8,1.1-4.3c0-1.2-0.2-2.4-0.6-3.5c-0.5-1.4-1.2-2.6-2.3-3.7c-1.1-1.1-2.3-1.8-3.7-2.3
			c-0.9-0.3-2.1-0.1-2.9,0.4c-0.8,0.5-1.5,1.3-1.7,2.2c-0.2,1-0.2,2,0.4,2.9c0.6,0.9,1.3,1.4,2.2,1.7c0.1,0,0.2,0.1,0.3,0.1
			c-0.3-0.1-0.6-0.3-0.9-0.4c0.4,0.2,0.8,0.4,1.2,0.7c-0.3-0.2-0.5-0.4-0.8-0.6c0.4,0.3,0.7,0.6,1,1c-0.2-0.3-0.4-0.5-0.6-0.8
			c0.3,0.4,0.6,0.9,0.8,1.4c-0.1-0.3-0.3-0.6-0.4-0.9c0.2,0.6,0.4,1.1,0.5,1.7c0-0.3-0.1-0.7-0.1-1c0.1,0.5,0.1,1,0,1.6
			c0-0.3,0.1-0.7,0.1-1c-0.1,0.4-0.2,0.9-0.4,1.3c0.1-0.3,0.3-0.6,0.4-0.9c-0.1,0.2-0.1,0.3-0.2,0.5c1.4-0.6,2.8-1.1,4.2-1.7
			c0,0-0.1,0-0.1,0c0.3,0.1,0.6,0.3,0.9,0.4c-0.5-0.2-1-0.5-1.4-0.8c0.3,0.2,0.5,0.4,0.8,0.6c-0.5-0.4-0.9-0.8-1.3-1.3
			c0.2,0.3,0.4,0.5,0.6,0.8c-0.4-0.5-0.7-1.1-1-1.7c0.1,0.3,0.3,0.6,0.4,0.9c-0.2-0.6-0.4-1.2-0.5-1.8c0,0.3,0.1,0.7,0.1,1
			c-0.1-0.6-0.1-1.2,0-1.8c0,0.3-0.1,0.7-0.1,1c0,0,0-0.1,0-0.1c0.2-0.5,0.2-1,0.1-1.5c0-0.5-0.2-1-0.4-1.4
			c-0.5-0.8-1.3-1.5-2.2-1.7c-1-0.2-2-0.2-2.9,0.4C78.7,462.7,77.9,463.5,77.8,464.4L77.8,464.4z"/>
	</g>
</g>
<g>
	<g>
		<path class="st0" d="M118.6,218.3c-3,11.6,0.2,23.7,6.2,33.8c5.5,9.3,13.2,17.1,22,23.4c16.4,11.7,37.9,16.6,57.4,10.6
			c9.5-2.9,18.4-8.1,25.3-15.2c7.6-7.7,12.3-17.4,14.5-27.9c1.3-6.2,2.1-12.5,2.7-18.7c0.3-3,0.5-6,0.7-9c0.2-3.5,0.4-6.9-1.5-10.1
			c-1.3-2.2-3.7-3.9-6.2-4.5c-1.9-0.4-3.7-0.3-5.6-0.2c-3.1,0.2-6.1,0.3-9.2,0.5c-6.1,0.3-12.1,0.7-18.2,1
			c-24.3,1.5-48.6,3.2-72.8,5.3c-3,0.3-6,0.5-8.9,0.8c-2,0.2-3.8,0.7-5.3,2.2c-1.3,1.3-2.3,3.4-2.2,5.3c0.2,3.8,3.3,7.9,7.5,7.5
			c29.3-2.6,58.6-4.8,87.9-6.5c4.1-0.2,8.3-0.5,12.4-0.7c2-0.1,4-0.2,6-0.3c2-0.1,4-0.3,5.9-0.2c-0.7-0.1-1.3-0.2-2-0.3
			c0.4,0.1,0.7,0.1,1,0.2c-0.6-0.3-1.2-0.5-1.8-0.8c0.7,0.4,0.5,0.2-0.7-0.6c-0.8-1.1-1-1.3-0.6-0.7c-0.3-0.6-0.5-1.2-0.8-1.8
			c0.1,0.3,0.2,0.7,0.3,1c-0.1-0.7-0.2-1.3-0.3-2c0.3,3.1-0.2,6.4-0.4,9.5c-0.3,3.4-0.6,6.8-1.1,10.2c0.1-0.7,0.2-1.3,0.3-2
			c-1,7.2-2.1,14.5-4.9,21.2c0.3-0.6,0.5-1.2,0.8-1.8c-1.2,2.8-2.7,5.5-4.4,8c-0.4,0.5-2.1,2.7-0.4,0.6c-0.5,0.6-0.9,1.1-1.4,1.7
			c-1,1.2-2.1,2.3-3.2,3.4c-1.1,1-2.2,2-3.4,3c-0.5,0.4-0.2,0.2,0.8-0.6c-0.2,0.1-0.4,0.3-0.6,0.4c-0.3,0.2-0.6,0.4-0.9,0.6
			c-0.6,0.4-1.2,0.8-1.8,1.2c-2.6,1.7-5.4,3.2-8.3,4.4c0.6-0.3,1.2-0.5,1.8-0.8c-4.4,1.8-9,3.1-13.7,3.8c0.7-0.1,1.3-0.2,2-0.3
			c-4.7,0.6-9.5,0.6-14.2,0c0.7,0.1,1.3,0.2,2,0.3c-5.4-0.7-10.6-2.2-15.6-4.3c0.6,0.3,1.2,0.5,1.8,0.8c-3.7-1.6-7.3-3.5-10.6-5.7
			c-0.9-0.6-1.7-1.2-2.6-1.8c-0.4-0.3-0.8-0.6-1.3-0.9c-0.2-0.2-0.4-0.3-0.6-0.5c1,0.8,1.2,0.9,0.6,0.5c-1.6-1.3-3.1-2.6-4.6-4
			c-1.5-1.4-2.9-2.8-4.2-4.3c-0.7-0.8-1.4-1.6-2-2.4c-0.3-0.4-0.7-0.8-1-1.2c-0.9-1.1,1.1,1.5,0.1,0.1c-2.7-3.6-4.9-7.4-6.7-11.5
			c0.3,0.6,0.5,1.2,0.8,1.8c-1.4-3.3-2.4-6.8-2.9-10.4c0.1,0.7,0.2,1.3,0.3,2c-0.3-2.7-0.4-5.4,0-8.2c-0.1,0.7-0.2,1.3-0.3,2
			c0.2-1.1,0.4-2.2,0.6-3.2c1-3.8-1.2-8.3-5.2-9.2C123.9,212.2,119.6,214.3,118.6,218.3L118.6,218.3z"/>
	</g>
</g>
<g>
	<g>
		<path class="st0" d="M312.1,203.6c0.9,8.3,3,16,6.6,23.5c3.1,6.5,7.4,12.6,12.5,17.8c4.8,4.9,10.6,9.2,16.9,12.1
			c7.1,3.3,15.2,5.7,23.1,4.7c3.1-0.4,5.8-1,8.7-2.4c2.2-1,4.1-2.5,5.9-4c3.2-2.9,5.8-6.7,7.7-10.6c3.9-7.9,5.6-16.5,6.2-25.3
			c0.6-8.1,0-16.2-0.7-24.3c-0.2-2.9-0.3-5.9-1.6-8.5c-1.1-2.1-3.3-3.7-5.5-4.2c-1.6-0.4-3-0.2-4.7,0c-5.1,0.7-10.1,1.4-15.2,2.2
			c-18.2,2.8-36.2,6.6-54,11.2c-2.2,0.6-4.4,1.2-6.6,1.8c-3.8,1-6.5,5.4-5.2,9.2c1.3,3.9,5.2,6.3,9.2,5.2c18.4-5,37-9.1,55.9-12.2
			c5.3-0.9,10.7-1.7,16.1-2.4c-0.7,0.1-1.3,0.2-2,0.3c1.5-0.2,3.1-0.5,4.6-0.5c-0.7-0.1-1.3-0.2-2-0.3c0.1,0,0.2,0.1,0.4,0.1
			c-0.6-0.3-1.2-0.5-1.8-0.8c-0.7-0.7-1.3-1.3-2-2c-0.3-0.6-0.5-1.2-0.8-1.8c0.1,0.3,0.2,0.6,0.2,1c-0.1-0.7-0.2-1.3-0.3-2
			c1.1,10.9,1.9,22.1,0.5,33c0.1-0.7,0.2-1.3,0.3-2c-0.7,4.8-1.8,9.6-3.6,14.1c0.3-0.6,0.5-1.2,0.8-1.8c-0.6,1.4-1.3,2.8-2,4.1
			c-0.7,1.3-1.5,2.9-2.6,4c0.2-0.3,0.4-0.6,0.7-0.9c-0.2,0.2-0.3,0.4-0.5,0.6c-0.2,0.3-0.4,0.5-0.7,0.8c-0.5,0.5-1.1,1-1.6,1.5
			c-1.1,1,1.5-1,0.3-0.2c-0.3,0.2-0.6,0.4-1,0.6c-0.7,0.4-1.5,0.8-2.3,1.2c0.6-0.3,1.2-0.5,1.8-0.8c-1.5,0.6-2.9,0.9-4.5,1.2
			c0.7-0.1,1.3-0.2,2-0.3c-2.4,0.3-4.8,0.2-7.2-0.1c0.7,0.1,1.3,0.2,2,0.3c-3.6-0.5-7.2-1.5-10.6-2.9c0.6,0.3,1.2,0.5,1.8,0.8
			c-3.1-1.3-6-2.9-8.8-4.8c-0.4-0.3-0.7-0.5-1.1-0.8c-0.5-0.3-1.8-1.5,0.1,0.1c-0.6-0.5-1.3-1-1.9-1.5c-1.4-1.2-2.7-2.4-3.9-3.7
			c-1.2-1.3-2.4-2.6-3.5-4c-0.4-0.4-1.2-1.7,0.2,0.3c-0.3-0.4-0.6-0.8-0.9-1.1c-0.5-0.7-1-1.5-1.5-2.2c-2-3.1-3.8-6.4-5.3-9.8
			c0.3,0.6,0.5,1.2,0.8,1.8c-2.1-5-3.5-10.2-4.3-15.5c0.1,0.7,0.2,1.3,0.3,2c-0.1-0.6-0.2-1.3-0.2-1.9c-0.2-2-0.7-3.8-2.2-5.3
			c-1.3-1.3-3.4-2.3-5.3-2.2C315.9,196.2,311.6,199.4,312.1,203.6L312.1,203.6z"/>
	</g>
</g>
<g>
	<g>
		<path class="st0" d="M319.5,198.2c-19.2,0.6-38.4,1.7-57.6,3.3c-5.4,0.5-10.7,1-16.1,1.5c-2,0.2-3.8,0.7-5.3,2.2
			c-1.3,1.3-2.3,3.4-2.2,5.3c0.2,3.7,3.3,7.9,7.5,7.5c19.1-1.9,38.2-3.3,57.4-4.2c5.4-0.2,10.9-0.4,16.3-0.6
			c3.9-0.1,7.7-3.4,7.5-7.5C326.8,201.8,323.7,198.1,319.5,198.2L319.5,198.2z"/>
	</g>
</g>
<g>
	<g>
		<path class="st0" d="M138.4,209.5c-3.1-18.9-12.3-36-17.8-54.2c-1.5-5.1-2.8-10.4-3.5-15.7c0.1,0.7,0.2,1.3,0.3,2
			c-1.1-8.3-1.1-16.9-3.9-24.9c-0.7-1.9-1.7-3.5-3.4-4.5c-1.6-0.9-4-1.3-5.8-0.8c-3.6,1.2-6.7,5.3-5.2,9.2c1.1,3.1,1.8,6.4,2.3,9.7
			c-0.1-0.7-0.2-1.3-0.3-2c0.8,6.4,1.2,12.8,2.3,19.1c1,5.4,2.5,10.7,4.2,15.9c3.5,10.7,8.1,20.9,11.7,31.6c2,6,3.8,12.2,4.8,18.5
			c0.3,1.7,2,3.6,3.4,4.5c1.6,0.9,4,1.3,5.8,0.8c1.8-0.6,3.6-1.7,4.5-3.4C138.7,213.4,138.8,211.6,138.4,209.5L138.4,209.5z"/>
	</g>
</g>
</svg>
