<?xml version="1.0" encoding="utf-8"?>
<!-- Generator: Adobe Illustrator 19.0.0, SVG Export Plug-In . SVG Version: 6.00 Build 0)  -->
<svg version="1.1" xmlns="http://www.w3.org/2000/svg" xmlns:xlink="http://www.w3.org/1999/xlink" x="0px" y="0px"
	 viewBox="0 0 141.7 141.7" enable-background="new 0 0 141.7 141.7" xml:space="preserve">

	 <defs>
	  <style>

	 		 #dots{

			 animation: mymove 4s infinite;
			 animation-timing-function: linear;
			 -webkit-animation: mymove 4s infinite;
			 -webkit-animation-timing-function: linear;
			 -o-animation: mymove 4s infinite;
			 -o-animation-timing-function: linear;
			 -ms-animation: mymove 4s infinite;
			 -ms-animation-timing-function: linear;

	 		 }





			 @keyframes mymove {
				 0% {
					 transform: rotate(0deg);
					 transform-origin: 70px 53px;

				 }
				 100% {
					 transform: rotate(360deg);
					 transform-origin: 70px 53px;


				 }

				 @-moz-keyframes mymove {
					 0% {
						 moz-transform: rotate(0deg);
						 moz-transform-origin: 70px 53px;

					 }
					 100% {
						 moz-transform: rotate(360deg);
						 moz-transform-origin: 70px 53px;


					 }

					 @-o-keyframes mymove {
						 0% {
							 o-transform: rotate(0deg);
							 o-transform-origin: 70px 53px;

						 }
						 100% {
							 o-transform: rotate(360deg);
							 o-transform-origin: 70px 53px;


						 }

						 @-webkit-keyframes mymove {
							 0% {
								 webkit-transform: rotate(0deg);
								 webkit-transform-origin: 70px 53px;



							 }
							 100% {
								 webkit-transform: rotate(360deg);
								 webkit-transform-origin: 70px 53px;
								 



							 }







	  </style>

	 </defs>


<g id="Layer_1">
	<g id="XMLID_12_">
		<path id="XMLID_40_" fill="#2D2D2B" d="M124.3,81.7h-107c-2.2,0-4-1.8-4-4V27.2c0-2.2,1.8-4,4-4h107c2.2,0,4,1.8,4,4v50.5
			C128.3,79.9,126.5,81.7,124.3,81.7z"/>
		<rect id="XMLID_43_" x="58.4" y="79.4" fill="#1D1D1B" width="22.9" height="10.2"/>
		<rect id="XMLID_45_" x="47.9" y="87.4" fill="#1D1D1B" width="42.9" height="5.4"/>
	</g>
	<g id="XMLID_1_">
		<!--<g id="XMLID_208_">
			<path id="XMLID_231_" fill="#2D2D2B" d="M28.5,115.3l-3.4-12.7h1.7l1.9,8.4c0.2,0.9,0.4,1.7,0.5,2.6c0.3-1.4,0.5-2.1,0.6-2.4
				l2.4-8.6h2l1.8,6.4c0.5,1.6,0.8,3.1,1,4.5c0.2-0.8,0.4-1.7,0.6-2.8l2-8.2h1.7L38,115.3h-1.6l-2.7-9.7c-0.2-0.8-0.4-1.3-0.4-1.5
				c-0.1,0.6-0.3,1.1-0.4,1.5l-2.7,9.7H28.5z"/>
			<path id="XMLID_228_" fill="#2D2D2B" d="M48.9,112.4l1.6,0.2c-0.3,0.9-0.7,1.7-1.4,2.2s-1.6,0.8-2.6,0.8c-1.3,0-2.4-0.4-3.2-1.2
				c-0.8-0.8-1.2-2-1.2-3.5c0-1.6,0.4-2.8,1.2-3.6c0.8-0.9,1.8-1.3,3.1-1.3c1.2,0,2.2,0.4,3,1.3c0.8,0.8,1.2,2,1.2,3.5
				c0,0.1,0,0.2,0,0.4h-6.9c0.1,1,0.3,1.8,0.9,2.3s1.2,0.8,1.9,0.8c0.6,0,1.1-0.2,1.5-0.5C48.3,113.5,48.7,113,48.9,112.4z
				 M43.8,109.8h5.2c-0.1-0.8-0.3-1.4-0.6-1.7c-0.5-0.6-1.1-0.9-1.9-0.9c-0.7,0-1.3,0.2-1.8,0.7C44.1,108.4,43.8,109,43.8,109.8z"/>
			<path id="XMLID_225_" fill="#2D2D2B" d="M53.9,115.3h-1.5v-12.7H54v4.5c0.7-0.8,1.5-1.2,2.5-1.2c0.6,0,1.1,0.1,1.6,0.3
				c0.5,0.2,0.9,0.6,1.3,1s0.6,0.9,0.8,1.5s0.3,1.2,0.3,1.9c0,1.6-0.4,2.8-1.2,3.7s-1.7,1.3-2.8,1.3c-1.1,0-1.9-0.5-2.6-1.4V115.3z
				 M53.9,110.7c0,1.1,0.2,1.9,0.5,2.4c0.5,0.8,1.2,1.2,2,1.2c0.7,0,1.3-0.3,1.8-0.9c0.5-0.6,0.7-1.5,0.7-2.7c0-1.2-0.2-2.1-0.7-2.7
				c-0.5-0.6-1.1-0.9-1.7-0.9c-0.7,0-1.3,0.3-1.8,0.9C54.1,108.7,53.9,109.5,53.9,110.7z"/>
			<path id="XMLID_222_" fill="#2D2D2B" d="M73.3,115.3v-1.2c-0.6,0.9-1.4,1.4-2.6,1.4c-0.7,0-1.4-0.2-2-0.6c-0.6-0.4-1.1-1-1.4-1.7
				c-0.3-0.7-0.5-1.6-0.5-2.5c0-0.9,0.2-1.8,0.5-2.5s0.8-1.3,1.4-1.7c0.6-0.4,1.3-0.6,2.1-0.6c0.6,0,1.1,0.1,1.5,0.4
				c0.4,0.2,0.8,0.5,1.1,0.9v-4.6h1.6v12.7H73.3z M68.4,110.7c0,1.2,0.2,2.1,0.7,2.7c0.5,0.6,1.1,0.9,1.8,0.9c0.7,0,1.3-0.3,1.7-0.8
				c0.5-0.6,0.7-1.4,0.7-2.6c0-1.3-0.2-2.2-0.7-2.8s-1.1-0.9-1.8-0.9c-0.7,0-1.3,0.3-1.7,0.9C68.6,108.6,68.4,109.5,68.4,110.7z"/>
			<path id="XMLID_219_" fill="#2D2D2B" d="M83.5,112.4l1.6,0.2c-0.3,0.9-0.7,1.7-1.4,2.2c-0.7,0.5-1.6,0.8-2.6,0.8
				c-1.4,0-2.4-0.4-3.2-1.2s-1.2-2-1.2-3.5c0-1.6,0.4-2.8,1.2-3.6c0.8-0.9,1.8-1.3,3.1-1.3c1.2,0,2.2,0.4,3,1.3s1.2,2,1.2,3.5
				c0,0.1,0,0.2,0,0.4h-6.9c0.1,1,0.3,1.8,0.9,2.3s1.2,0.8,1.9,0.8c0.6,0,1.1-0.2,1.5-0.5S83.3,113,83.5,112.4z M78.4,109.8h5.2
				c-0.1-0.8-0.3-1.4-0.6-1.7c-0.5-0.6-1.1-0.9-1.9-0.9c-0.7,0-1.3,0.2-1.8,0.7C78.7,108.4,78.4,109,78.4,109.8z"/>
			<path id="XMLID_217_" fill="#2D2D2B" d="M86.5,112.6l1.5-0.2c0.1,0.6,0.3,1.1,0.7,1.4c0.4,0.3,1,0.5,1.7,0.5
				c0.7,0,1.3-0.1,1.6-0.4c0.3-0.3,0.5-0.6,0.5-1c0-0.4-0.2-0.6-0.5-0.8c-0.2-0.1-0.7-0.3-1.6-0.5c-1.1-0.3-1.9-0.5-2.4-0.8
				c-0.4-0.2-0.8-0.5-1-0.9c-0.2-0.4-0.3-0.8-0.3-1.2c0-0.4,0.1-0.8,0.3-1.1c0.2-0.4,0.4-0.6,0.8-0.9c0.2-0.2,0.6-0.3,1-0.5
				c0.4-0.1,0.9-0.2,1.4-0.2c0.7,0,1.4,0.1,1.9,0.3c0.5,0.2,1,0.5,1.2,0.8s0.4,0.8,0.5,1.4l-1.5,0.2c-0.1-0.5-0.3-0.8-0.6-1.1
				s-0.8-0.4-1.4-0.4c-0.7,0-1.2,0.1-1.5,0.4c-0.3,0.2-0.5,0.5-0.5,0.8c0,0.2,0.1,0.4,0.2,0.5c0.1,0.2,0.3,0.3,0.6,0.4
				c0.2,0.1,0.6,0.2,1.4,0.4c1.1,0.3,1.9,0.5,2.3,0.7c0.4,0.2,0.8,0.5,1,0.8c0.2,0.4,0.4,0.8,0.4,1.3c0,0.5-0.2,1-0.5,1.5
				c-0.3,0.5-0.7,0.8-1.3,1.1c-0.6,0.3-1.2,0.4-1.9,0.4c-1.2,0-2.1-0.2-2.7-0.7C87.1,114.3,86.7,113.6,86.5,112.6z"/>
			<path id="XMLID_214_" fill="#2D2D2B" d="M96,104.4v-1.8h1.6v1.8H96z M96,115.3v-9.2h1.6v9.2H96z"/>
			<path id="XMLID_211_" fill="#2D2D2B" d="M99.7,116.1l1.5,0.2c0.1,0.5,0.2,0.8,0.5,1c0.4,0.3,0.9,0.4,1.6,0.4
				c0.7,0,1.3-0.1,1.7-0.4c0.4-0.3,0.7-0.7,0.8-1.2c0.1-0.3,0.1-1,0.1-2c-0.7,0.8-1.5,1.2-2.6,1.2c-1.3,0-2.3-0.5-2.9-1.4
				s-1-2-1-3.3c0-0.9,0.2-1.7,0.5-2.4c0.3-0.7,0.8-1.3,1.4-1.7s1.3-0.6,2.1-0.6c1.1,0,2,0.4,2.7,1.3v-1.1h1.4v8
				c0,1.4-0.1,2.5-0.4,3.1c-0.3,0.6-0.8,1.1-1.4,1.4c-0.6,0.3-1.4,0.5-2.3,0.5c-1.1,0-2-0.2-2.7-0.7S99.6,117.1,99.7,116.1z
				 M101,110.6c0,1.2,0.2,2.1,0.7,2.7c0.5,0.6,1.1,0.8,1.8,0.8c0.7,0,1.3-0.3,1.8-0.8c0.5-0.6,0.7-1.4,0.7-2.6c0-1.1-0.3-2-0.8-2.6
				c-0.5-0.6-1.1-0.9-1.8-0.9c-0.7,0-1.3,0.3-1.8,0.8C101.2,108.6,101,109.5,101,110.6z"/>
			<path id="XMLID_209_" fill="#2D2D2B" d="M109.9,115.3v-9.2h1.4v1.3c0.7-1,1.7-1.5,2.9-1.5c0.6,0,1.1,0.1,1.5,0.3
				c0.5,0.2,0.8,0.5,1,0.8s0.4,0.7,0.5,1.2c0.1,0.3,0.1,0.8,0.1,1.5v5.7h-1.6v-5.6c0-0.6-0.1-1.1-0.2-1.4c-0.1-0.3-0.3-0.6-0.6-0.8
				c-0.3-0.2-0.7-0.3-1.1-0.3c-0.7,0-1.2,0.2-1.7,0.6c-0.5,0.4-0.7,1.2-0.7,2.4v5H109.9z"/>
		</g>-->
	</g>
	<path id="XMLID_42_" fill="#FFFFFF" d="M117.1,73.4H23.9c-1.7,0-3-1.3-3-3V35.1c0-1.6,1.3-3,3-3h93.1c1.7,0,3,1.4,3,3v35.3
		C120.1,72,118.7,73.4,117.1,73.4z"/>
</g>
<g id="dots">
	<g id="XMLID_15_">
		<circle id="XMLID_250_" fill="#9ABE97" cx="57.6" cy="46.3" r="2"/>
		<circle id="XMLID_249_" fill="#7EA87B" cx="57.6" cy="61" r="2"/>
		<circle id="XMLID_248_" fill="#A2CF9F" cx="70.4" cy="39.1" r="2"/>
		<circle id="XMLID_247_" fill="#B1D6AB" cx="83.2" cy="46.3" r="2"/>
		<circle id="XMLID_246_" fill="#699066" cx="83.2" cy="61" r="2"/>
		<circle id="XMLID_245_" fill="#71986E" cx="70.4" cy="68.4" r="2"/>
		<circle id="XMLID_244_" fill="#9ABE97" cx="70.4" cy="46.4" r="2"/>
		<circle id="XMLID_243_" fill="#7EA87B" cx="64" cy="50.1" r="2"/>
		<circle id="XMLID_242_" fill="#A2CF9F" cx="76.8" cy="50.4" r="2"/>
		<circle id="XMLID_241_" fill="#B1D6AB" cx="76.8" cy="57.7" r="2"/>
		<circle id="XMLID_240_" fill="#699066" cx="70.4" cy="61.1" r="2"/>
		<circle id="XMLID_239_" fill="#71986E" cx="64" cy="57.7" r="2"/>
	</g>


</g>
</svg>
