<?xml version="1.0" encoding="utf-8"?>
<!-- Generator: Adobe Illustrator 19.0.0, SVG Export Plug-In . SVG Version: 6.00 Build 0)  -->
<svg version="1.1" xmlns="http://www.w3.org/2000/svg" xmlns:xlink="http://www.w3.org/1999/xlink" x="0px" y="0px"
	 viewBox="0 0 141.7 141.7" enable-background="new 0 0 141.7 141.7" xml:space="preserve">


	 <defs>

		 	<style>
				#left{

 			 animation: color 4s infinite;
 			 animation-timing-function: linear;
 			 -webkit-animation: color 4s infinite;
 			 -webkit-animation-timing-function: linear;
 			 -o-animation: color 4s infinite;
 			 -o-animation-timing-function: linear;
 			 -ms-animation: color 4s infinite;
 			 -ms-animation-timing-function: linear;

 	 		 }

			 #right{

			animation: color 4s infinite;
			animation-timing-function: linear;
			-webkit-animation: color 4s infinite;
			-webkit-animation-timing-function: linear;
			-o-animation: color 4s infinite;
			-o-animation-timing-function: linear;
			-ms-animation: color 4s infinite;
			-ms-animation-timing-function: linear;

			}





			@-webkit-keyframes color {
			 0% {fill: #699166;}
			 50% {fill: #1D1D1B;}
			 100% {fill: #699166;}
	 		}

			/* Standard syntax */
			@keyframes color {
				 0% {fill: #699166;}
				 50% {fill: #1D1D1B;}
				 100% {fill: #699166;}
			}

			@-ms-keyframes color {
			 0% {fill: #699166;}
			 50% {fill: #1D1D1B;}
			 100% {fill: #699166;}
	 		}

			/* Standard syntax */
			@-o-keyframes color {
				 0% {fill: #699166;}
				 50% {fill: #1D1D1B;}
				 100% {fill: #699166;}
			}

			</style>
	 </defs>
<g id="Layer_1">
	<g id="XMLID_1_">
		<!--<g id="XMLID_301_">
			<path id="XMLID_336_" fill="#2D2D2B" d="M11.5,106.8l-3-11.1H10l1.7,7.3c0.2,0.8,0.3,1.5,0.5,2.3c0.3-1.2,0.4-1.9,0.5-2.1
				l2.1-7.5h1.8l1.6,5.6c0.4,1.4,0.7,2.7,0.9,3.9c0.1-0.7,0.3-1.5,0.6-2.4l1.7-7.1h1.5l-3,11.1h-1.4L16,98.4
				c-0.2-0.7-0.3-1.1-0.3-1.3c-0.1,0.5-0.2,0.9-0.3,1.3l-2.4,8.5H11.5z"/>
			<path id="XMLID_333_" fill="#2D2D2B" d="M29.3,104.2l1.4,0.2c-0.2,0.8-0.6,1.5-1.2,1.9c-0.6,0.5-1.4,0.7-2.3,0.7
				c-1.2,0-2.1-0.4-2.8-1.1s-1-1.7-1-3.1c0-1.4,0.3-2.4,1-3.2c0.7-0.7,1.6-1.1,2.7-1.1c1.1,0,2,0.4,2.6,1.1c0.7,0.7,1,1.8,1,3.1
				c0,0.1,0,0.2,0,0.4h-6c0.1,0.9,0.3,1.6,0.8,2c0.5,0.5,1,0.7,1.7,0.7c0.5,0,0.9-0.1,1.3-0.4S29,104.8,29.3,104.2z M24.8,102h4.5
				c-0.1-0.7-0.2-1.2-0.5-1.5c-0.4-0.5-1-0.8-1.7-0.8c-0.6,0-1.2,0.2-1.6,0.6C25.1,100.8,24.8,101.3,24.8,102z"/>
			<path id="XMLID_330_" fill="#2D2D2B" d="M33.6,106.8h-1.3V95.7h1.4v4c0.6-0.7,1.3-1.1,2.2-1.1c0.5,0,1,0.1,1.4,0.3
				c0.4,0.2,0.8,0.5,1.1,0.8s0.5,0.8,0.7,1.3c0.2,0.5,0.2,1.1,0.2,1.6c0,1.4-0.3,2.4-1,3.2c-0.7,0.8-1.5,1.1-2.5,1.1
				c-1,0-1.7-0.4-2.2-1.2V106.8z M33.6,102.7c0,1,0.1,1.7,0.4,2.1c0.4,0.7,1,1.1,1.7,1.1c0.6,0,1.1-0.3,1.5-0.8
				c0.4-0.5,0.7-1.3,0.7-2.3c0-1.1-0.2-1.8-0.6-2.3c-0.4-0.5-0.9-0.8-1.5-0.8c-0.6,0-1.1,0.3-1.5,0.8
				C33.8,101,33.6,101.8,33.6,102.7z"/>
			<path id="XMLID_327_" fill="#2D2D2B" d="M50.6,106.8v-1c-0.5,0.8-1.3,1.2-2.3,1.2c-0.6,0-1.2-0.2-1.8-0.5c-0.5-0.4-1-0.8-1.3-1.5
				c-0.3-0.6-0.4-1.4-0.4-2.2c0-0.8,0.1-1.5,0.4-2.2c0.3-0.7,0.7-1.2,1.2-1.5c0.5-0.3,1.1-0.5,1.8-0.5c0.5,0,0.9,0.1,1.3,0.3
				c0.4,0.2,0.7,0.5,0.9,0.8v-4h1.4v11.1H50.6z M46.2,102.8c0,1,0.2,1.8,0.7,2.3c0.4,0.5,0.9,0.8,1.5,0.8c0.6,0,1.1-0.2,1.5-0.7
				c0.4-0.5,0.6-1.2,0.6-2.2c0-1.1-0.2-1.9-0.6-2.4c-0.4-0.5-0.9-0.8-1.6-0.8c-0.6,0-1.1,0.2-1.5,0.7
				C46.4,101,46.2,101.7,46.2,102.8z"/>
			<path id="XMLID_324_" fill="#2D2D2B" d="M59.5,104.2l1.4,0.2c-0.2,0.8-0.6,1.5-1.2,1.9c-0.6,0.5-1.4,0.7-2.3,0.7
				c-1.2,0-2.1-0.4-2.8-1.1s-1-1.7-1-3.1c0-1.4,0.3-2.4,1-3.2c0.7-0.7,1.6-1.1,2.7-1.1c1.1,0,2,0.4,2.6,1.1c0.7,0.7,1,1.8,1,3.1
				c0,0.1,0,0.2,0,0.4h-6c0.1,0.9,0.3,1.6,0.8,2c0.5,0.5,1,0.7,1.7,0.7c0.5,0,0.9-0.1,1.3-0.4S59.3,104.8,59.5,104.2z M55,102h4.5
				c-0.1-0.7-0.2-1.2-0.5-1.5c-0.4-0.5-1-0.8-1.7-0.8c-0.6,0-1.2,0.2-1.6,0.6C55.3,100.8,55,101.3,55,102z"/>
			<path id="XMLID_322_" fill="#2D2D2B" d="M64.8,106.8l-3.1-8.1h1.4l1.7,4.8c0.2,0.5,0.4,1.1,0.5,1.6c0.1-0.4,0.3-0.9,0.5-1.5
				l1.8-4.9h1.4l-3,8.1H64.8z"/>
			<path id="XMLID_319_" fill="#2D2D2B" d="M75.9,104.2l1.4,0.2c-0.2,0.8-0.6,1.5-1.2,1.9c-0.6,0.5-1.4,0.7-2.3,0.7
				c-1.2,0-2.1-0.4-2.8-1.1c-0.7-0.7-1-1.7-1-3.1c0-1.4,0.3-2.4,1-3.2c0.7-0.7,1.6-1.1,2.7-1.1c1.1,0,2,0.4,2.6,1.1
				c0.7,0.7,1,1.8,1,3.1c0,0.1,0,0.2,0,0.4h-6c0.1,0.9,0.3,1.6,0.8,2c0.4,0.5,1,0.7,1.7,0.7c0.5,0,0.9-0.1,1.3-0.4
				S75.7,104.8,75.9,104.2z M71.4,102h4.5c-0.1-0.7-0.2-1.2-0.5-1.5c-0.4-0.5-1-0.8-1.7-0.8c-0.6,0-1.2,0.2-1.6,0.6
				C71.7,100.8,71.4,101.3,71.4,102z"/>
			<path id="XMLID_317_" fill="#2D2D2B" d="M79,106.8V95.7h1.4v11.1H79z"/>
			<path id="XMLID_314_" fill="#2D2D2B" d="M82,102.8c0-1.5,0.4-2.6,1.2-3.3c0.7-0.6,1.5-0.9,2.5-0.9c1.1,0,2,0.4,2.7,1.1
				c0.7,0.7,1.1,1.7,1.1,3c0,1-0.2,1.9-0.5,2.4c-0.3,0.6-0.8,1.1-1.4,1.4c-0.6,0.3-1.2,0.5-1.9,0.5c-1.1,0-2-0.4-2.7-1.1
				S82,104.2,82,102.8z M83.4,102.8c0,1,0.2,1.8,0.7,2.3c0.5,0.5,1,0.8,1.7,0.8c0.7,0,1.2-0.3,1.7-0.8s0.7-1.3,0.7-2.4
				c0-1-0.2-1.8-0.7-2.3c-0.5-0.5-1-0.8-1.7-0.8c-0.7,0-1.2,0.3-1.7,0.8S83.4,101.8,83.4,102.8z"/>
			<path id="XMLID_311_" fill="#2D2D2B" d="M91.1,109.9V98.8h1.2v1c0.3-0.4,0.6-0.7,1-0.9c0.4-0.2,0.8-0.3,1.3-0.3
				c0.7,0,1.3,0.2,1.8,0.5c0.5,0.4,0.9,0.9,1.2,1.5c0.3,0.6,0.4,1.4,0.4,2.1c0,0.8-0.1,1.6-0.4,2.2c-0.3,0.7-0.7,1.2-1.3,1.5
				c-0.6,0.4-1.2,0.5-1.8,0.5c-0.5,0-0.9-0.1-1.2-0.3c-0.4-0.2-0.7-0.4-0.9-0.7v3.9H91.1z M92.3,102.8c0,1,0.2,1.8,0.6,2.3
				c0.4,0.5,0.9,0.7,1.5,0.7c0.6,0,1.1-0.3,1.6-0.8c0.4-0.5,0.6-1.3,0.6-2.4c0-1-0.2-1.8-0.6-2.3s-0.9-0.8-1.5-0.8
				c-0.6,0-1.1,0.3-1.5,0.8C92.6,101,92.3,101.8,92.3,102.8z"/>
			<path id="XMLID_309_" fill="#2D2D2B" d="M99.7,106.8v-8.1h1.2v1.1c0.3-0.4,0.6-0.7,1-1c0.4-0.2,0.9-0.4,1.4-0.4
				c0.6,0,1.1,0.1,1.5,0.4s0.7,0.6,0.8,1c0.6-0.9,1.5-1.4,2.5-1.4c0.8,0,1.4,0.2,1.8,0.7s0.6,1.1,0.6,2v5.5h-1.4v-5.1
				c0-0.5,0-0.9-0.1-1.2c-0.1-0.2-0.2-0.4-0.5-0.6s-0.5-0.2-0.8-0.2c-0.6,0-1,0.2-1.4,0.6c-0.4,0.4-0.6,1-0.6,1.8v4.7h-1.4v-5.2
				c0-0.6-0.1-1.1-0.3-1.4c-0.2-0.3-0.6-0.5-1.1-0.5c-0.4,0-0.7,0.1-1.1,0.3c-0.3,0.2-0.6,0.5-0.7,0.9c-0.1,0.4-0.2,1-0.2,1.7v4.2
				H99.7z"/>
			<path id="XMLID_306_" fill="#2D2D2B" d="M118.2,104.2l1.4,0.2c-0.2,0.8-0.6,1.5-1.2,1.9c-0.6,0.5-1.4,0.7-2.3,0.7
				c-1.2,0-2.1-0.4-2.8-1.1c-0.7-0.7-1-1.7-1-3.1c0-1.4,0.3-2.4,1-3.2c0.7-0.7,1.6-1.1,2.7-1.1c1.1,0,2,0.4,2.6,1.1
				c0.7,0.7,1,1.8,1,3.1c0,0.1,0,0.2,0,0.4h-6c0.1,0.9,0.3,1.6,0.8,2c0.4,0.5,1,0.7,1.7,0.7c0.5,0,0.9-0.1,1.3-0.4
				S118,104.8,118.2,104.2z M113.7,102h4.5c-0.1-0.7-0.2-1.2-0.5-1.5c-0.4-0.5-1-0.8-1.7-0.8c-0.6,0-1.2,0.2-1.6,0.6
				C114,100.8,113.8,101.3,113.7,102z"/>
			<path id="XMLID_304_" fill="#2D2D2B" d="M121.3,106.8v-8.1h1.2v1.1c0.6-0.9,1.4-1.3,2.6-1.3c0.5,0,0.9,0.1,1.3,0.3
				c0.4,0.2,0.7,0.4,0.9,0.7s0.3,0.6,0.4,1c0,0.3,0.1,0.7,0.1,1.3v5h-1.4v-4.9c0-0.6-0.1-1-0.2-1.2c-0.1-0.3-0.3-0.5-0.6-0.7
				s-0.6-0.2-1-0.2c-0.6,0-1.1,0.2-1.5,0.6c-0.4,0.4-0.6,1.1-0.6,2.1v4.4H121.3z"/>
			<path id="XMLID_302_" fill="#2D2D2B" d="M132.9,105.6l0.2,1.2c-0.4,0.1-0.7,0.1-1,0.1c-0.5,0-0.9-0.1-1.2-0.2
				c-0.3-0.2-0.5-0.4-0.6-0.6c-0.1-0.3-0.2-0.8-0.2-1.6v-4.6h-1v-1.1h1v-2l1.4-0.8v2.8h1.4v1.1h-1.4v4.7c0,0.4,0,0.6,0.1,0.8
				c0,0.1,0.1,0.2,0.2,0.3c0.1,0.1,0.3,0.1,0.5,0.1C132.5,105.7,132.7,105.6,132.9,105.6z"/>
		</g>-->
	</g>
</g>
<g id="Layer_2">
	<g id="XMLID_12_">
		<path id="left" fill="#1D1D1B" d="M59.4,78.6l-25.3-11v-6.1l25.3-10.9v7.2l-17.6,6.7l17.6,7V78.6z">
			<!--<animate id="first" begin="0s; second.end" attributeName="fill"
														attributeType="XML"
														type="translate"
														to="699166"
														dur="4s"


														/>
														<animate id="second" begin="first.end" attributeName="fill"
																									attributeType="XML"
																									type="translate"
																									from="699166"
																									to="#1D1D1B"
																									dur="4s"


																									/>-->
		</path>
		<path id="XMLID_42_" fill="#1D1D1B" d="M61.7,83.4l9.1-38.1h5.3l-9.2,38.1H61.7z"/>
		<path id="right" fill="#1D1D1B" d="M78.5,78.6v-7.1l17.6-6.9l-17.6-6.9v-7.1l25.3,10.9v6L78.5,78.6z">

			<!--<animate id="first" begin="0s; second.end" attributeName="fill"
														attributeType="XML"
														type="translate"
														to="699166"
														dur="4s"


														/>
														<animate id="second" begin="first.end" attributeName="fill"
																									attributeType="XML"
																									type="translate"
																									from="699166"
																									to="#1D1D1B"
																									dur="4s"


																									/>-->
		</path>
	</g>
</g>
</svg>
