<?xml version="1.0" encoding="utf-8"?>
<!-- Generator: Adobe Illustrator 19.0.0, SVG Export Plug-In . SVG Version: 6.00 Build 0)  -->
<svg version="1.1" id="Layer_1" xmlns="http://www.w3.org/2000/svg" xmlns:xlink="http://www.w3.org/1999/xlink" x="0px" y="0px"
	 viewBox="0 0 141.7 141.7" style="enable-background:new 0 0 141.7 141.7;" xml:space="preserve">
<style type="text/css">
	.st0{fill:none;stroke:#000000;stroke-width:9;stroke-miterlimit:10;}
</style>
<circle id="XMLID_1_" class="st0" cx="70.6" cy="70.9" r="56.5"/>
<g id="XMLID_3_">
	<path id="XMLID_4_" d="M55.1,79.7L52,91H41.7l13.4-44h13.1l13.7,44H71.1l-3.4-11.3H55.1z M66.3,72.2l-2.7-9.3
		c-0.8-2.6-1.6-5.9-2.2-8.5h-0.1c-0.7,2.6-1.3,5.9-2,8.5l-2.6,9.3H66.3z"/>
	<path id="XMLID_7_" d="M97.3,50.1c0,2.7-2,5-5.4,5c-3.1,0-5.2-2.2-5.2-5c0-2.8,2.1-5,5.3-5S97.2,47.3,97.3,50.1z M87,91V59H97v32
		H87z"/>
</g>
</svg>
