<?xml version="1.0" encoding="utf-8"?>
<!-- Generator: Adobe Illustrator 19.0.0, SVG Export Plug-In . SVG Version: 6.00 Build 0)  -->
<svg version="1.1" id="Layer_1" height="100" width="100" xmlns="http://www.w3.org/2000/svg" xmlns:xlink="http://www.w3.org/1999/xlink" x="0px" y="0px"
	 viewBox="0 0 595.3 595.3" style="enable-background:new 0 0 595.3 595.3;" xml:space="preserve">
<style type="text/css">
	.st0{fill:#FFFFFF;}
</style>
<path id="Blue_1_" d="M550.6,583.7c17.4,0,31.6-14.1,31.6-31.6V42.8c0-17.5-14.1-31.6-31.6-31.6H41.4c-17.5,0-31.6,14.1-31.6,31.6
	v509.3c0,17.4,14.1,31.6,31.6,31.6H550.6z"/>
<path id="f" class="st0" d="M404.8,583.7V362h74.4l11.1-86.4h-85.6v-55.2c0-25,6.9-42.1,42.8-42.1l45.8,0v-77.3
	c-7.9-1.1-35.1-3.4-66.7-3.4c-66,0-111.1,40.3-111.1,114.2v63.7h-74.6V362h74.6v221.7H404.8z"/>
</svg>
