<?xml version="1.0" encoding="utf-8"?>
<!-- Generator: Adobe Illustrator 19.0.0, SVG Export Plug-In . SVG Version: 6.00 Build 0)  -->
<svg version="1.1" id="Layer_1" xmlns="http://www.w3.org/2000/svg" xmlns:xlink="http://www.w3.org/1999/xlink" x="0px" y="0px"
	 viewBox="0 0 453.5 283.5" style="enable-background:new 0 0 453.5 283.5;" xml:space="preserve">
	 <style type="text/css">
	 	.st0{
		fill:black;
		animation: togreen 5s ease-in-out infinite alternate;
		}
	 	.st0:hover {



	 	}

	 	@keyframes togreen{



  		to {
    		fill: gray;
  		}


	 	}
	 </style>
<g id="XMLID_3_">
	<g id="XMLID_13_">
		<path id="XMLID_17_" class="st0" d="M179.1,50.3C177.8,27.6,165-0.2,138.2,2.6C121,4.4,105.6,15.5,93,26.6
			c-14.5,12.8-27,28.3-36.7,45C48,86.1,40.5,103,40.7,120c0.1,15,8.1,29.7,23,34.5c14.7,4.7,30.7-2.8,43.3-10
			c6.5-3.7,12.6-7.9,18.9-11.9c2.3-1.5,4.7-3,7.1-4.3c1.1-0.6,2.1-1.2,3.3-1.6c-1.2,0.5,1.6-0.3,2.1-0.5c-0.4,0.2-1.3-0.2-0.6,0.1
			c1.2,0.5-1.8-0.6-1.7-0.5c-0.1,0-1.4-2.3-0.6-0.4c0.8,1.9,0-0.7,0.5,1c0.2,0.9,0.5,1.7,0.7,2.6c0.5,2,0.1,0.2,0.3,1.9
			c0.1,1.2,0.1,2.3,0.2,3.5c0,2.6-0.1,5.3-0.4,7.9c-1.2,13-5.1,27.2-9.4,40.1c-5,15-11.1,29.7-18.5,43.7
			c-6.6,12.5-14.3,24.9-24.6,34.8c-3.7,3.5-7.3,6.4-12.2,8.5c-3.1,1.3-7,1.6-10.3,0.8c-1.6-0.4-1.1-0.4-1.9-0.7
			c-1.8-0.7,0.5,0.2-0.5-0.2c-1.4-0.6,0.5,0.7-0.3-0.3c-0.2-0.2-0.4-0.6-0.5-0.9c0.7,2.3,0.1,0.2,0.1-0.1c0-2.1-0.2,0.9-0.1-0.8
			c0-0.7,0-1.3,0-2c0-0.4,0.1-0.9,0.1-1.3c-0.2,1.8,0,0.2,0.1-0.1c0.2-1.1,0.5-2.3,0.8-3.4c2.7-9.5,8.7-19.3,14.7-28.4
			c8.2-12.5,17.4-24.3,27.1-35.7c18.9-22.2,39.8-44.5,63.4-61.5c4.1-3,8.3-5.8,12.8-8.1c1-0.5,1.9-1,2.9-1.4
			c1.6-0.7-1.2,0.5,0.3-0.2c0.4-0.2,0.9-0.4,1.3-0.5c0.8-0.3,1.5-0.5,2.3-0.7c0.3-0.1,0.7-0.1,1-0.2c1.7-0.5-0.8,0,0.2-0.1
			c2.3-0.1,2.3-0.3,4.1,0.9c1.6,1.1,2.5,3.9,2.9,6.2c1,5.8-0.5,11.7-2.9,16.3c0.6-1.2,0,0.4-0.3,0.2c0.1,0.1,0.3-0.6,1.1-0.5
			c0.9,0.1,1.5,0,2.4,0.3c0.4,0.2,0.9,1.4,1,1.5c-0.2,0-0.1-1,0.1-1.7c0.3-1.4,0.8-2.8,1.4-4.2c3-7.1,8.3-14.3,14.4-19.1
			c1.1-0.9,2.3-1.5,3.5-2.3c0.3-0.2,1.4,0.1-0.2-0.5c3.5,1.3,6.4,4.3,10,5.7c9.4,3.8,22.1,4.6,31.7,1.2c10.7-3.8,24-21.8,32.9-5.2
			c3.9,7.3,4.1,19.2-3.2,24.5c-5.3,3.8-13.7,4.7-19.5,1.5c-7.4-4.1-4.7-14.6-0.9-20.4c5.3-8.1,15.9-14,25.4-15.1
			c7.9-0.9,9.3,3.3,9.9,10.1c0.8,8.6,0.2,17.8,2.8,26.1c2.5,7.8,9.1,11.7,17.2,9.7c6.8-1.7,11.4-7.6,14.4-13.6
			c3.1-6.2,5.1-13,7.9-19.1c0.6-1.2,1.2-2.5,2-3.7c1-1.4-0.1,0.8,0.5-0.6c0.3-0.8,0.7,0.2-0.1,0c1,0.2-1.3-0.2-1-0.1
			c-0.9-0.4-1.5-1.2-2.2-1.6c1,0.6,0.1,0,0.2,0.5c1.2,4,0.8,9.5,1,14.9c0.1,5.9,0.2,12.4,2.8,17.8c8.6,17.5,29.1-1.5,35.2-10.9
			c4.7-7.1,7.3-15.2,10.5-23c0.3-0.7,0.5-0.7,0.9-1.9c0.5-1.7,0.1,0.3-0.1-0.1c-2.1,0.2-4.2,0.5-6.3,0.7c-1.5-1.7-2-2.1-1.3-1.1
			c0,1.8,1.7,3.6,2.4,6.1c3.7,13,3,27.5,1.5,41.1c-1.8,16.7-5.6,33.2-11,49.1c-5,14.6-11.5,29.5-21.2,41.6
			c-7.4,9.2-16.3,15.9-27.3,15.7c-2.6,0,0.5,0.4-1.4-0.2c-1.5-0.4,1.2,0.9-0.4-0.2c1.6,1.1-0.1-0.7,0.9,0.9
			c-1.1-1.8,0.3,0.6-0.4-0.6c-0.1-0.2-0.2-0.7-0.2-0.9c0-1.3,0.1,1.7,0.1,0.3c0-0.7,0-1.4,0-2c0-2-0.3,0.8,0.1-1
			c0.2-1.1,0.4-2.2,0.7-3.3c2.7-9.9,7.7-18.7,13.1-28.2c7.3-12.6,15.3-24.8,23.6-36.8c14.5-21.1,30.3-42.2,45.6-61.7
			c2.7-3.4,5.3-6.8,8-10.1c5.1-6.3-3.8-15.3-9-9c-11.5,14.3-22.7,28.9-33.6,43.7c-18.3,24.7-36.7,50-50.9,77.3
			c-4.7,9-10.1,19.3-10.4,29.7c-0.2,10.6,7.8,15.5,17.6,14.8c14.9-1.1,26.5-11.1,35.2-22.5c10.6-13.9,17.6-30.3,23-46.8
			c5.7-17.6,9.5-36,11-54.4c1.2-14.2,1.5-30.1-3.7-43.7c-2.3-5.9-8.1-14.2-14.9-7.4c-4.7,4.8-6,13.4-8.8,19.3
			c-3.7,7.8-9.3,16.2-17,19.5c-0.3,0.1-1.9,0.5-1.2,0.3c-0.2,0,0.6,0,0.1-0.1c1,0.2,0.9,0.9,1,0.5c0-0.5,0.2,0.6-0.3-0.5
			c-0.1-0.2,0.2,0.6-0.2-0.5c-0.2-0.6-0.3-1.2-0.5-1.8c-0.4-1.6-0.3-1.5-0.5-3.4c-0.8-9.1,3.1-31.1-10.3-32.7
			c-14.6-1.7-17.7,22.2-23,31.4c-1.4,2.4-3.2,4.9-4.9,5.6c-0.8,0.4-1.3,0.2-2.4,0.3c0.9-0.1,0.6,0.9,0.3-0.1
			c-2.9-8.4-1.9-17.8-3-26.5c-1.1-8.7-4.7-16.4-13.9-19c-10.7-3-23.8,2.2-32.6,8.3c-9.3,6.4-16.3,16-17.5,27.5
			c-1,9.9,3,19.2,12.3,23.5c8.4,3.9,18.4,3.5,26.8-0.2c10-4.5,15-13.7,15.9-24.5c0.9-11.1-3.9-23.5-13.6-29.7
			c-7.9-5-17.8-3.9-25.4,1.1c-5.7,3.8-10,8.5-17.3,9.6c-5.7,0.9-12.2,0.3-17.7-1.5c-3.7-1.2-6.4-3.8-9.8-5.5
			c-8.1-3.9-16.1,2.3-21.5,7.8c-6.3,6.4-11.8,14.3-14.9,22.8c-2.5,6.7-2.4,16.3,6,18.7c7.6,2.2,12.5-5.3,14.7-11.4
			c4.8-13.4,2.1-36.2-16.1-36.7c-9.5-0.3-18.9,6-26.3,11.1c-26.2,18.1-48.8,42-69.3,66.2C81.1,200.5,71,213.3,62.2,227
			c-6.3,9.7-12.9,20.5-15.5,32c-2,8.9-0.7,18.5,8.6,22.3c11.7,4.9,23.7,0.1,33.1-7.3c11.6-9.2,20.3-22.2,27.7-34.9
			c8.8-15.4,16-31.8,21.8-48.5c5.1-14.7,9.3-29.9,11.1-45.3c1-8.7,2.5-23.3-5.5-29.5c-4.7-3.7-10.6-1.5-15.3,0.9
			c-6.1,3-11.7,7.1-17.4,10.7c-11.4,7.3-27.2,18.4-41.4,15.7c-15-2.9-17.6-19.7-15.2-32.3c3.7-18.8,14.1-36.3,25.7-51.3
			c11.7-15.1,26-29.5,43-38.5c6.7-3.5,14.8-6.8,22.5-5.4c6.4,1.1,11,5.6,14.1,11c2.9,5,4.6,10.6,5.8,16.4c0.2,1.1,0.4,2.3,0.6,3.4
			c0.1,0.5,0.2,1,0.2,1.5c-0.1-1-0.1-0.8,0,0c0.1,0.9,0.2,1.7,0.2,2.6C166.9,58.4,179.6,58.4,179.1,50.3L179.1,50.3z"/>
	</g>
</g>
</svg>
