<?xml version="1.0" encoding="utf-8"?>
<!-- Generator: Adobe Illustrator 19.0.0, SVG Export Plug-In . SVG Version: 6.00 Build 0)  -->
<svg version="1.1" id="Layer_1" xmlns="http://www.w3.org/2000/svg" xmlns:xlink="http://www.w3.org/1999/xlink" x="0px" y="0px"
	 viewBox="0 0 141.7 141.7" style="enable-background:new 0 0 141.7 141.7;" xml:space="preserve">
<style type="text/css">
	.st0{fill:none;stroke:#000000;stroke-width:9;stroke-miterlimit:10;}
</style>
<circle id="XMLID_7_" class="st0" cx="70.4" cy="70.9" r="56.5"/>
<g id="XMLID_1_">
	<path id="XMLID_2_" d="M53.7,48.9v44h-9.9v-44H53.7z"/>
	<path id="XMLID_4_" d="M92.8,46.6v36.9c0,3.6,0.1,7.4,0.3,9.5h-8.8l-0.4-4.6h-0.2c-2,3.5-5.9,5.4-10,5.4c-7.6,0-13.7-6.5-13.7-16.4
		c-0.1-10.8,6.7-17.1,14.3-17.1c4,0,7,1.4,8.4,3.6h0.1V46.6H92.8z M82.8,74.6c0-0.5,0-1.2-0.1-1.8c-0.6-2.6-2.7-4.8-5.8-4.8
		c-4.6,0-6.9,4.1-6.9,9.1c0,5.4,2.7,8.8,6.8,8.8c2.9,0,5.2-2,5.8-4.8c0.1-0.7,0.2-1.5,0.2-2.3V74.6z"/>
</g>
</svg>
