<?xml version="1.0" encoding="utf-8"?>
<!-- Generator: Adobe Illustrator 19.0.0, SVG Export Plug-In . SVG Version: 6.00 Build 0)  -->
<svg version="1.1" height="100" width="100" id="Layer_1" xmlns="http://www.w3.org/2000/svg" xmlns:xlink="http://www.w3.org/1999/xlink" x="0px" y="0px"
	 viewBox="-41 42.3 512 512" style="enable-background:new -41 42.3 512 512;" xml:space="preserve">

<path id="insta" d="M317.7,227.3H462v221.5c0,54-43.7,97.7-97.7,97.7H65.7c-54,0-97.7-43.7-97.7-97.7V227.3h143.7
	c-14.7,20.6-23.4,45.9-23.4,73.2c0,69.8,56.6,126.4,126.4,126.4s126.4-56.6,126.4-126.4C341.1,273.2,332.4,248.1,317.7,227.3z
	 M462,147.7v64.1H304.7c-22.9-23.3-54.8-37.7-90-37.7c-35.3,0-67.1,14.5-90,37.7H-31.9v-64.1c0-32.9,16.3-62.1,41.2-79.8v105.2h20
	V57c4.6-1.8,9.3-3.4,14.1-4.5v120.6h20V50c0.7,0,1.4,0,2.3,0h11.6v123.2h20V50h266.9C418.3,50,462,93.8,462,147.7z M417.4,106.6
	c0-8.7-7-15.7-15.7-15.7H349c-8.7,0-15.7,7-15.7,15.7v54c0,8.7,7,15.7,15.7,15.7h52.8c8.7,0,15.7-7,15.7-15.7V106.6L417.4,106.6z
	 M117.3,300.6c0-29.2,12.9-55.3,33.3-73.2c7.1-6.3,15.2-11.4,24-15.4c12.3-5.5,25.8-8.7,40.1-8.7c14.3,0,28,3.1,40.1,8.7
	c8.8,4,16.9,9.2,24,15.4c20.4,17.8,33.3,44,33.3,73.2c0,53.6-43.6,97.4-97.4,97.4C161.1,397.9,117.3,354.2,117.3,300.6z
	 M143.1,300.6c0,39.8,32.2,71.9,71.9,71.9s71.9-32.2,71.9-71.9s-32.2-71.9-71.9-71.9C175.3,228.5,143.1,260.8,143.1,300.6z"/>
</svg>
