<?xml version="1.0" encoding="utf-8"?>
<!-- Generator: Adobe Illustrator 19.0.0, SVG Export Plug-In . SVG Version: 6.00 Build 0)  -->
<svg version="1.1" id="Layer_1" xmlns="http://www.w3.org/2000/svg" xmlns:xlink="http://www.w3.org/1999/xlink" x="0px" y="0px"
	 viewBox="-41 42.3 512 512" style="enable-background:new -41 42.3 512 512;" xml:space="preserve">
<style type="text/css">
	.st0{
		fill:#000000;
		pointer-events:all;
	}

	.st0 {
		pointer-events:all;
	}

	.st0:hover {

		animation: color 0.5s forwards;
	}

	@-webkit-keyframes color {
	 to {fill: #699166;}


	}

	/* Standard syntax */
	@keyframes color {

		 to {fill: #699166;}

	}

	@-ms-keyframes color {
	 to {fill: #699166;}

	}

	/* Standard syntax */
	@-o-keyframes color {
		 to {fill: #699166;}

	}
</style>
<path id="insta" class="st0" d="M300.2,239.4h119.7v183.8c0,44.8-36.3,81.1-81.1,81.1H91.1c-44.8,0-81.1-36.3-81.1-81.1
	V239.4h119.2c-12.2,17.1-19.4,38.1-19.4,60.7c0,57.9,47,104.9,104.9,104.9c57.9,0,104.9-47,104.9-104.9
	C319.6,277.5,312.4,256.6,300.2,239.4z M419.9,173.3v53.2H289.4c-19-19.3-45.5-31.3-74.7-31.3c-29.3,0-55.7,12-74.7,31.3H10.1v-53.2
	c0-27.3,13.5-51.5,34.2-66.2v87.3h16.6V98.1c3.8-1.5,7.7-2.8,11.7-3.7v100.1h16.6V92.3c0.6,0,1.2,0,1.9,0h9.6v102.2h16.6V92.3h221.5
	C383.6,92.3,419.9,128.6,419.9,173.3z M382.9,139.2c0-7.2-5.8-13-13-13h-43.8c-7.2,0-13,5.8-13,13V184c0,7.2,5.8,13,13,13h43.8
	c7.2,0,13-5.8,13-13L382.9,139.2L382.9,139.2z M133.9,300.2c0-24.2,10.7-45.9,27.6-60.7c5.9-5.2,12.6-9.5,19.9-12.8
	c10.2-4.6,21.4-7.2,33.3-7.2c11.9,0,23.2,2.6,33.3,7.2c7.3,3.3,14,7.6,19.9,12.8c16.9,14.8,27.6,36.5,27.6,60.7
	c0,44.5-36.2,80.8-80.8,80.8C170.2,380.9,133.9,344.7,133.9,300.2z M155.3,300.2c0,33,26.7,59.7,59.7,59.7s59.7-26.7,59.7-59.7
	c0-33-26.7-59.7-59.7-59.7C182,240.4,155.3,267.2,155.3,300.2z"/>
</svg>
