<?xml version="1.0" encoding="utf-8"?>
<!-- Generator: Adobe Illustrator 19.0.0, SVG Export Plug-In . SVG Version: 6.00 Build 0)  -->
<svg version="1.1" id="Layer_1" xmlns="http://www.w3.org/2000/svg" xmlns:xlink="http://www.w3.org/1999/xlink" x="0px" y="0px"
	 viewBox="0 0 595.3 595.3" style="enable-background:new 0 0 595.3 595.3;" xml:space="preserve">
<style type="text/css">
	.st0{fill:#010101;}
</style>
<path id="XMLID_7_" class="st0" d="M25.8,301.4c0-75.3,26.7-139.7,80-193s117.6-80,193-80s139.7,26.7,193,80s80,117.6,80,193
	s-26.7,139.7-80,193s-117.6,80-193,80s-139.7-26.7-193-80S25.8,376.7,25.8,301.4L25.8,301.4z M159.1,406.9h279.3L347.8,312l-49,27.7
	l-49-27.7L159.1,406.9z M159.1,374.9l71.4-74.6l-71.4-40.5V374.9L159.1,374.9z M159.1,235.3l139.7,78.9l139.7-78.9v-39.5H159.1
	L159.1,235.3L159.1,235.3z M367,300.3l71.4,74.6V259.8L367,300.3z"/>
</svg>
