<?xml version="1.0" encoding="utf-8"?>
<!-- Generator: Adobe Illustrator 19.0.0, SVG Export Plug-In . SVG Version: 6.00 Build 0)  -->
<svg version="1.1" id="Layer_1" xmlns="http://www.w3.org/2000/svg" xmlns:xlink="http://www.w3.org/1999/xlink" x="0px" y="0px"
	 viewBox="0 0 141.7 141.7" style="enable-background:new 0 0 141.7 141.7;" xml:space="preserve">


<style type="text/css">
	.st0 {
		fill:none;
		stroke:#000000;
		stroke-width:9;
		stroke-miterlimit:10;

	}

	.st0:hover {
		animation: togreen 1s ease-in-out;
	}




	@keyframes togreen{



		to {
			stroke: #BBFFC8;
		}


	}
</style>
<circle id="XMLID_5_" class="st0" cx="69.7" cy="69.9" r="56.5"/>
<g id="XMLID_1_">
	<path id="XMLID_2_" d="M41,48.5c3.1-0.5,7.4-0.9,13.5-0.9c6.1,0,10.5,1.2,13.5,3.5c2.9,2.2,4.7,5.9,4.7,10.2c0,4.3-1.4,8-4.1,10.5
		c-3.4,3.1-8.4,4.6-14.3,4.6c-1.3,0-2.5-0.1-3.4-0.3V92H41V48.5z M50.9,68.5c0.8,0.2,1.8,0.3,3.3,0.3c5.3,0,8.6-2.7,8.6-7.1
		c0-4.1-2.8-6.5-7.8-6.5c-2,0-3.3,0.1-4.1,0.3V68.5z"/>
	<path id="XMLID_7_" d="M77.2,83.4c1.8,1.1,5.6,2.4,8.6,2.4c3,0,4.2-1,4.2-2.6c0-1.7-1-2.5-4.6-3.7c-6.7-2.2-9.2-5.8-9.1-9.6
		c0-6,5.1-10.5,13-10.5c3.7,0,7,0.9,9,1.9L96.5,68c-1.4-0.8-4.2-1.8-6.9-1.8c-2.4,0-3.8,1-3.8,2.5c0,1.6,1.2,2.4,5.2,3.7
		c6.1,2.1,8.6,5.2,8.6,9.9c0,6-4.6,10.4-13.8,10.4c-4.2,0-7.9-1-10.3-2.3L77.2,83.4z"/>
</g>
</svg>
