<?xml version="1.0" encoding="utf-8"?>
<!-- Generator: Adobe Illustrator 19.0.0, SVG Export Plug-In . SVG Version: 6.00 Build 0)  -->
<svg version="1.1" id="robot" xmlns="http://www.w3.org/2000/svg" xmlns:xlink="http://www.w3.org/1999/xlink" x="0px" y="0px"
	 viewBox="0 0 595.3 841.9" enable-background="new 0 0 595.3 841.9" xml:space="preserve">

	 <defs>
	 	<style>


				#left_arm {
				  animation: wave 2s infinite;
					animation-timing-function: linear;
					-webkit-animation: wave 2s infinite;
					-webkit-animation-timing-function: linear;
					-o-animation: wave 2s infinite;
					-o-animation-timing-function: linear;
					-ms-animation: wave 2s infinite;
					-ms-animation-timing-function: linear;
					-moz-animation: wave 2s infinite;
					-moz-animation-timing-function: linear;

				}

				@keyframes wave {
					0% {
						transform: rotate(0deg);
						transform-origin: 215px 368px;
						animation-timing-function: linear;
					}
					50% {
						transform: rotate(60deg);
						transform-origin: 215px 368px;
						animation-timing-function: linear;

					}
					100% {
						transform: rotate(0deg);
						transform-origin: 215px 368px;
						animation-timing-function: linear;
						}

					}

					@-webkit-keyframes wave {
						0% {

							-webkit-transform: rotate(0deg);
							-webkit-transform-origin: 215px 368px;

							}
						50% {

							-webkit-transform: rotate(60deg);
							-webkit-transform-origin: 215px 368px;
							}


						100% {

							-webkit-transform: rotate(0deg);
							-webkit-transform-origin: 215px 368px;

							}
						}
						@-ms-keyframes wave {
							0% {

								-ms-transform: rotate(0deg);
								-ms-transform-origin: 215px 368px;

							}
							50% {


								-ms-transform: rotate(60deg);
								-ms-transform-origin: 215px 368px;

							}
							100% {


								-ms-transform: rotate(0deg);
								-ms-transform-origin: 215px 368px;

								}
							}
							@-o-keyframes wave {
								0% {

									-o-transform: rotate(0deg);
									-o-transform-origin: 215px 368px;
								}
								50% {

									-o-transform: rotate(60deg);
									-o-transform-origin: 215px 368px;
								}
								100% {

									-o-transform: rotate(0deg);
									-o-transform-origin: 215px 368px;
									}
								}

								@-moz-keyframes wave {
									0% {

										-moz-transform: rotate(0deg);
										-moz-transform-origin: 215px 368px;

									}
									50% {


										-moz-transform: rotate(60deg);
										-moz-transform-origin: 215px 368px;

									}
									100% {
										-moz-transform: rotate(0deg);
										-moz-transform-origin: 215px 368px;
										}
								}











	 	</style>

	 </defs>


<path id="XMLID_194_" fill="#96D0A1" d="M480.4,505.6h-42.6c-1.6,0-3-1.4-3-3V366.5c0-1.6,1.4-3,3-3h42.6c1.6,0,3,1.4,3,3v136.2
	C483.4,504.3,482,505.6,480.4,505.6z"/>
<path id="XMLID_195_" fill="#96D0A1" d="M480.2,362.6h-42.4c-1.6,0-3-1.3-3-3v-82.9c0-1.6,1.4-3,3-3h42.4c1.6,0,3,1.4,3,3v82.9
	C483.2,361.3,481.8,362.6,480.2,362.6z"/>
<circle id="right_ball" fill="#A5D6AB" cx="459.2" cy="372.1" r="28.8"/>
<ellipse id="XMLID_2_" transform="matrix(0.841 -0.5411 0.5411 0.841 -125.1697 301.065)" fill="#B9DEBC" cx="449.6" cy="363.5" rx="13.6" ry="14.3"/>
<path id="XMLID_190_" fill="#96D0A1" d="M303.5,765.1h-38c-1.6,0-3-1.3-3-3V516.9c0-1.6,1.4-3,3-3h38c1.7,0,3,1.4,3,3v245.1
	C306.5,763.7,305.2,765.1,303.5,765.1z"/>
<g id="right_joint">
	<ellipse id="XMLID_168_" fill="#4E6F52" cx="457.8" cy="241.2" rx="33.7" ry="6.8"/>
	<ellipse id="XMLID_167_" fill="#4E6F52" cx="457.8" cy="252.1" rx="33.7" ry="6.8"/>
	<ellipse id="XMLID_166_" fill="#4E6F52" cx="457.8" cy="263" rx="33.7" ry="6.8"/>
	<ellipse id="XMLID_165_" fill="#4E6F52" cx="457.8" cy="273.8" rx="33.7" ry="6.8"/>
</g>
<path id="left_joint" fill="#96D0A1" d="M240.1,367h-46.9c-1.6,0-3-1.4-3-3v-82c0-1.6,1.4-3,3-3h46.9c1.7,0,3,1.4,3,3v82
	C243.1,365.6,241.8,367,240.1,367z"/>
<g id="XMLID_139_">
	<ellipse id="XMLID_163_" fill="#4E6F52" cx="216.7" cy="242.8" rx="33.7" ry="6.8"/>
	<ellipse id="XMLID_162_" fill="#4E6F52" cx="216.7" cy="253.8" rx="33.7" ry="6.8"/>
	<ellipse id="XMLID_161_" fill="#4E6F52" cx="216.7" cy="264.6" rx="33.7" ry="6.8"/>
	<ellipse id="XMLID_142_" fill="#4E6F52" cx="216.7" cy="275.4" rx="33.7" ry="6.8"/>
</g>
<ellipse id="XMLID_202_" fill="#65906B" cx="271.9" cy="165.2" rx="19.3" ry="33.5"/>
<ellipse id="XMLID_201_" fill="#65906B" cx="396.9" cy="165.2" rx="19.3" ry="33.5"/>
<ellipse id="XMLID_200_" fill="#65906B" cx="334.7" cy="102.8" rx="19.3" ry="14.6"/>
<path id="XMLID_199_" fill="#96D0A1" d="M387.9,228H281.6c-5,0-9-4.1-9-9V111.8c0-4.9,4-9,9-9h106.3c4.9,0,9,4.1,9,9V219
	C396.9,224,392.8,228,387.9,228z"/>
<path id="XMLID_198_" fill="#93C19B" d="M366.5,233.3h-64.4c-1.6,0-3-1.4-3-3v-35.3c0-1.7,1.4-3,3-3h64.4c1.6,0,3,1.3,3,3v35.3
	C369.5,231.9,368.2,233.3,366.5,233.3z"/>
<path id="XMLID_197_" fill="#96D0A1" d="M403.7,770.2h-38c-1.6,0-3-1.3-3-3V510.5c0-1.6,1.4-3,3-3h38c1.7,0,3,1.4,3,3v256.7
	C406.7,768.9,405.4,770.2,403.7,770.2z"/>
<path id="XMLID_196_" fill="#65906B" d="M433.9,519.1H235.5c-1.7,0-3-1.3-3-3V228.8c0-1.6,1.3-3,3-3h198.4c1.6,0,3,1.4,3,3v287.3
	C436.9,517.8,435.5,519.1,433.9,519.1z"/>
<path id="right_shoe" fill="#A5D6AB" d="M346.4,778.6c0-29,22.6-52.5,50.4-52.5s50.4,23.5,50.4,52.5"/>
<circle id="left_leg_ball" fill="#A5D6AB" cx="284.5" cy="619.3" r="28.8"/>
<circle id="right_leg_ball" fill="#A5D6AB" cx="384.4" cy="618.6" r="28.8"/>
<path id="left_shoe" fill="#A5D6AB" d="M222.1,778.6c0-29,22.6-52.5,50.4-52.5s50.4,23.5,50.4,52.5"/>
<ellipse id="XMLID_184_" fill="#AFDAB4" cx="250" cy="748.3" rx="13.6" ry="14.3"/>
<ellipse id="XMLID_183_" fill="#AFDAB4" cx="272.6" cy="611.4" rx="13.6" ry="14.3"/>
<ellipse id="XMLID_182_" fill="#AFDAB4" cx="371.2" cy="611.4" rx="13.6" ry="14.3"/>
<ellipse id="XMLID_181_" fill="#AFDAB4" cx="371.2" cy="750.8" rx="13.6" ry="14.3"/>
<ellipse id="left_eye" fill="#6F9C75" cx="310.3" cy="164.7" rx="19.6" ry="20.1"/>
<circle id="left_eyeball" fill="#B0DBB6" cx="310.5" cy="164.6" r="11.4">
	<!--<animate begin="click"
		attributeName="fill"
		dur="0.2s"
		to="282828"
		fill="freeze"

		/>
-->
</circle>
<ellipse id="right_eye" fill="#6F9C75" cx="358" cy="164.6" rx="19.6" ry="20.1"/>
<circle id="right_eyeball" fill="#B0DBB6" cx="358.2" cy="164.5" r="11.4">
	<!--<animate begin="click"
		attributeName="fill"
		dur="0.2s"
		to="282828"
		fill="freeze"

		/>-->
</circle>
<path id="jaw" fill="#A5D6AB" d="M374.6,237.3h-80.4c-1.6,0-3-1.4-3-3V206c0-1.6,1.4-3,3-3h80.4c1.7,0,3,1.4,3,3v28.3
	C377.6,236,376.2,237.3,374.6,237.3z">


</path>
<path id="XMLID_175_" fill="#65906B" d="M373.4,139.5h-82c-1.1,0-2-0.9-2-2v-13.3c0-1.1,0.9-2,2-2h82c1.1,0,2,0.9,2,2v13.3
	C375.4,138.6,374.5,139.5,373.4,139.5z"/>
<circle id="left_eyeball_light" fill="#C3E2C5" cx="306" cy="163.4" r="4.3">
	<!--<animate begin="click"
		attributeName="fill"
		dur="0.2s"
		to="FFFFFF"
		fill="freeze"

		/>-->
</circle>
<circle id="right_eyeball_light" fill="#C3E2C5" cx="353.7" cy="162.7" r="4.3">
	<!--<animate begin="click"
		attributeName="fill"
		dur="0.2s"
		to="FFFFFF"
		fill="freeze"

		/>-->
</circle>
<line id="XMLID_170_" fill="none" stroke="#65906B" stroke-width="2" stroke-miterlimit="10" x1="334.7" y1="63.4" x2="334.7" y2="94.9"/>
<circle id="signal" fill="#65906B" cx="335.4" cy="63.1" r="9.8">

</circle>
<path id="XMLID_6_" fill="#6E9B73" d="M485.7,497.4c-15.7-15.7-41-15.7-56.7,0c-15.7,15.7-15.7,41,0,56.7c2.1,2.1,4.3,3.9,6.7,5.4
	l0,0l9.6-15.2l0.2-0.3c-1-0.7-2-1.5-3-2.4c-8.1-8.1-8.1-21.3,0-29.4c8.1-8.1,21.3-8.1,29.4,0c8.1,8.1,8.1,21.3,0,29.4
	c-2.7,2.7-6,4.5-9.5,5.4l0,0l6.6,17.2c6.1-1.9,11.8-5.2,16.6-10C501.3,538.4,501.3,513,485.7,497.4z"/>
<g id="left_arm">
	<path id="XMLID_192_" fill="#A5D6AB" d="M231,358.4l-34.8,31.4c-1.2,1.1-3.1,1-4.2-0.2l-91.3-101.1c-1.1-1.2-1-3.1,0.2-4.2
		l34.8-31.4c1.2-1.1,3.1-1,4.2,0.2l91.3,101.1C232.3,355.4,232.2,357.3,231,358.4z"/>
	<path id="XMLID_5_" fill="#6E9B73" d="M105,212.6c-2.9,0-5.8,0.3-8.5,0.9l0,0l4,17.9c1.2-0.2,2.5-0.4,3.8-0.4
		c11.5,0,20.8,9.3,20.8,20.8c0,11.5-9.3,20.8-20.8,20.8c-11.5,0-20.8-9.3-20.8-20.8c0-3.9,1.1-7.5,2.9-10.6l0,0l-16.8-7.5
		c-3,5.6-4.7,12-4.7,18.8c0,22.1,17.9,40.1,40.1,40.1c22.1,0,40.1-17.9,40.1-40.1C145.1,230.6,127.2,212.6,105,212.6z">


</path>
<!--
<animateTransform id="vawe" begin="0s; vaweback.end" attributeName="transform"
											attributeType="XML"
											type="rotate"
											from="0 215 368"
											to="75 215 368"

											dur="500ms"

											/>

											<animateTransform id="vaweback" begin="vawe.end" attributeName="transform"
																						attributeType="XML"
																						type="rotate"
																						to="0 215 368"
																						from="75 215 368"

																						dur="500ms"

																					/>
-->
</g>
<circle id="left_ball" fill="#B3DBB5" cx="209.9" cy="370.7" r="28.8"/>
<ellipse id="left_ball_light" transform="matrix(0.841 -0.5411 0.5411 0.841 -163.0204 166.6132)" fill="#B9DEBC" cx="201.9" cy="360.6" rx="13.6" ry="14.3"/>
</svg>
